<svg width="200" height="200" viewBox="0 0 200 200" fill="none" xmlns="http://www.w3.org/2000/svg">
<g id="Filter-rafiki 1">
<g id="freepik--background-complete--inject-220">
<path id="Vector" d="M200 152.961H0V153.061H200V152.961Z" fill="#EBEBEB"/>
<path id="Vector_2" d="M179.96 159.396H166.712V159.496H179.96V159.396Z" fill="#EBEBEB"/>
<path id="Vector_3" d="M132.488 160.484H129.012V160.584H132.488V160.484Z" fill="#EBEBEB"/>
<path id="Vector_4" d="M166.312 155.684H158.636V155.784H166.312V155.684Z" fill="#EBEBEB"/>
<path id="Vector_5" d="M38.2604 156.355H20.9844V156.455H38.2604V156.355Z" fill="#EBEBEB"/>
<path id="Vector_6" d="M44.3562 156.355H41.8242V156.455H44.3562V156.355Z" fill="#EBEBEB"/>
<path id="Vector_7" d="M90.0599 158.045H52.5879V158.145H90.0599V158.045Z" fill="#EBEBEB"/>
<path id="Vector_8" d="M94.7999 135.12H17.5639C16.9589 135.119 16.379 134.878 15.9515 134.45C15.524 134.021 15.2839 133.441 15.2839 132.836V24.264C15.2892 23.6624 15.5316 23.0872 15.9585 22.6633C16.3854 22.2394 16.9623 22.001 17.5639 22H94.7999C95.4057 22 95.9866 22.2406 96.415 22.669C96.8433 23.0973 97.0839 23.6782 97.0839 24.284V132.836C97.0839 133.442 96.8433 134.023 96.415 134.451C95.9866 134.879 95.4057 135.12 94.7999 135.12ZM17.5639 22.08C16.9854 22.0811 16.4309 22.3116 16.0222 22.7211C15.6135 23.1306 15.3839 23.6855 15.3839 24.264V132.836C15.3839 133.415 15.6135 133.969 16.0222 134.379C16.4309 134.788 16.9854 135.019 17.5639 135.02H94.7999C95.3788 135.019 95.9337 134.789 96.3431 134.379C96.7524 133.97 96.9829 133.415 96.9839 132.836V24.264C96.9829 23.6851 96.7524 23.1302 96.3431 22.7208C95.9337 22.3115 95.3788 22.0811 94.7999 22.08H17.5639Z" fill="#EBEBEB"/>
<path id="Vector_9" d="M181.324 135.12H104.084C103.479 135.119 102.898 134.878 102.47 134.45C102.042 134.022 101.801 133.441 101.8 132.836V24.264C101.806 23.662 102.05 23.0868 102.477 22.663C102.905 22.2392 103.482 22.001 104.084 22H181.324C181.925 22.0021 182.501 22.2409 182.927 22.6647C183.353 23.0885 183.595 23.6631 183.6 24.264V132.836C183.6 133.44 183.361 134.02 182.934 134.448C182.507 134.876 181.928 135.118 181.324 135.12ZM104.084 22.08C103.505 22.0811 102.95 22.3115 102.541 22.7208C102.132 23.1302 101.901 23.6851 101.9 24.264V132.836C101.901 133.415 102.132 133.97 102.541 134.379C102.95 134.789 103.505 135.019 104.084 135.02H181.324C181.903 135.019 182.458 134.789 182.867 134.379C183.277 133.97 183.507 133.415 183.508 132.836V24.264C183.507 23.6851 183.277 23.1302 182.867 22.7208C182.458 22.3115 181.903 22.0811 181.324 22.08H104.084Z" fill="#EBEBEB"/>
<path id="Vector_10" d="M54.8641 36.3516H35.2441V60.3436H54.8641V36.3516Z" fill="#F0F0F0"/>
<path id="Vector_11" d="M59.0758 36.3516H36.5078V60.3436H59.0758V36.3516Z" fill="#F5F5F5"/>
<path id="Vector_12" d="M57.1836 58.456V38.244H38.3956V58.456H57.1836Z" fill="white"/>
<path id="Vector_13" d="M52.6318 53.5526V43.1406H42.9518V53.5526H52.6318Z" fill="#F5F5F5"/>
<path id="Vector_14" d="M87.9677 47.504H68.3477V71.496H87.9677V47.504Z" fill="#F0F0F0"/>
<path id="Vector_15" d="M92.184 47.504H69.616V71.496H92.184V47.504Z" fill="#F5F5F5"/>
<path id="Vector_16" d="M90.292 69.6085V49.3965H71.504V69.6085H90.292Z" fill="white"/>
<path id="Vector_17" d="M85.7402 60.833V58.165C85.7402 56.0265 84.0067 54.293 81.8682 54.293H79.9322C77.7938 54.293 76.0602 56.0265 76.0602 58.165V60.833C76.0602 62.9714 77.7938 64.705 79.9322 64.705H81.8682C84.0067 64.705 85.7402 62.9714 85.7402 60.833Z" fill="#F5F5F5"/>
<path id="Vector_18" d="M177.756 132.592H166.88V152.96H177.756V132.592Z" fill="#E6E6E6"/>
<path id="Vector_19" d="M175.688 152.961H177.756V145.301H173.524L175.688 152.961Z" fill="#F0F0F0"/>
<path id="Vector_20" d="M115.704 132.592H104.828V152.96H115.704V132.592Z" fill="#E6E6E6"/>
<path id="Vector_21" d="M177.752 132.592H113.9V150.868H177.752V132.592Z" fill="#F0F0F0"/>
<path id="Vector_22" d="M115.968 152.961H113.9V145.301H118.132L115.968 152.961Z" fill="#F0F0F0"/>
<path id="Vector_23" d="M116.024 135.756V147.432H134.952V135.756H116.024Z" fill="#E6E6E6"/>
<path id="Vector_24" d="M127.36 139.788H123.6C121.972 139.788 120.4 138.148 119.3 135.252H131.644C130.544 138.148 128.988 139.788 127.36 139.788Z" fill="#F0F0F0"/>
<path id="Vector_25" d="M136.364 135.752V147.428H155.292V135.752H136.364Z" fill="#E6E6E6"/>
<path id="Vector_26" d="M147.892 139.788H144.148C142.52 139.788 140.948 138.148 139.848 135.252H152.192C151.072 138.148 149.52 139.788 147.892 139.788Z" fill="#F0F0F0"/>
<path id="Vector_27" d="M156.7 135.756V147.432H175.628V135.756H156.7Z" fill="#E6E6E6"/>
<path id="Vector_28" d="M168.232 139.788H164.488C162.86 139.788 161.288 138.148 160.188 135.252H172.532C171.412 138.148 169.856 139.788 168.232 139.788Z" fill="#F0F0F0"/>
<path id="Vector_29" d="M174.58 33.672H112.332V86.656H174.58V33.672Z" fill="#E6E6E6"/>
<path id="Vector_30" d="M176.616 33.672H113.284V86.656H176.616V33.672Z" fill="#F0F0F0"/>
<path id="Vector_31" d="M174.58 86.6562H112.332V90.4323H174.58V86.6562Z" fill="#E6E6E6"/>
<path id="Vector_32" d="M180 86.6562H116.668V90.4323H180V86.6562Z" fill="#F0F0F0"/>
<path id="Vector_33" d="M173.768 83.8116V36.5156H116.124V83.8116H173.768Z" fill="#FAFAFA"/>
<path id="Vector_34" d="M152.824 83.8115L157.376 36.5195H165.26L160.704 83.8115H152.824Z" fill="white"/>
<path id="Vector_35" d="M117.444 67.7804C117.386 67.7804 117.331 67.7578 117.289 67.7174C117.248 67.677 117.225 67.6221 117.224 67.5644V38.3644C117.225 38.3068 117.248 38.2519 117.289 38.2115C117.331 38.1711 117.386 38.1484 117.444 38.1484C117.501 38.1484 117.556 38.1712 117.596 38.2117C117.637 38.2522 117.66 38.3072 117.66 38.3644V67.5644C117.66 67.6217 117.637 67.6767 117.596 67.7172C117.556 67.7577 117.501 67.7804 117.444 67.7804Z" fill="#F0F0F0"/>
<path id="Vector_36" d="M162.396 83.8115L166.952 36.5195H170.024L165.468 83.8115H162.396Z" fill="white"/>
<path id="Vector_37" d="M173.772 83.8116V36.5156H173.412V83.8116H173.772Z" fill="#E6E6E6"/>
<path id="Vector_38" opacity="0.5" d="M177.288 41.675H115.036L114.776 37.623H177.024L177.288 41.675Z" fill="#E0E0E0"/>
<path id="Vector_39" opacity="0.5" d="M177.288 48.3352H115.036L114.776 44.2832H177.024L177.288 48.3352Z" fill="#E0E0E0"/>
<path id="Vector_40" opacity="0.5" d="M177.288 54.9954H115.036L114.776 50.9434H177.024L177.288 54.9954Z" fill="#E0E0E0"/>
<path id="Vector_41" opacity="0.5" d="M177.288 61.6555H115.036L114.776 57.6035H177.024L177.288 61.6555Z" fill="#E0E0E0"/>
<path id="Vector_42" opacity="0.5" d="M177.288 68.3157H115.036L114.776 64.2637H177.024L177.288 68.3157Z" fill="#E0E0E0"/>
<path id="Vector_43" opacity="0.5" d="M177.288 74.976H115.036L114.776 70.924H177.024L177.288 74.976Z" fill="#E0E0E0"/>
<path id="Vector_44" d="M97.0364 104.461H78.0684V152.961H97.0364V104.461Z" fill="#E6E6E6"/>
<path id="Vector_45" d="M95.1279 152.959H97.0359V146.355H93.1279L95.1279 152.959Z" fill="#F0F0F0"/>
<path id="Vector_46" d="M67.3078 104.461H48.3398V152.961H67.3078V104.461Z" fill="#E6E6E6"/>
<path id="Vector_47" d="M97.0356 104.461H65.6436V148.909H97.0356V104.461Z" fill="#F0F0F0"/>
<path id="Vector_48" d="M95.556 106.428H67.124V118.616H95.556V106.428Z" fill="#E6E6E6"/>
<path id="Vector_49" d="M84.124 110.217H79.836C77.976 110.217 76.196 108.713 74.916 106.061H89.044C87.764 108.713 86 110.217 84.124 110.217Z" fill="#F0F0F0"/>
<path id="Vector_50" d="M67.5516 152.959H65.6436V146.355H69.5516L67.5516 152.959Z" fill="#F0F0F0"/>
<path id="Vector_51" d="M95.556 120.588H67.124V132.776H95.556V120.588Z" fill="#E6E6E6"/>
<path id="Vector_52" d="M84.124 124.377H79.836C77.976 124.377 76.196 122.873 74.916 120.217H89.044C87.764 122.873 86 124.377 84.124 124.377Z" fill="#F0F0F0"/>
<path id="Vector_53" d="M95.556 134.748H67.124V146.936H95.556V134.748Z" fill="#E6E6E6"/>
<path id="Vector_54" d="M84.124 138.537H79.836C77.976 138.537 76.196 137.033 74.916 134.377H89.044C87.764 137.033 86 138.537 84.124 138.537Z" fill="#F0F0F0"/>
<path id="Vector_55" d="M119.988 132.545H131.204C132.598 132.545 133.728 131.415 133.728 130.021V111.473C133.728 110.079 132.598 108.949 131.204 108.949H119.988C118.594 108.949 117.464 110.079 117.464 111.473V130.021C117.464 131.415 118.594 132.545 119.988 132.545Z" fill="#F5F5F5"/>
<path id="Vector_56" d="M159.672 119.416C159.672 119.416 159.272 132.544 143.896 132.544C128.52 132.544 128.12 119.416 128.12 119.416H159.672Z" fill="#F0F0F0"/>
<path id="Vector_57" d="M36.4005 142.431H37.2005C37.2005 139.091 37.2005 137.971 37.2845 118.547C37.4245 83.3472 37.6845 81.1992 37.6845 81.1992L35.8165 97.4512C34.6445 115.447 36.1725 126.175 36.4005 142.431Z" fill="#F0F0F0"/>
<path id="Vector_58" d="M36.2398 152.96C33.8023 152.961 31.4377 152.129 29.5386 150.601C27.6395 149.072 26.3202 146.941 25.7998 144.56C25.549 143.276 25.1849 142.018 24.7118 140.8L24.6318 140.604H47.8318L47.7518 140.8C47.2788 142.018 46.9147 143.276 46.6638 144.56C46.1441 146.938 44.8271 149.068 42.9313 150.595C41.0355 152.123 38.6746 152.957 36.2398 152.96Z" fill="#FAFAFA"/>
<path id="Vector_59" d="M49.3479 141.768H23.1279L22.3799 136.092H50.0999L49.3479 141.768Z" fill="#F0F0F0"/>
<path id="Vector_60" d="M35.7439 110.88C40.3239 102.9 28.4479 100.044 24.5959 92.9316C19.9719 98.5476 30.3759 120.228 35.7439 110.88Z" fill="#F0F0F0"/>
<path id="Vector_61" d="M36.6281 104.325C34.8601 100.305 43.3641 95.4247 45.2001 88.8887C48.5921 92.6607 41.8561 116.233 36.6281 104.325Z" fill="#F0F0F0"/>
<path id="Vector_62" d="M36.5604 116.452C38.0004 111.384 46.2324 115.04 50.4324 105.52C54.9004 118.968 32.5684 130.532 36.5604 116.452Z" fill="#F0F0F0"/>
<path id="Vector_63" d="M36.9236 122.509C36.8276 117.709 31.5956 121.965 22.1236 113.385C20.3996 122.241 37.2876 141.113 36.9236 122.509Z" fill="#F0F0F0"/>
</g>
<g id="freepik--Shadow--inject-220">
<path id="freepik--path--inject-220" d="M100 171.025C142.833 171.025 177.556 168.997 177.556 166.497C177.556 163.996 142.833 161.969 100 161.969C57.1673 161.969 22.4443 163.996 22.4443 166.497C22.4443 168.997 57.1673 171.025 100 171.025Z" fill="#F5F5F5"/>
</g>
<g id="freepik--Filter--inject-220">
<path id="Vector_64" d="M108.511 53.2528C109.617 45.9129 104.564 39.0661 97.2242 37.96C89.8844 36.8539 83.0376 41.9073 81.9315 49.2472C80.8254 56.587 85.8788 63.4338 93.2186 64.5399C100.558 65.646 107.405 60.5926 108.511 53.2528Z" fill="#0872BA"/>
<path id="Vector_65" d="M105.68 54.961C104.696 57.7336 102.651 60.0017 99.9943 61.2665C97.3381 62.5312 94.2882 62.689 91.5156 61.705C88.743 60.721 86.4749 58.676 85.2102 56.0197C83.9454 53.3635 83.7877 50.3136 84.7716 47.541C85.7556 44.7684 87.8006 42.5003 90.4569 41.2355C91.7721 40.6093 93.1979 40.2483 94.6526 40.173C96.1074 40.0978 97.5628 40.3098 98.9356 40.797C100.308 41.2842 101.572 42.037 102.654 43.0125C103.736 43.988 104.615 45.167 105.241 46.4823C105.867 47.7975 106.228 49.2232 106.304 50.678C106.379 52.1328 106.167 53.5882 105.68 54.961Z" fill="white"/>
<path id="Vector_66" opacity="0.4" d="M102.647 59.4919C101.163 60.8341 99.3432 61.7497 97.3809 62.1418C95.4186 62.5339 93.3868 62.3878 91.5008 61.7191C89.6148 61.0504 87.9448 59.8839 86.6678 58.3433C85.3908 56.8026 84.5543 54.9453 84.2471 52.9679C87.6154 52.1126 91.1618 52.2759 94.4372 53.4373C97.7127 54.5986 100.57 56.7058 102.647 59.4919Z" fill="#0872BA"/>
<path id="Vector_67" opacity="0.4" d="M101.152 49.3282C100.824 50.2485 100.232 51.0511 99.4482 51.6345C98.6647 52.2179 97.726 52.556 96.7504 52.6059C95.7749 52.6559 94.8065 52.4156 93.9675 51.9153C93.1286 51.4151 92.4568 50.6773 92.037 49.7953C91.6173 48.9133 91.4684 47.9267 91.6092 46.9601C91.7501 45.9935 92.1743 45.0904 92.8283 44.3649C93.4824 43.6393 94.3368 43.124 95.2836 42.8839C96.2304 42.6439 97.2272 42.6899 98.1479 43.0162C98.7601 43.2326 99.3236 43.5678 99.8061 44.0023C100.289 44.4369 100.681 44.9625 100.96 45.5488C101.239 46.1352 101.399 46.7708 101.432 47.4194C101.465 48.0679 101.37 48.7166 101.152 49.3282Z" fill="#0872BA"/>
<path id="Vector_68" d="M45.7256 65.5447C51.9885 65.5261 57.0505 60.434 57.0319 54.1711C57.0133 47.9082 51.9212 42.8462 45.6583 42.8648C39.3954 42.8834 34.3334 47.9755 34.352 54.2384C34.3706 60.5013 39.4627 65.5633 45.7256 65.5447Z" fill="#0872BA"/>
<path id="Vector_69" opacity="0.6" d="M45.7256 65.5447C51.9885 65.5261 57.0505 60.434 57.0319 54.1711C57.0133 47.9082 51.9212 42.8462 45.6583 42.8648C39.3954 42.8834 34.3334 47.9755 34.352 54.2384C34.3706 60.5013 39.4627 65.5633 45.7256 65.5447Z" fill="#FAFAFA"/>
<path id="Vector_70" d="M54.464 50.9497C55.327 53.2767 55.2303 55.8512 54.1951 58.1069C53.1599 60.3626 51.271 62.1147 48.944 62.9777C46.617 63.8407 44.0425 63.744 41.7868 62.7088C39.5311 61.6736 37.779 59.7847 36.916 57.4577C36.053 55.1307 36.1497 52.5561 37.1849 50.3004C38.2201 48.0448 40.109 46.2927 42.436 45.4297C44.763 44.5667 47.3375 44.6634 49.5932 45.6986C51.8489 46.7338 53.601 48.6227 54.464 50.9497Z" fill="white"/>
<path id="Vector_71" d="M54.9553 55.5202C54.7174 57.1886 54.0333 58.7618 52.9754 60.0738C51.9175 61.3857 50.525 62.3877 48.945 62.9739C47.3649 63.5602 45.6558 63.7089 43.9982 63.4045C42.3406 63.1 40.796 62.3536 39.5273 61.2442C41.2459 58.8728 43.6284 57.0636 46.3742 56.0449C49.1199 55.0262 52.1059 54.8436 54.9553 55.5202Z" fill="#263238"/>
<path id="Vector_72" d="M48.4878 49.7532C48.774 50.5261 48.8246 51.3665 48.6332 52.1681C48.4419 52.9698 48.0171 53.6967 47.4127 54.257C46.8083 54.8173 46.0514 55.1859 45.2376 55.3161C44.4238 55.4463 43.5896 55.3323 42.8406 54.9885C42.0915 54.6447 41.4612 54.0866 41.0293 53.3847C40.5974 52.6827 40.3833 51.8685 40.414 51.0449C40.4448 50.2213 40.719 49.4253 41.202 48.7576C41.6851 48.0898 42.3552 47.5802 43.1278 47.2932C43.6412 47.102 44.1873 47.0139 44.7348 47.0341C45.2823 47.0542 45.8205 47.1823 46.3184 47.4108C46.8163 47.6393 47.2643 47.9639 47.6365 48.3658C48.0088 48.7678 48.2981 49.2393 48.4878 49.7532Z" fill="#263238"/>
<path id="Vector_73" d="M76.0505 45.5738C81.1039 40.5204 81.1039 32.3272 76.0505 27.2739C70.9971 22.2205 62.8039 22.2205 57.7505 27.2739C52.6972 32.3272 52.6972 40.5204 57.7505 45.5738C62.8039 50.6272 70.9971 50.6272 76.0505 45.5738Z" fill="#263238"/>
<path id="Vector_74" d="M77.4791 34.984C77.7643 37.078 77.4219 39.2095 76.4952 41.1088C75.5684 43.0081 74.0991 44.5898 72.273 45.6536C70.447 46.7175 68.3464 47.2156 66.2371 47.0851C64.1278 46.9546 62.1047 46.2012 60.4237 44.9203C58.7428 43.6395 57.4797 41.8887 56.7942 39.8896C56.1087 37.8906 56.0318 35.7331 56.573 33.6902C57.1143 31.6474 58.2494 29.811 59.8348 28.4136C61.4201 27.0162 63.3844 26.1206 65.4791 25.84C66.8685 25.6443 68.283 25.7262 69.6406 26.081C70.9982 26.4357 72.272 27.0563 73.3881 27.9068C74.5042 28.7572 75.4404 29.8207 76.1427 31.0355C76.8449 32.2503 77.2991 33.5924 77.4791 34.984Z" fill="white"/>
<path id="Vector_75" d="M76.8833 40.2016C76.2029 42.0004 75.0493 43.5821 73.5442 44.7794C72.0392 45.9767 70.2387 46.7453 68.3329 47.0038C66.4272 47.2624 64.487 47.0014 62.7174 46.2483C60.9477 45.4952 59.4143 44.2781 58.2793 42.7256C60.7844 40.5146 63.8881 39.095 67.199 38.6458C70.5099 38.1966 73.8797 38.7379 76.8833 40.2016Z" fill="#0872BA"/>
<path id="Vector_76" d="M70.1889 35.6805C71.7796 33.5902 71.3745 30.6063 69.2842 29.0156C67.194 27.425 64.21 27.83 62.6194 29.9203C61.0287 32.0106 61.4338 34.9945 63.524 36.5852C65.6143 38.1758 68.5983 37.7708 70.1889 35.6805Z" fill="#0872BA"/>
<path id="Vector_77" d="M83.2317 162.961H62.8477V166.497H83.2317V162.961Z" fill="#0872BA"/>
<path id="Vector_78" opacity="0.2" d="M64.6715 162.961H63.8555V166.497H64.6715V162.961Z" fill="black"/>
<path id="Vector_79" opacity="0.2" d="M66.8639 162.961H66.0479V166.497H66.8639V162.961Z" fill="black"/>
<path id="Vector_80" opacity="0.2" d="M69.0592 162.961H68.2432V166.497H69.0592V162.961Z" fill="black"/>
<path id="Vector_81" opacity="0.2" d="M71.2555 162.961H70.4395V166.497H71.2555V162.961Z" fill="black"/>
<path id="Vector_82" opacity="0.2" d="M73.4478 162.961H72.6318V166.497H73.4478V162.961Z" fill="black"/>
<path id="Vector_83" opacity="0.2" d="M75.6431 162.961H74.8271V166.497H75.6431V162.961Z" fill="black"/>
<path id="Vector_84" opacity="0.2" d="M77.8355 162.961H77.0195V166.497H77.8355V162.961Z" fill="black"/>
<path id="Vector_85" opacity="0.2" d="M80.0318 162.961H79.2158V166.497H80.0318V162.961Z" fill="black"/>
<path id="Vector_86" opacity="0.2" d="M82.2271 162.961H81.4111V166.497H82.2271V162.961Z" fill="black"/>
<path id="Vector_87" d="M82.5119 159.424H62.1279V162.96H82.5119V159.424Z" fill="#0872BA"/>
<path id="Vector_88" opacity="0.2" d="M63.9517 159.424H63.1357V162.96H63.9517V159.424Z" fill="black"/>
<path id="Vector_89" opacity="0.2" d="M66.1431 159.424H65.3271V162.96H66.1431V159.424Z" fill="black"/>
<path id="Vector_90" opacity="0.2" d="M68.3394 159.424H67.5234V162.96H68.3394V159.424Z" fill="black"/>
<path id="Vector_91" opacity="0.2" d="M70.5357 159.424H69.7197V162.96H70.5357V159.424Z" fill="black"/>
<path id="Vector_92" opacity="0.2" d="M72.7271 159.424H71.9111V162.96H72.7271V159.424Z" fill="black"/>
<path id="Vector_93" opacity="0.2" d="M74.9234 159.424H74.1074V162.96H74.9234V159.424Z" fill="black"/>
<path id="Vector_94" opacity="0.2" d="M77.1197 159.424H76.3037V162.96H77.1197V159.424Z" fill="black"/>
<path id="Vector_95" opacity="0.2" d="M79.3111 159.424H78.4951V162.96H79.3111V159.424Z" fill="black"/>
<path id="Vector_96" opacity="0.2" d="M81.5074 159.424H80.6914V162.96H81.5074V159.424Z" fill="black"/>
<path id="Vector_97" d="M83.0832 155.889H62.6992V159.425H83.0832V155.889Z" fill="#0872BA"/>
<path id="Vector_98" opacity="0.2" d="M64.523 155.889H63.707V159.425H64.523V155.889Z" fill="black"/>
<path id="Vector_99" opacity="0.2" d="M66.7193 155.889H65.9033V159.425H66.7193V155.889Z" fill="black"/>
<path id="Vector_100" opacity="0.2" d="M68.9117 155.889H68.0957V159.425H68.9117V155.889Z" fill="black"/>
<path id="Vector_101" opacity="0.2" d="M71.108 155.889H70.292V159.425H71.108V155.889Z" fill="black"/>
<path id="Vector_102" opacity="0.2" d="M73.3033 155.889H72.4873V159.425H73.3033V155.889Z" fill="black"/>
<path id="Vector_103" opacity="0.2" d="M75.4957 155.889H74.6797V159.425H75.4957V155.889Z" fill="black"/>
<path id="Vector_104" opacity="0.2" d="M77.692 155.889H76.876V159.425H77.692V155.889Z" fill="black"/>
<path id="Vector_105" opacity="0.2" d="M79.8834 155.889H79.0674V159.425H79.8834V155.889Z" fill="black"/>
<path id="Vector_106" opacity="0.2" d="M82.0797 155.889H81.2637V159.425H82.0797V155.889Z" fill="black"/>
<path id="Vector_107" d="M74.2157 153.958C79.7458 152.683 83.1946 147.166 81.9189 141.636C80.6432 136.105 75.1261 132.657 69.596 133.932C64.066 135.208 60.6172 140.725 61.8929 146.255C63.1686 151.785 68.6857 155.234 74.2157 153.958Z" fill="#0872BA"/>
<path id="Vector_108" opacity="0.2" d="M79.2315 148.517C78.3268 149.964 77.0135 151.11 75.4576 151.81C73.9016 152.511 72.173 152.734 70.4901 152.452C68.8073 152.17 67.2459 151.395 66.0032 150.226C64.7606 149.056 63.8926 147.545 63.509 145.882C63.1254 144.22 63.2433 142.481 63.8479 140.885C64.4526 139.29 65.5167 137.909 66.9059 136.918C68.295 135.927 69.9467 135.371 71.6522 135.318C73.3577 135.266 75.0404 135.721 76.4875 136.625C78.4279 137.839 79.807 139.773 80.3216 142.003C80.8361 144.233 80.444 146.576 79.2315 148.517Z" fill="black"/>
<path id="Vector_109" d="M73.9552 152.555C78.5187 151.503 81.3647 146.95 80.312 142.386C79.2593 137.823 74.7064 134.977 70.1429 136.029C65.5793 137.082 62.7333 141.635 63.786 146.199C64.8388 150.762 69.3916 153.608 73.9552 152.555Z" fill="#0872BA"/>
<path id="Vector_110" d="M74.8832 145.793L73.6112 147.833C73.5629 147.911 73.4988 147.978 73.423 148.03C73.3472 148.082 73.2614 148.117 73.1712 148.133C73.0812 148.155 72.9876 148.159 72.8962 148.144C72.8048 148.128 72.7174 148.095 72.6392 148.045L70.8472 146.925L69.9512 148.361C69.8532 148.517 69.6976 148.627 69.5185 148.668C69.3394 148.71 69.1513 148.678 68.9952 148.581C68.9147 148.534 68.8449 148.47 68.7899 148.394C68.7348 148.319 68.6958 148.232 68.6752 148.141C68.6509 148.053 68.6458 147.961 68.6603 147.87C68.6748 147.78 68.7085 147.693 68.7592 147.617L69.6632 146.165L67.8872 145.053C67.8098 145.006 67.7426 144.944 67.6897 144.871C67.6368 144.797 67.5992 144.714 67.5792 144.625C67.5564 144.536 67.5525 144.443 67.5676 144.352C67.5828 144.261 67.6167 144.174 67.6672 144.097C67.714 144.019 67.7765 143.951 67.8509 143.898C67.9252 143.845 68.0098 143.808 68.0992 143.789C68.1879 143.768 68.2801 143.764 68.3702 143.78C68.4603 143.795 68.5463 143.828 68.6232 143.877L72.7832 146.477L73.3112 145.629L69.1672 143.037C69.0886 142.991 69.0203 142.929 68.9667 142.856C68.913 142.782 68.875 142.698 68.8552 142.609C68.8319 142.52 68.8277 142.427 68.8429 142.336C68.858 142.245 68.8922 142.158 68.9432 142.081L70.2152 140.053C70.2617 139.974 70.3242 139.906 70.3985 139.852C70.4729 139.798 70.5575 139.761 70.6472 139.741C70.736 139.721 70.828 139.718 70.918 139.733C71.0079 139.748 71.094 139.781 71.1712 139.829L72.9352 140.933L73.8312 139.497C73.8807 139.418 73.9457 139.349 74.0223 139.296C74.0989 139.242 74.1855 139.204 74.277 139.185C74.3685 139.166 74.4629 139.165 74.5547 139.183C74.6465 139.201 74.7337 139.237 74.8112 139.289C74.8875 139.337 74.9535 139.399 75.0051 139.472C75.0566 139.546 75.0927 139.629 75.1112 139.717C75.1341 139.806 75.1381 139.898 75.123 139.989C75.1078 140.079 75.0738 140.165 75.0232 140.241L74.1272 141.677L75.9312 142.809C76.0109 142.857 76.08 142.921 76.1343 142.997C76.1886 143.072 76.227 143.158 76.2472 143.249C76.2713 143.337 76.2766 143.429 76.2628 143.52C76.2491 143.61 76.2165 143.696 76.1672 143.773C76.1191 143.853 76.0548 143.923 75.9783 143.976C75.9018 144.03 75.8149 144.067 75.7232 144.085C75.6347 144.107 75.5427 144.111 75.4527 144.096C75.3626 144.082 75.2764 144.05 75.1992 144.001L71.0392 141.401L70.5152 142.241L74.6632 144.833C74.742 144.882 74.8102 144.946 74.8638 145.022C74.9174 145.097 74.9553 145.183 74.9752 145.273C74.9975 145.361 75.0008 145.453 74.9849 145.543C74.9691 145.633 74.9344 145.718 74.8832 145.793Z" fill="#FAFAFA"/>
<path id="Vector_111" opacity="0.4" d="M77.3596 135.228C75.8763 134.303 74.1815 133.771 72.4355 133.683C70.6895 133.595 68.9498 133.953 67.3808 134.724C65.8118 135.495 64.4653 136.654 63.4684 138.09C62.4715 139.526 61.8573 141.193 61.6836 142.932H82.1396C81.9866 141.368 81.4759 139.859 80.6471 138.523C79.8183 137.188 78.6935 136.06 77.3596 135.228Z" fill="black"/>
<path id="Vector_112" opacity="0.2" d="M109.359 53.4688H34.7674C34.1464 53.4687 33.5372 53.6386 33.0058 53.96C32.4743 54.2814 32.041 54.742 31.7526 55.292C31.4642 55.842 31.3317 56.4605 31.3696 57.0803C31.4075 57.7002 31.6142 58.2979 31.9674 58.8088L40.2954 70.8368C40.6095 71.2884 41.0282 71.6575 41.5158 71.9124C42.0033 72.1673 42.5453 72.3005 43.0954 72.3008H101.031C101.582 72.3012 102.124 72.1683 102.612 71.9133C103.099 71.6583 103.518 71.2889 103.831 70.8368L112.159 58.8008C112.51 58.29 112.715 57.6931 112.752 57.0744C112.789 56.4558 112.656 55.8388 112.368 55.2901C112.08 54.7414 111.647 54.2818 111.117 53.9609C110.587 53.6399 109.979 53.4697 109.359 53.4688Z" fill="#0872BA"/>
<path id="Vector_113" d="M109.78 68.248H34.3516L58.8796 121.088H85.2476L109.78 68.248Z" fill="#0872BA"/>
<path id="Vector_114" d="M42.8169 88.8706L42.4541 89.0391L44.9517 94.4196L45.3145 94.2512L42.8169 88.8706Z" fill="#0872BA"/>
<path id="Vector_115" d="M46.0532 95.8492L45.6904 96.0176L46.8592 98.5355L47.222 98.3671L46.0532 95.8492Z" fill="#0872BA"/>
<path id="Vector_116" opacity="0.3" d="M109.78 68.248H34.3516L58.8796 121.088H85.2476L109.78 68.248Z" fill="black"/>
<path id="Vector_117" opacity="0.2" d="M56.3677 68.248H42.0957L63.7117 121.088H68.3277L56.3677 68.248Z" fill="black"/>
<path id="Vector_118" d="M112.119 58.084H32.0115C30.9578 58.084 30.1035 58.9382 30.1035 59.992V66.34C30.1035 67.3937 30.9578 68.248 32.0115 68.248H112.119C113.173 68.248 114.028 67.3937 114.028 66.34V59.992C114.028 58.9382 113.173 58.084 112.119 58.084Z" fill="#0872BA"/>
<path id="Vector_119" d="M81.3759 140.252H62.7559C62.0876 140.252 61.4442 139.999 60.9546 139.544C60.4649 139.089 60.1653 138.466 60.1159 137.8L58.8799 121.088H85.2479L83.9999 137.8C83.9515 138.464 83.6545 139.085 83.1681 139.54C82.6816 139.994 82.0416 140.249 81.3759 140.252Z" fill="#0872BA"/>
<path id="Vector_120" opacity="0.2" d="M81.3759 140.252H62.7559C62.0876 140.252 61.4442 139.999 60.9546 139.544C60.4649 139.089 60.1653 138.466 60.1159 137.8L58.8799 121.088H85.2479L83.9999 137.8C83.9515 138.464 83.6545 139.085 83.1681 139.54C82.6816 139.994 82.0416 140.249 81.3759 140.252Z" fill="black"/>
</g>
<g id="freepik--Character--inject-220">
<path id="Vector_121" d="M132.385 163.152H129.109L128.893 155.568H132.169L132.385 163.152Z" fill="#FFB573"/>
<path id="Vector_122" opacity="0.2" d="M128.893 155.568L129.005 159.48H132.281L132.169 155.568H128.893Z" fill="black"/>
<path id="Vector_123" d="M157.704 151.247L154.836 152.827L150.26 146.687L153.128 145.111L157.704 151.247Z" fill="#FFB573"/>
<path id="Vector_124" opacity="0.2" d="M153.132 145.111L150.26 146.691L152.62 149.851L155.492 148.275L153.132 145.111Z" fill="black"/>
<path id="Vector_125" d="M145.24 70.288C142.312 68.288 140.988 66.228 140.732 63.744C141.224 66.376 142.796 68.464 146.308 70.228C146.336 70.2439 146.368 70.2522 146.4 70.252C146.445 70.2522 146.489 70.2369 146.525 70.2088C146.561 70.1807 146.585 70.1413 146.596 70.0971C146.606 70.0529 146.601 70.0066 146.581 69.9657C146.562 69.9248 146.529 69.8917 146.488 69.872C141.548 67.392 140.592 64.356 141.044 59.836C141.172 59.24 141.332 58.636 141.524 57.98C143.124 52.516 134.212 51.42 131.424 52.556C124.572 55.356 126.676 63.136 128.624 66.068C130.572 69 124.056 70.968 127.696 79.356C131.336 87.744 143.444 87.536 146.896 83.176C150.348 78.816 150.144 73.668 145.24 70.288Z" fill="#263238"/>
<path id="Vector_126" d="M127.36 73.6677C127.32 74.2157 127.276 74.6917 127.208 75.1917C127.14 75.6917 127.068 76.1757 126.988 76.6637C126.828 77.6437 126.588 78.6117 126.376 79.5757C125.907 81.5223 125.254 83.42 124.428 85.2437L124.272 85.5877C124.212 85.7077 124.188 85.7797 124.064 86.0157C123.827 86.4428 123.487 86.8043 123.076 87.0677C122.696 87.3052 122.269 87.4567 121.824 87.5117C121.471 87.5559 121.113 87.5559 120.76 87.5117C119.658 87.3378 118.596 86.968 117.624 86.4197C115.875 85.4635 114.241 84.3092 112.756 82.9797L113.744 81.6477C114.544 82.0997 115.372 82.5597 116.196 82.9757C117.003 83.3961 117.834 83.77 118.684 84.0957C119.42 84.4106 120.202 84.6076 121 84.6797C121.312 84.6797 121.5 84.5917 121.444 84.5917C121.388 84.5917 121.4 84.6197 121.404 84.5917L121.608 84.0517C122.249 82.3478 122.763 80.5991 123.148 78.8197C123.348 77.9237 123.508 77.0157 123.66 76.1117C123.812 75.2077 123.932 74.2717 124.02 73.4277L127.36 73.6677Z" fill="#FFB573"/>
<path id="Vector_127" d="M125.084 69.6631C123.732 69.9991 122.8 75.5591 122.8 75.5591L126.52 78.0871C126.52 78.0871 130.088 72.4871 129.048 71.0031C127.956 69.4551 127.052 69.1591 125.084 69.6631Z" fill="#0872BA"/>
<path id="Vector_128" opacity="0.2" d="M125.084 69.6631C123.732 69.9991 122.8 75.5591 122.8 75.5591L126.52 78.0871C126.52 78.0871 130.088 72.4871 129.048 71.0031C127.956 69.4551 127.052 69.1591 125.084 69.6631Z" fill="black"/>
<path id="Vector_129" opacity="0.2" d="M125.204 70.9043L124.168 76.5003L126.256 77.9203L125.204 70.9043Z" fill="black"/>
<path id="Vector_130" d="M114.296 81.8723L112.296 78.7363L111.168 81.8683C111.168 81.8683 112.556 83.4683 113.88 83.1363L114.296 81.8723Z" fill="#FFB573"/>
<path id="Vector_131" d="M110.16 77.5605L108.828 80.0125L111.164 81.8685L112.292 78.7365L110.16 77.5605Z" fill="#FFB573"/>
<path id="Vector_132" d="M154.216 152.439L157.144 150.211C157.193 150.172 157.255 150.153 157.318 150.157C157.381 150.16 157.44 150.187 157.484 150.231L159.584 152.291C159.634 152.345 159.673 152.409 159.697 152.479C159.722 152.548 159.731 152.622 159.725 152.696C159.719 152.769 159.698 152.841 159.662 152.905C159.627 152.97 159.579 153.027 159.52 153.071C158.484 153.831 157.948 154.147 156.66 155.127C155.86 155.731 154.776 156.695 153.68 157.527C152.584 158.359 151.708 157.323 152.08 156.879C153.784 154.879 153.648 154.035 153.896 152.931C153.942 152.735 154.055 152.561 154.216 152.439Z" fill="#263238"/>
<path id="Vector_133" d="M128.996 162.772H132.676C132.74 162.77 132.803 162.792 132.851 162.833C132.9 162.875 132.932 162.932 132.94 162.996L133.34 165.908C133.348 165.981 133.341 166.055 133.318 166.125C133.295 166.196 133.258 166.26 133.208 166.315C133.159 166.37 133.098 166.413 133.031 166.443C132.963 166.473 132.89 166.488 132.816 166.488C131.532 166.468 130.916 166.392 129.296 166.392C128.304 166.392 125.444 166.496 124.068 166.496C122.692 166.496 122.62 165.136 123.192 165.012C125.76 164.46 127.568 163.7 128.436 162.972C128.594 162.841 128.792 162.77 128.996 162.772Z" fill="#263238"/>
<path id="Vector_134" d="M125.084 69.6649C125.084 69.6649 123.524 70.2129 126.648 89.4289H139.948C139.724 84.0169 139.72 80.6769 142.304 69.5689C140.442 69.1832 138.554 68.9345 136.656 68.8249C134.646 68.6808 132.629 68.6808 130.62 68.8249C128.024 69.0609 125.084 69.6649 125.084 69.6649Z" fill="#0872BA"/>
<path id="Vector_135" opacity="0.2" d="M125.084 69.6649C125.084 69.6649 123.524 70.2129 126.648 89.4289H139.948C139.724 84.0169 139.72 80.6769 142.304 69.5689C140.442 69.1832 138.554 68.9345 136.656 68.8249C134.646 68.6808 132.629 68.6808 130.62 68.8249C128.024 69.0609 125.084 69.6649 125.084 69.6649Z" fill="black"/>
<path id="Vector_136" d="M136.656 68.8249C134.646 68.6808 132.629 68.6808 130.62 68.8249C129.892 68.8889 129.14 68.9849 128.436 69.0849C128.124 70.2529 128.188 71.8849 129.376 74.0209L130.064 75.2489L131.372 74.7249C132.34 74.3249 137.24 72.2649 138.812 69.7129L139.212 69.0529C138.428 68.9529 137.552 68.8689 136.656 68.8249Z" fill="white"/>
<path id="Vector_137" d="M136.656 68.8234C135.3 67.5274 135.68 63.9634 136.06 62.0234L132.352 65.1994C132.728 66.7114 132.784 68.3154 130.62 68.8354L130.22 68.8754C129.736 69.7874 129.616 71.1954 130.772 73.2754C130.772 73.2754 136.068 71.1394 137.448 68.9074C137.2 68.8554 136.924 68.8354 136.656 68.8234Z" fill="#FFB573"/>
<path id="Vector_138" opacity="0.2" d="M134.549 63.3164L132.353 65.2004C132.448 65.5513 132.511 65.9101 132.541 66.2724C133.369 66.1524 134.505 65.2444 134.593 64.3764C134.644 64.0234 134.629 63.6639 134.549 63.3164Z" fill="black"/>
<path id="Vector_139" d="M138.508 58.92C137.536 62.024 137.192 63.356 135.204 64.58C132.212 66.424 128.612 64.552 128.636 61.224C128.656 58.228 130.236 53.656 133.632 53.164C134.379 53.0521 135.143 53.1331 135.85 53.399C136.557 53.665 137.185 54.1073 137.673 54.6838C138.162 55.2604 138.495 55.9521 138.641 56.6935C138.787 57.4348 138.741 58.2012 138.508 58.92Z" fill="#FFB573"/>
<path id="Vector_140" d="M139.128 54.4C138.064 53.4203 136.685 52.8529 135.24 52.8C135.039 52.6218 134.79 52.5076 134.524 52.472C133.016 52.164 131.324 52.572 130.552 53.528C129.86 54.4 132.216 54.912 133.908 54.22C134.152 56.892 136.408 62.388 138.56 61.892C141.372 61.252 141.396 56.5 139.128 54.4Z" fill="#263238"/>
<path id="Vector_141" d="M126.648 89.428C126.648 89.428 124.064 114.656 124.28 124.628C124.504 135.028 128.308 158.704 128.308 158.704H132.736C132.736 158.704 132.036 135.62 132.428 125.42C132.856 114.296 136.388 89.42 136.388 89.42L126.648 89.428Z" fill="#263238"/>
<path id="Vector_142" d="M133.12 158.88H127.924L127.544 157.224L133.364 157.02L133.12 158.88Z" fill="#0872BA"/>
<path id="Vector_143" opacity="0.2" d="M132.4 95.7036C129.132 102.276 131.744 114.264 132.9 118.724C133.492 112.028 134.5 103.836 135.268 97.8236C134.76 94.4236 133.892 92.6756 132.4 95.7036Z" fill="black"/>
<path id="Vector_144" d="M130.16 89.4277C130.16 89.4277 133.172 115.656 135.448 124.076C138.148 134.076 151.564 149.572 151.564 149.572L155.476 147.42C155.476 147.42 146.172 130.02 144.104 124.752C139.704 113.512 143.472 96.7517 139.948 89.4277H130.16Z" fill="#263238"/>
<path id="Vector_145" d="M156.04 147.376L151.184 150.044L149.828 148.804L155.396 145.408L156.04 147.376Z" fill="#0872BA"/>
<path id="Vector_146" d="M133.277 58.5203C133.217 58.7763 133.029 58.9483 132.877 58.9203C132.725 58.8923 132.625 58.6363 132.689 58.3803C132.753 58.1243 132.937 57.9483 133.089 57.9803C133.241 58.0123 133.341 58.2603 133.277 58.5203Z" fill="#263238"/>
<path id="Vector_147" d="M130.4 57.8034C130.336 58.0594 130.148 58.2354 129.98 58.2034C129.812 58.1714 129.728 57.9234 129.792 57.6674C129.856 57.4114 130.04 57.2354 130.192 57.2674C130.344 57.2994 130.44 57.5474 130.4 57.8034Z" fill="#263238"/>
<path id="Vector_148" d="M130.26 57.2968L129.688 56.9688C129.688 56.9688 129.884 57.5288 130.26 57.2968Z" fill="#263238"/>
<path id="Vector_149" d="M131.16 58.4883C130.787 59.0164 130.343 59.4903 129.84 59.8963C129.947 60.0223 130.081 60.1234 130.232 60.1925C130.382 60.2616 130.546 60.297 130.712 60.2963L131.16 58.4883Z" fill="#ED893E"/>
<path id="Vector_150" d="M131.864 61.6443C131.73 61.6328 131.596 61.6114 131.464 61.5803C131.454 61.578 131.445 61.5736 131.436 61.5674C131.428 61.5613 131.421 61.5535 131.416 61.5445C131.41 61.5354 131.407 61.5255 131.406 61.5151C131.405 61.5048 131.405 61.4943 131.408 61.4843C131.411 61.4746 131.415 61.4654 131.421 61.4573C131.427 61.4492 131.434 61.4424 131.443 61.4372C131.451 61.432 131.461 61.4285 131.471 61.427C131.481 61.4255 131.491 61.4259 131.5 61.4283C131.819 61.512 132.153 61.5195 132.474 61.45C132.796 61.3805 133.097 61.236 133.352 61.0283C133.359 61.0206 133.368 61.0145 133.377 61.0103C133.386 61.0061 133.396 61.0039 133.406 61.0039C133.417 61.0039 133.427 61.0061 133.436 61.0103C133.445 61.0145 133.454 61.0206 133.46 61.0283C133.468 61.0354 133.473 61.0438 133.477 61.053C133.481 61.0623 133.483 61.0722 133.483 61.0823C133.483 61.0923 133.481 61.1023 133.477 61.1115C133.473 61.1208 133.468 61.1292 133.46 61.1363C133.241 61.3222 132.987 61.4628 132.713 61.55C132.439 61.6372 132.151 61.6692 131.864 61.6443Z" fill="#263238"/>
<path id="Vector_151" d="M138.649 62.02C138.293 62.5388 137.747 62.8955 137.129 63.012C136.309 63.156 135.977 62.404 136.273 61.672C136.537 61.012 137.281 60.144 138.073 60.328C138.244 60.3721 138.402 60.4583 138.533 60.5788C138.663 60.6993 138.761 60.8503 138.818 61.0182C138.875 61.1862 138.89 61.3657 138.86 61.5405C138.83 61.7154 138.758 61.8802 138.649 62.02Z" fill="#FFB573"/>
<path id="Vector_152" d="M134.589 58.2152C134.555 58.2126 134.524 58.1996 134.499 58.1781C134.474 58.1565 134.456 58.1274 134.449 58.0952C134.289 57.3952 133.437 57.0392 133.429 57.0352C133.409 57.0277 133.392 57.0164 133.377 57.0021C133.362 56.9877 133.35 56.9706 133.342 56.9516C133.334 56.9326 133.329 56.9122 133.329 56.8915C133.329 56.8708 133.333 56.8503 133.341 56.8312C133.357 56.7937 133.388 56.764 133.426 56.7484C133.464 56.7327 133.506 56.7323 133.545 56.7472C133.585 56.7472 134.557 57.1712 134.745 58.0232C134.749 58.0431 134.75 58.0638 134.747 58.0841C134.744 58.1043 134.736 58.1238 134.726 58.1412C134.715 58.1587 134.701 58.1739 134.684 58.1859C134.667 58.1979 134.649 58.2065 134.629 58.2112L134.589 58.2152Z" fill="#263238"/>
<path id="Vector_153" d="M129.836 56.252C129.81 56.2481 129.785 56.2381 129.763 56.2228C129.742 56.2075 129.724 56.1874 129.712 56.164C129.694 56.1268 129.691 56.0841 129.705 56.0451C129.718 56.0061 129.747 55.9741 129.784 55.956C130.003 55.8424 130.245 55.7831 130.492 55.7831C130.738 55.7831 130.981 55.8424 131.2 55.956C131.234 55.9775 131.259 56.0117 131.269 56.0514C131.279 56.091 131.273 56.1329 131.252 56.168C131.242 56.1856 131.228 56.2009 131.212 56.2131C131.195 56.2252 131.177 56.234 131.157 56.2389C131.137 56.2437 131.116 56.2445 131.096 56.2413C131.076 56.2381 131.057 56.2308 131.04 56.22C130.866 56.1315 130.674 56.0854 130.48 56.0854C130.285 56.0854 130.093 56.1315 129.92 56.22C129.894 56.2366 129.866 56.2476 129.836 56.252Z" fill="#263238"/>
<path id="Vector_154" d="M143.836 73.3809C144.236 75.3809 144.532 77.3209 144.76 79.3129C144.88 80.3049 144.968 81.3129 145.036 82.3129C145.072 82.8129 145.092 83.3209 145.112 83.8289L145.132 84.5929V84.9009C145.132 84.9969 145.132 85.0929 145.132 85.1889C145.082 85.6377 144.888 86.0583 144.58 86.3889C144.343 86.6358 144.053 86.8259 143.732 86.9449C143.524 87.027 143.306 87.0847 143.084 87.1169C142.751 87.1669 142.413 87.183 142.076 87.1649C141.518 87.1353 140.962 87.0671 140.412 86.9609C139.403 86.758 138.405 86.4989 137.424 86.1849C136.464 85.8769 135.52 85.5449 134.584 85.1969C133.648 84.8489 132.732 84.4609 131.816 84.0369L132.372 82.4769C133.308 82.7049 134.26 82.9449 135.208 83.1569C136.156 83.3689 137.1 83.5929 138.04 83.7729C138.98 83.9529 139.92 84.1209 140.84 84.2129C141.262 84.2632 141.688 84.2833 142.112 84.2729C142.267 84.2721 142.422 84.2533 142.572 84.2169C142.628 84.2169 142.644 84.1889 142.632 84.1929C142.543 84.2232 142.462 84.2771 142.4 84.3489C142.262 84.4968 142.174 84.6843 142.148 84.8849C142.142 84.9193 142.142 84.9545 142.148 84.9889C142.148 84.9889 142.148 84.9409 142.148 84.9209V84.7449L142.084 84.0369L141.928 82.6129C141.812 81.6609 141.68 80.7049 141.528 79.7489C141.376 78.7929 141.232 77.8369 141.072 76.8809C140.912 75.9249 140.748 74.9649 140.588 74.0289L143.836 73.3809Z" fill="#FFB573"/>
<path id="Vector_155" d="M142.304 69.568C143.64 69.968 145.24 74.56 145.24 74.56L140.068 78.256C140.068 78.256 138.184 74.428 138.744 72.704C139.328 70.912 140.8 69.104 142.304 69.568Z" fill="#0872BA"/>
<path id="Vector_156" opacity="0.2" d="M142.304 69.568C143.64 69.968 145.24 74.56 145.24 74.56L140.068 78.256C140.068 78.256 138.184 74.428 138.744 72.704C139.328 70.912 140.8 69.104 142.304 69.568Z" fill="black"/>
<path id="Vector_157" d="M153.112 153.821H153.072C152.997 153.812 152.925 153.784 152.863 153.74C152.802 153.696 152.752 153.637 152.72 153.569C152.697 153.528 152.686 153.482 152.686 153.435C152.686 153.388 152.697 153.342 152.72 153.301C152.92 152.933 154.1 152.841 154.236 152.833C154.25 152.831 154.265 152.833 154.278 152.841C154.291 152.848 154.302 152.859 154.308 152.873C154.316 152.886 154.321 152.901 154.321 152.917C154.321 152.932 154.316 152.948 154.308 152.961C154.02 153.285 153.52 153.821 153.112 153.821ZM154.044 153.021C153.576 153.069 152.952 153.197 152.844 153.393C152.832 153.41 152.826 153.43 152.826 153.451C152.826 153.471 152.832 153.492 152.844 153.509C152.863 153.555 152.894 153.595 152.934 153.625C152.975 153.656 153.022 153.675 153.072 153.681C153.308 153.685 153.66 153.441 154.044 153.005V153.021Z" fill="#0872BA"/>
<path id="Vector_158" d="M154.116 152.993C153.716 152.993 152.964 152.801 152.816 152.497C152.789 152.441 152.782 152.378 152.796 152.318C152.81 152.257 152.844 152.203 152.892 152.165C152.934 152.123 152.985 152.09 153.041 152.07C153.097 152.05 153.157 152.043 153.216 152.049C153.692 152.085 154.264 152.849 154.288 152.849C154.295 152.861 154.298 152.875 154.298 152.889C154.298 152.903 154.295 152.917 154.288 152.929C154.283 152.941 154.275 152.951 154.264 152.959C154.254 152.966 154.241 152.971 154.228 152.973C154.192 152.983 154.154 152.99 154.116 152.993ZM153.18 152.193C153.113 152.194 153.048 152.221 153 152.269C152.928 152.337 152.94 152.385 152.956 152.421C153.056 152.625 153.672 152.821 154.072 152.821C153.868 152.581 153.488 152.205 153.204 152.185L153.18 152.193Z" fill="#0872BA"/>
<path id="Vector_159" d="M127.768 163.344C127.486 163.372 127.203 163.301 126.968 163.144C126.915 163.097 126.874 163.038 126.849 162.972C126.825 162.905 126.817 162.834 126.828 162.764C126.83 162.722 126.842 162.681 126.865 162.645C126.887 162.609 126.919 162.58 126.956 162.56C127.356 162.34 128.664 163.004 128.812 163.084C128.826 163.091 128.838 163.103 128.845 163.117C128.852 163.132 128.854 163.148 128.852 163.164C128.85 163.18 128.843 163.194 128.832 163.205C128.821 163.217 128.807 163.225 128.792 163.228C128.455 163.298 128.112 163.337 127.768 163.344ZM127.2 162.668C127.15 162.665 127.101 162.675 127.056 162.696C127.04 162.704 127.027 162.716 127.018 162.731C127.009 162.746 127.004 162.763 127.004 162.78C126.998 162.825 127.002 162.871 127.018 162.915C127.033 162.958 127.058 162.997 127.092 163.028C127.292 163.208 127.832 163.236 128.556 163.116C128.133 162.89 127.674 162.738 127.2 162.668Z" fill="#0872BA"/>
<path id="Vector_160" d="M128.8 163.229H128.768C128.368 163.049 127.604 162.345 127.668 161.973C127.668 161.885 127.744 161.777 127.956 161.753C128.033 161.745 128.112 161.753 128.186 161.777C128.26 161.8 128.329 161.838 128.388 161.889C128.788 162.233 128.876 163.113 128.876 163.149C128.878 163.163 128.876 163.177 128.871 163.19C128.865 163.202 128.856 163.213 128.844 163.221C128.83 163.228 128.815 163.23 128.8 163.229ZM128 161.901H127.952C127.812 161.901 127.804 161.973 127.8 161.989C127.764 162.213 128.288 162.769 128.684 163.009C128.658 162.64 128.518 162.287 128.284 162.001C128.206 161.932 128.104 161.896 128 161.901Z" fill="#0872BA"/>
<path id="Vector_161" d="M133.16 58L132.588 57.672C132.588 57.672 132.8 58.24 133.16 58Z" fill="#263238"/>
<path id="Vector_162" d="M140.148 88.6477L140.488 89.8477C140.532 89.9437 140.424 90.0357 140.272 90.0357H126.58C126.46 90.0357 126.364 89.9757 126.356 89.9037L126.236 88.7037C126.236 88.6197 126.332 88.5517 126.46 88.5517H139.932C139.974 88.5481 140.015 88.555 140.053 88.5718C140.091 88.5886 140.123 88.6147 140.148 88.6477Z" fill="#0872BA"/>
<path id="Vector_163" d="M138.341 90.1515H138.701C138.773 90.1515 138.825 90.1154 138.821 90.0714L138.653 88.5234C138.653 88.4794 138.585 88.4395 138.513 88.4395H138.153C138.081 88.4395 138.025 88.4794 138.029 88.5234L138.201 90.0714C138.205 90.1154 138.269 90.1515 138.341 90.1515Z" fill="#263238"/>
<path id="Vector_164" d="M127.6 90.1515H127.96C128.032 90.1515 128.088 90.1154 128.08 90.0714L127.912 88.5234C127.912 88.4794 127.844 88.4395 127.772 88.4395H127.412C127.34 88.4395 127.284 88.4794 127.292 88.5234L127.46 90.0714C127.46 90.1154 127.524 90.1515 127.6 90.1515Z" fill="#263238"/>
<path id="Vector_165" d="M132.968 90.1515H133.328C133.4 90.1515 133.456 90.1154 133.448 90.0714L133.28 88.5234C133.28 88.4794 133.212 88.4395 133.14 88.4395H132.8C132.728 88.4395 132.672 88.4794 132.68 88.5234L132.848 90.0714C132.832 90.1154 132.896 90.1515 132.968 90.1515Z" fill="#263238"/>
<path id="Vector_166" d="M120.344 93.9483C126.293 93.9483 131.116 89.1255 131.116 83.1763C131.116 77.2271 126.293 72.4043 120.344 72.4043C114.395 72.4043 109.572 77.2271 109.572 83.1763C109.572 89.1255 114.395 93.9483 120.344 93.9483Z" fill="#0872BA"/>
<path id="Vector_167" opacity="0.4" d="M120.344 93.9483C126.293 93.9483 131.116 89.1255 131.116 83.1763C131.116 77.2271 126.293 72.4043 120.344 72.4043C114.395 72.4043 109.572 77.2271 109.572 83.1763C109.572 89.1255 114.395 93.9483 120.344 93.9483Z" fill="black"/>
<path id="Vector_168" d="M111.536 82.0009C111.333 83.4663 111.504 84.9592 112.032 86.3409C112.8 88.3671 114.281 90.0432 116.197 91.054C118.114 92.0649 120.333 92.341 122.439 91.8303C124.544 91.3196 126.391 90.0574 127.631 88.281C128.872 86.5045 129.421 84.3361 129.174 82.1835C128.928 80.0309 127.905 78.0422 126.295 76.5914C124.686 75.1406 122.602 74.3276 120.436 74.3052C118.269 74.2827 116.169 75.0525 114.53 76.4697C112.892 77.8868 111.827 79.8539 111.536 82.0009Z" fill="#0872BA"/>
<path id="Vector_169" d="M112.032 86.3207C112.598 87.8184 113.559 89.1353 114.811 90.1324C116.064 91.1294 117.563 91.7695 119.15 91.9851C120.736 92.2006 122.352 91.9835 123.825 91.3568C125.298 90.7301 126.575 89.7171 127.52 88.4247C125.436 86.5823 122.852 85.3991 120.095 85.0246C117.339 84.6501 114.533 85.1011 112.032 86.3207Z" fill="white"/>
<path id="Vector_170" d="M124.489 81.4791C125.216 79.4164 124.133 77.155 122.07 76.4282C120.007 75.7014 117.746 76.7843 117.019 78.8471C116.292 80.9098 117.375 83.1712 119.438 83.898C121.501 84.6249 123.762 83.5419 124.489 81.4791Z" fill="white"/>
<path id="Vector_171" d="M132.744 82.5435L130.268 80.0195L129.952 83.3355C129.952 83.3355 131.692 84.5355 132.9 83.8875L132.744 82.5435Z" fill="#FFB573"/>
<path id="Vector_172" d="M127.536 79.66L127.424 82.452L129.952 83.336L130.268 80.02L127.536 79.66Z" fill="#FFB573"/>
</g>
</g>
</svg>
