<svg width="45" height="46" viewBox="0 0 45 46" fill="none" xmlns="http://www.w3.org/2000/svg">
<g id="Frame" clip-path="url(#clip0_1_1254)">
<g id="Group">
<path id="Vector" d="M36.778 15.194C36.778 7.23353 30.3015 0.757019 22.341 0.757019C14.3806 0.757019 7.90405 7.23353 7.90405 15.194C7.90405 21.7901 12.3506 27.367 18.4037 29.0851V35.0557H14.4663C14.2067 35.0558 13.9529 35.1328 13.7371 35.2771C13.5212 35.4213 13.353 35.6263 13.2536 35.8661C13.1544 36.1059 13.1285 36.3698 13.1792 36.6243C13.2299 36.8788 13.3549 37.1126 13.5384 37.2961L21.4131 45.1708C21.669 45.4272 22.005 45.5553 22.341 45.5553C22.677 45.5553 23.013 45.4272 23.2689 45.1708L31.1436 37.2961C31.3272 37.1125 31.4522 36.8787 31.5028 36.6241C31.5535 36.3695 31.5276 36.1056 31.4283 35.8658C31.329 35.626 31.1607 35.4211 30.9449 35.2769C30.729 35.1327 30.4753 35.0557 30.2157 35.0557H26.2784V29.0851C32.3314 27.367 36.778 21.7901 36.778 15.194ZM10.529 15.194C10.529 8.6809 15.828 3.38192 22.341 3.38192C28.854 3.38192 34.1531 8.68099 34.1531 15.194C34.1531 21.707 28.854 27.006 22.341 27.006C15.828 27.006 10.529 21.707 10.529 15.194ZM24.9659 37.6806H27.047L22.341 42.3867L17.635 37.6806H19.7161C20.441 37.6806 21.0286 37.0931 21.0286 36.3682V29.5707C21.4609 29.6098 21.8984 29.6309 22.341 29.6309C22.7837 29.6309 23.2211 29.6098 23.6535 29.5707V36.3682C23.6535 37.0931 24.241 37.6806 24.9659 37.6806Z" fill="#0872BA"/>
<path id="Vector_2" d="M23.6535 23.0688V21.151C25.1885 20.6131 26.2924 19.1508 26.2924 17.4344C26.2924 15.2634 24.5261 13.4971 22.3551 13.4971C21.6315 13.4971 21.0426 12.9086 21.0426 12.1846C21.0426 11.461 21.6315 10.8722 22.3551 10.8722C23.079 10.8722 23.6675 11.461 23.6675 12.1846C23.6675 12.9096 24.2554 13.4971 24.98 13.4971C25.7049 13.4971 26.2924 12.9096 26.2924 12.1846C26.2924 10.4685 25.1885 9.00637 23.6535 8.46844V7.31935C23.6535 6.59444 23.066 6.0069 22.3411 6.0069C21.6162 6.0069 21.0286 6.59444 21.0286 7.31935V8.47798C19.5084 9.02352 18.4177 10.4788 18.4177 12.1846C18.4177 14.3557 20.1841 16.122 22.3551 16.122C23.079 16.122 23.6675 16.7108 23.6675 17.4344C23.6675 18.1584 23.079 18.7469 22.3551 18.7469C21.6315 18.7469 21.0426 18.1584 21.0426 17.4344C21.0426 16.7095 20.4551 16.122 19.7302 16.122C19.0056 16.122 18.4177 16.7095 18.4177 17.4344C18.4177 19.1403 19.5084 20.5957 21.0286 21.1415V23.0688C21.0286 23.7937 21.6162 24.3812 22.3411 24.3812C23.066 24.3812 23.6535 23.7937 23.6535 23.0688Z" fill="#0872BA"/>
</g>
</g>
<defs>
<clipPath id="clip0_1_1254">
<rect width="44.7983" height="44.7983" fill="white" transform="translate(0.064209 0.756958)"/>
</clipPath>
</defs>
</svg>
