<svg width="46" height="46" viewBox="0 0 46 46" fill="none" xmlns="http://www.w3.org/2000/svg">
<g id="Frame" clip-path="url(#clip0_1_1288)">
<g id="Group">
<path id="Vector" d="M23.2413 7.41499C27.5732 7.41499 31.0902 10.932 31.0902 15.264C31.0902 19.5958 27.5732 23.1129 23.2413 23.1129C18.9094 23.1129 15.3924 19.5958 15.3924 15.264C15.3924 10.9319 18.9094 7.41499 23.2413 7.41499ZM20.4298 28.4416V32.719H17.1496C15.5969 32.719 14.3381 33.9779 14.3381 35.5306C14.3381 37.0833 15.5969 38.3421 17.1496 38.3421H20.4298V41.1536C20.4298 42.7064 21.6885 43.9653 23.2413 43.9653C24.7941 43.9653 26.0529 42.7064 26.0529 41.1537V38.3422H29.3329C30.8858 38.3422 32.1445 37.0834 32.1445 35.5307C32.1445 33.9779 30.8858 32.7191 29.3329 32.7191H26.0529V28.4416C32.1411 27.1466 36.7133 21.735 36.7133 15.264C36.7134 7.8285 30.6767 1.79184 23.2413 1.79184C15.8059 1.79184 9.76929 7.8285 9.76929 15.2639C9.76929 21.735 14.3416 27.1466 20.4298 28.4416Z" stroke="#0872BA" stroke-width="3.4166" stroke-miterlimit="10" stroke-linecap="round" stroke-linejoin="round"/>
</g>
</g>
<defs>
<clipPath id="clip0_1_1288">
<rect width="44.7983" height="44.7983" fill="white" transform="translate(0.842285 0.47937)"/>
</clipPath>
</defs>
</svg>
