<svg width="42" height="42" viewBox="0 0 42 42" fill="none" xmlns="http://www.w3.org/2000/svg">
<g id="Frame" clip-path="url(#clip0_1_1265)">
<g id="Group">
<path id="Vector" d="M34.3182 13.0819C34.1493 12.9151 33.9349 12.802 33.702 12.7567C33.469 12.7115 33.2279 12.7361 33.0089 12.8275C32.7898 12.9189 32.6027 13.073 32.4711 13.2705C32.3394 13.4679 32.2691 13.6999 32.2689 13.9372V17.5465H28.6597C27.4178 17.5465 26.1983 17.7614 25.0505 18.1687V10.2478H28.6597C28.8976 10.2479 29.1303 10.1774 29.3282 10.0452C29.5261 9.91303 29.6803 9.72515 29.7714 9.50531C29.8625 9.28548 29.8863 9.04356 29.8399 8.81017C29.7935 8.57678 29.6789 8.3624 29.5107 8.19414L22.2922 0.975671C21.8222 0.505668 21.0606 0.505668 20.5906 0.975671L13.3722 8.19414C13.2039 8.36239 13.0893 8.57675 13.0429 8.81012C12.9964 9.04349 13.0202 9.28539 13.1112 9.50525C13.2023 9.72506 13.3565 9.91292 13.5544 10.0451C13.7522 10.1773 13.9848 10.2478 14.2228 10.2478H17.832V18.1656C16.7025 17.7652 15.4878 17.5465 14.2228 17.5465H10.5333V13.9372C10.5333 13.6993 10.4627 13.4668 10.3305 13.269C10.1983 13.0712 10.0104 12.917 9.7906 12.826C9.5708 12.7349 9.32894 12.7111 9.0956 12.7575C8.86226 12.8039 8.64791 12.9185 8.47966 13.0867L1.26119 20.3051C0.791191 20.775 0.791191 21.5367 1.26119 22.0066L8.47966 29.2251C8.64791 29.3933 8.86229 29.5079 9.09567 29.5543C9.32905 29.6007 9.57096 29.5768 9.79077 29.4857C10.0106 29.3946 10.1984 29.2404 10.3306 29.0425C10.4627 28.8447 10.5333 28.6121 10.5333 28.3742V24.7649H14.2228C16.2131 24.7649 17.832 26.3841 17.832 28.3742V40.4851C17.832 41.1496 18.3709 41.6882 19.0351 41.6882H23.8474C24.5119 41.6882 25.0505 41.1496 25.0505 40.4851V28.3742C25.0505 26.384 26.6696 24.7649 28.6597 24.7649H32.2689V28.3742C32.269 28.6115 32.3393 28.8435 32.4709 29.041C32.6026 29.2385 32.7897 29.3927 33.0087 29.4842C33.2277 29.5756 33.4689 29.6003 33.7019 29.555C33.9349 29.5097 34.1493 29.3966 34.3182 29.2298L41.6168 22.0113C41.7299 21.8994 41.8196 21.7661 41.8808 21.6193C41.9421 21.4725 41.9736 21.3149 41.9736 21.1559C41.9736 20.9968 41.9421 20.8393 41.8808 20.6924C41.8196 20.5456 41.7299 20.4123 41.6168 20.3004L34.3182 13.0819ZM17.1275 7.84164L21.4412 3.5278L25.7555 7.84164H17.1273H17.1275ZM20.2381 10.2478H22.6443V19.3771C22.2219 19.6596 21.8199 19.9715 21.4412 20.3104C21.0626 19.9711 20.6606 19.6588 20.2381 19.3759V10.2478ZM22.6443 39.2821H20.2381V28.3742C20.2381 25.0573 17.5396 22.3588 14.2228 22.3588H9.33024C8.66606 22.3588 8.12716 22.8977 8.12716 23.5618V25.4699L3.81332 21.1557L8.12716 16.8419V18.7495C8.12716 19.414 8.66606 19.9526 9.33024 19.9526H14.2228C18.8734 19.9526 22.6443 23.7373 22.6443 28.3742V39.2821ZM34.6751 25.4924V23.5618C34.6751 22.8977 34.1365 22.3588 33.472 22.3588H28.6597C26.9192 22.3588 25.3491 23.102 24.2497 24.2871C23.9337 23.5153 23.5296 22.7825 23.0453 22.1034C24.5833 20.7264 26.5806 19.9526 28.6597 19.9526H33.472C34.1365 19.9526 34.6751 19.414 34.6751 18.7495V16.8193L39.0601 21.1557L34.6751 25.4924Z" fill="#0872BA"/>
</g>
</g>
<defs>
<clipPath id="clip0_1_1265">
<rect width="41.0651" height="41.0651" fill="white" transform="translate(0.908691 0.623108)"/>
</clipPath>
</defs>
</svg>
