<svg width="200" height="200" viewBox="0 0 200 200" fill="none" xmlns="http://www.w3.org/2000/svg">
<g id="Friendship-pana 1">
<g id="freepik--background-complete--inject-303">
<path id="Vector" d="M65.768 16.248V45.604H23.604L22.084 16.452L65.768 16.248Z" fill="#E0E0E0"/>
<path id="Vector_2" d="M22.084 16.4512L22.084 45.5392H64.248V16.4512L22.084 16.4512Z" fill="white"/>
<path id="Vector_3" d="M64.4478 45.74H21.8838V16.252H64.4478V45.74ZM22.2838 45.34H64.0478V16.652H22.2838V45.34Z" fill="#E0E0E0"/>
<path id="Vector_4" d="M59.6803 20.0664H26.6523V41.9264H59.6803V20.0664Z" fill="white"/>
<path id="Vector_5" d="M59.6807 20.0672H59.0487H57.2367L50.4367 20.0952L26.6607 20.1432L26.7567 20.0472C26.7567 26.7232 26.7567 34.1272 26.7567 41.9032L26.6527 41.7992H59.6807L59.6007 41.8832C59.6007 35.2312 59.6327 29.7752 59.6407 25.9752C59.6407 24.0792 59.6607 22.5952 59.6647 21.5752C59.6647 21.0712 59.6647 20.6872 59.6647 20.4192C59.6647 20.1512 59.6647 20.0192 59.6647 20.0192C59.6647 20.0192 59.6647 20.1432 59.6647 20.4192C59.6647 20.6952 59.6647 21.0632 59.6647 21.5592C59.6647 22.5712 59.6647 24.0472 59.6847 25.9592C59.6847 29.7672 59.7127 35.2392 59.7287 41.9152V41.9992H59.6447H26.6167H26.5127V41.8952C26.5127 34.1192 26.5127 26.7152 26.5127 20.0392V19.9432H26.6087L50.4487 19.9912L57.2487 20.0152H59.0447H59.5007L59.6807 20.0672Z" fill="#E0E0E0"/>
<path id="Vector_6" d="M22.084 16.3712C22.3422 16.4949 22.583 16.6523 22.8 16.8392C23.232 17.1512 23.82 17.5912 24.456 18.0992C25.092 18.6072 25.656 19.0872 26.056 19.4472C26.2839 19.6262 26.487 19.8347 26.66 20.0672C26.62 20.1112 25.608 19.2672 24.34 18.2632C23.549 17.6805 22.7955 17.0486 22.084 16.3712Z" fill="#E0E0E0"/>
<path id="Vector_7" d="M64.2487 16.4512C63.5553 17.1334 62.8134 17.7644 62.0287 18.3392C61.2882 18.9704 60.5035 19.5479 59.6807 20.0672C60.3744 19.3841 61.1163 18.7518 61.9007 18.1752C62.6418 17.5459 63.4264 16.9698 64.2487 16.4512Z" fill="#E0E0E0"/>
<path id="Vector_8" d="M64.2167 45.5424L59.5127 41.7344L64.2167 45.5424Z" fill="white"/>
<path id="Vector_9" d="M59.5127 41.7344C60.3535 42.2867 61.1554 42.8961 61.9127 43.5584C62.7199 44.1723 63.4844 44.8405 64.2007 45.5584C63.3588 45.0076 62.5568 44.3981 61.8007 43.7344C60.9935 43.1205 60.229 42.4522 59.5127 41.7344Z" fill="#E0E0E0"/>
<path id="Vector_10" d="M22.084 45.5388C22.771 44.8651 23.5048 44.2408 24.28 43.6708C25.0112 43.0458 25.788 42.4762 26.604 41.9668C25.9145 42.6408 25.1779 43.2651 24.4 43.8348C23.6713 44.4595 22.8972 45.0291 22.084 45.5388Z" fill="#E0E0E0"/>
<path id="Vector_11" d="M33.3562 26.8792V34.1992H54.1402V26.8792H33.3562Z" fill="#E0E0E0"/>
<path id="Vector_12" d="M108.788 43.1641H85.8799V76.3721H108.788V43.1641Z" fill="#E0E0E0"/>
<path id="Vector_13" d="M107.64 43.1641H84.7324V76.3721H107.64V43.1641Z" fill="#F5F5F5"/>
<path id="Vector_14" d="M104.792 46.7598H87.5762V72.7718H104.792V46.7598Z" fill="white"/>
<path id="Vector_15" d="M104.8 72.7706V72.6426C104.8 72.5586 104.8 72.4346 104.8 72.2746C104.8 71.9466 104.8 71.4746 104.8 70.8466C104.8 69.6026 104.8 67.7866 104.8 65.4906C104.8 60.9026 104.8 54.4066 104.772 46.7586L104.828 46.8146H87.6281L87.6921 46.7546C87.6921 56.5666 87.6921 65.6146 87.6921 72.7546L87.6401 72.7066L100.172 72.7306H103.636H104.544H104.8H104.5H103.6H100.148L87.5841 72.7586H87.5361V72.7066C87.5361 65.5546 87.5361 56.5066 87.5361 46.7066V46.6426H87.6001H104.8H104.86V46.6986C104.86 54.3626 104.836 60.8706 104.832 65.4666C104.832 67.7586 104.832 69.5706 104.832 70.8146C104.832 71.4306 104.832 71.9026 104.832 72.2266C104.832 72.3866 104.832 72.5066 104.832 72.5906C104.832 72.6746 104.8 72.7706 104.8 72.7706Z" fill="#E0E0E0"/>
<path id="Vector_16" d="M107.704 43.1641C107.588 43.3727 107.454 43.5708 107.304 43.7561C107.04 44.1121 106.66 44.5961 106.228 45.1201C105.796 45.6441 105.396 46.1081 105.096 46.4361C104.942 46.6217 104.774 46.7943 104.592 46.9521C104.722 46.7493 104.869 46.5579 105.032 46.3801L106.132 45.0401L107.236 43.7001C107.377 43.5092 107.534 43.3299 107.704 43.1641Z" fill="#E0E0E0"/>
<path id="Vector_17" d="M104.88 72.6875C105.737 74.0483 106.745 75.3082 107.884 76.4435L104.88 72.6875Z" fill="white"/>
<path id="Vector_18" d="M107.884 76.4435C107.692 76.3045 107.517 76.1449 107.36 75.9675C106.96 75.5625 106.582 75.1366 106.228 74.6915C105.872 74.2464 105.54 73.7831 105.232 73.3035C105.095 73.1103 104.977 72.9039 104.88 72.6875C105.036 72.8657 105.177 73.0556 105.304 73.2555C105.556 73.6075 105.912 74.0955 106.324 74.6115C106.736 75.1275 107.124 75.5835 107.424 75.9075C107.59 76.0745 107.744 76.2537 107.884 76.4435Z" fill="#E0E0E0"/>
<path id="Vector_19" d="M84.7285 76.3427L87.7285 72.6387L84.7285 76.3427Z" fill="white"/>
<path id="Vector_20" d="M87.7285 72.6387C87.2785 73.2947 86.7938 73.9262 86.2765 74.5307C85.7917 75.1606 85.275 75.7654 84.7285 76.3427C85.1786 75.6867 85.6633 75.0551 86.1805 74.4507C86.6654 73.8207 87.182 73.216 87.7285 72.6387Z" fill="#E0E0E0"/>
<path id="Vector_21" d="M84.7324 43.1641C85.2499 43.7164 85.736 44.2973 86.1884 44.9041C86.6734 45.4864 87.1273 46.094 87.5484 46.7241C87.0307 46.1694 86.5434 45.5872 86.0884 44.9801C85.603 44.4004 85.1503 43.7941 84.7324 43.1641Z" fill="#E0E0E0"/>
<path id="Vector_22" d="M99.4283 52.0392H93.6643V68.4072H99.4283V52.0392Z" fill="#E0E0E0"/>
<path id="Vector_23" d="M105.892 106.475H64.7598V184.231H105.892V106.475Z" fill="#E0E0E0"/>
<path id="Vector_24" d="M93.6838 106.475H52.5518V184.231H93.6838V106.475Z" fill="#F5F5F5"/>
<path id="Vector_25" d="M90.6605 122.478H55.3525V110.15H90.6605V122.478ZM55.7845 122.042H90.2245V110.586H55.7845V122.042Z" fill="#E0E0E0"/>
<path id="Vector_26" d="M66.5439 110.371H79.9439V110.847C79.9439 111.372 79.7353 111.876 79.364 112.247C78.9927 112.619 78.4891 112.827 77.9639 112.827H68.5239C67.9988 112.827 67.4952 112.619 67.1239 112.247C66.7525 111.876 66.5439 111.372 66.5439 110.847V110.371Z" fill="#EBEBEB"/>
<path id="Vector_27" d="M90.6605 138.135H55.3525V125.807H90.6605V138.135ZM55.7845 137.699H90.2245V126.243H55.7845V137.699Z" fill="#E0E0E0"/>
<path id="Vector_28" d="M66.5439 126.027H79.9439V126.503C79.9439 127.028 79.7353 127.532 79.364 127.903C78.9927 128.274 78.4891 128.483 77.9639 128.483H68.5239C67.9988 128.483 67.4952 128.274 67.1239 127.903C66.7525 127.532 66.5439 127.028 66.5439 126.503V126.027Z" fill="#EBEBEB"/>
<path id="Vector_29" d="M90.6605 153.791H55.3525V141.467H90.6605V153.791ZM55.7845 153.359H90.2245V141.899H55.7845V153.359Z" fill="#E0E0E0"/>
<path id="Vector_30" d="M66.5439 141.684H79.9439V142.16C79.9439 142.685 79.7353 143.188 79.364 143.56C78.9927 143.931 78.4891 144.14 77.9639 144.14H68.5239C67.9988 144.14 67.4952 143.931 67.1239 143.56C66.7525 143.188 66.5439 142.685 66.5439 142.16V141.684Z" fill="#EBEBEB"/>
<path id="Vector_31" d="M90.6605 169.447H55.3525V157.123H90.6605V169.447ZM55.7845 169.015H90.2245V157.555H55.7845V169.015Z" fill="#E0E0E0"/>
<path id="Vector_32" d="M66.5439 157.34H79.9439V157.816C79.9439 158.341 79.7353 158.845 79.364 159.216C78.9927 159.587 78.4891 159.796 77.9639 159.796H68.5239C67.9988 159.796 67.4952 159.587 67.1239 159.216C66.7525 158.845 66.5439 158.341 66.5439 157.816V157.34Z" fill="#EBEBEB"/>
<path id="Vector_33" d="M95.4085 103.562H50.7285V107.434H95.4085V103.562Z" fill="#EBEBEB"/>
<path id="Vector_34" d="M108.844 103.562H95.4082V107.434H108.844V103.562Z" fill="#E0E0E0"/>
<path id="Vector_35" d="M54.7118 184.227H52.5518V188.199H54.7118V184.227Z" fill="#E0E0E0"/>
<path id="Vector_36" d="M68.0682 184.227H65.9082V188.199H68.0682V184.227Z" fill="#E0E0E0"/>
<path id="Vector_37" d="M92.4647 184.227H90.3047V188.199H92.4647V184.227Z" fill="#E0E0E0"/>
<path id="Vector_38" d="M104.664 184.227H102.504V188.199H104.664V184.227Z" fill="#E0E0E0"/>
<path id="Vector_39" d="M90.6367 93.2227L94.8007 103.875L92.2127 103.863L90.1367 97.3147L90.6367 93.2227Z" fill="#E0E0E0"/>
<path id="Vector_40" d="M76.4203 83.3828L74.9883 103.791L89.7643 104.099L91.4283 83.3828H76.4203Z" fill="#EBEBEB"/>
<path id="Vector_41" d="M77.8961 85.0238L76.7041 102.012L87.6921 102.528L89.2241 84.9238L77.8961 85.0238Z" fill="#FAFAFA"/>
<path id="Vector_42" d="M80.308 87.4277L79.416 99.3677H85.476L86.544 87.4277H80.308Z" fill="#E0E0E0"/>
<path id="Vector_43" d="M183.216 13.6914H128.968V111.143H183.216V13.6914Z" fill="#EBEBEB"/>
<path id="Vector_44" d="M180.493 16.5195H131.137V108.244H180.493V16.5195Z" fill="#FAFAFA"/>
<path id="Vector_45" d="M180.489 17.5995L131.137 80.3795V16.5195H180.489V17.5995Z" fill="#F5F5F5"/>
<path id="Vector_46" d="M181.561 42.9023H131.137V43.8783H181.561V42.9023Z" fill="#EBEBEB"/>
<path id="Vector_47" d="M181.561 64.748H131.137V65.724H181.561V64.748Z" fill="#EBEBEB"/>
<path id="Vector_48" d="M181.561 86.5918H131.137V87.5678H181.561V86.5918Z" fill="#EBEBEB"/>
<path id="Vector_49" d="M154.564 43.3917V110.844H157.056V43.3917H154.564Z" fill="#EBEBEB"/>
<path id="Vector_50" d="M141.769 16.5195H140.641V43.3955H141.769V16.5195Z" fill="#EBEBEB"/>
<path id="Vector_51" d="M151.508 16.5195H150.38V43.3955H151.508V16.5195Z" fill="#EBEBEB"/>
<path id="Vector_52" d="M161.252 16.5195H160.124V43.3955H161.252V16.5195Z" fill="#EBEBEB"/>
<path id="Vector_53" d="M170.996 16.5195H169.868V43.3955H170.996V16.5195Z" fill="#EBEBEB"/>
<path id="Vector_54" d="M128.968 12.0392H126.672V111.747H128.968V12.0392Z" fill="#F5F5F5"/>
<path id="Vector_55" d="M185.512 112.023L183.216 111.147V12.0392H185.512V112.023Z" fill="#E0E0E0"/>
<path id="Vector_56" d="M185.508 11.0352H126.672V13.6952H185.508V11.0352Z" fill="#E0E0E0"/>
<path id="Vector_57" d="M187.064 112.352H125.044V114.828H187.064V112.352Z" fill="#E0E0E0"/>
<path id="Vector_58" d="M183.216 111.146L187.064 112.35H125.044L128.968 111.146H183.216Z" fill="#EBEBEB"/>
<path id="Vector_59" d="M20.5322 119.223C17.6842 119.283 15.9602 122.535 15.8162 125.383C15.6722 128.231 16.4442 131.139 15.7442 133.899C14.8562 137.411 11.7442 140.047 10.9442 143.575C9.99224 147.735 12.4522 151.883 12.7682 156.143C12.9202 158.211 12.5642 160.331 13.0482 162.351C13.5005 164.048 14.5063 165.545 15.9062 166.606C17.3061 167.667 19.02 168.23 20.7762 168.207C22.5249 168.089 24.1844 167.392 25.4926 166.226C26.8009 165.059 27.6832 163.49 28.0002 161.767C28.5122 158.543 26.9402 155.219 27.6282 152.027C28.1402 149.667 29.8482 147.603 29.8802 145.191C29.9162 142.319 27.5762 139.951 27.0282 137.131C26.4802 134.311 27.7762 131.471 27.8522 128.599C27.9842 123.447 25.6602 119.523 20.5162 119.223" fill="#EBEBEB"/>
<path id="Vector_60" d="M21.9445 132.672C21.9551 132.825 21.9551 132.979 21.9445 133.132C21.9445 133.452 21.8965 133.888 21.8605 134.436C21.7725 135.596 21.6525 137.236 21.5045 139.236C21.2005 143.292 20.7845 148.896 20.3685 155.088C19.9525 161.28 19.6005 166.9 19.3445 170.96C19.2205 172.96 19.1205 174.608 19.0485 175.76C19.0085 176.308 18.9805 176.744 18.9565 177.068C18.9507 177.221 18.9346 177.373 18.9085 177.524C18.8938 177.371 18.8938 177.217 18.9085 177.064C18.9085 176.744 18.9325 176.304 18.9485 175.756C19.0005 174.592 19.0725 172.956 19.1605 170.956C19.3565 166.888 19.6685 161.276 20.0885 155.08C20.5085 148.884 20.9525 143.284 21.2885 139.232C21.4725 137.232 21.6245 135.592 21.7285 134.432C21.7885 133.884 21.8325 133.452 21.8645 133.128C21.8803 132.974 21.9071 132.822 21.9445 132.672Z" fill="#E0E0E0"/>
<path id="Vector_61" d="M22.9603 188.127H16.9163C15.3098 188.127 13.7688 187.49 12.6312 186.356C11.4937 185.221 10.8526 183.682 10.8483 182.075L10.8483 169.963H29.0283L29.0283 182.075C29.0241 183.682 28.3829 185.221 27.2454 186.356C26.1079 187.49 24.5669 188.127 22.9603 188.127Z" fill="#E0E0E0"/>
<path id="Vector_62" d="M10.8486 174.418C10.9521 174.477 11.0487 174.547 11.1366 174.626L11.9366 175.254L14.7366 177.546H14.6366L19.8806 174.346L19.9366 174.314L19.9926 174.35L24.8726 177.55H24.7726L27.8406 175.262L28.7086 174.63C28.8073 174.553 28.9131 174.484 29.0246 174.426C28.9376 174.517 28.8426 174.601 28.7406 174.674L27.9046 175.342L24.8806 177.69L24.8286 177.73L24.7766 177.694L19.8766 174.494H20.0006L14.7366 177.67L14.6846 177.702L14.6366 177.662L11.8846 175.314L11.1246 174.65C11.027 174.58 10.9348 174.503 10.8486 174.418Z" fill="white"/>
<path id="Vector_63" d="M10.8486 172.598C10.9521 172.657 11.0487 172.726 11.1366 172.806L11.9366 173.434L14.7366 175.726H14.6366L19.8806 172.526L19.9366 172.49L19.9926 172.526L24.8726 175.726H24.7726L27.8406 173.438L28.7126 172.798C28.8108 172.719 28.9166 172.649 29.0286 172.59C28.9439 172.685 28.8486 172.769 28.7446 172.842L27.9086 173.506L24.8846 175.858L24.8326 175.894L24.7806 175.862L19.8806 172.662H20.0006L14.7366 175.838L14.6846 175.87L14.6366 175.83L11.8846 173.478L11.1246 172.814C11.0265 172.75 10.9341 172.678 10.8486 172.598Z" fill="white"/>
<path id="Vector_64" d="M10.8486 176.268C10.9521 176.326 11.0487 176.396 11.1366 176.476L11.9366 177.104L14.7366 179.396H14.6366L19.8806 176.196L19.9366 176.164L19.9926 176.2L24.8726 179.4H24.7726L27.8406 177.112L28.7086 176.484C28.8068 176.404 28.9126 176.335 29.0246 176.276C28.9389 176.368 28.8438 176.452 28.7406 176.524L27.9086 177.2L24.8846 179.548L24.8326 179.588L24.7806 179.552L19.8806 176.356H20.0006L14.7366 179.528L14.6846 179.56L14.6366 179.52L11.8646 177.2L11.1046 176.536C11.0126 176.453 10.927 176.364 10.8486 176.268Z" fill="white"/>
</g>
<g id="freepik--Floor--inject-303">
<path id="Vector_65" d="M189.148 187.62C189.148 187.68 150.408 187.724 102.632 187.724C54.8564 187.724 16.1084 187.68 16.1084 187.62C16.1084 187.56 54.8364 187.516 102.632 187.516C150.428 187.516 189.148 187.564 189.148 187.62Z" fill="#263238"/>
</g>
<g id="freepik--character-2--inject-303">
<path id="Vector_66" d="M109.672 27.053C108.872 27.6444 108.031 28.179 107.156 28.653C106.316 29.1838 105.441 29.6556 104.536 30.065C105.336 29.473 106.177 28.9384 107.052 28.465C107.892 27.9351 108.767 27.4634 109.672 27.053Z" fill="#263238"/>
<path id="Vector_67" d="M103.284 20.344C102.716 21.5675 102.083 22.7599 101.388 23.916C100.757 25.1084 100.064 26.2673 99.3122 27.388C99.2642 27.36 100.112 25.76 101.208 23.812C101.84 22.6209 102.533 21.4633 103.284 20.344Z" fill="#263238"/>
<path id="Vector_68" d="M95.0716 18.26C95.1387 19.5391 95.1387 20.8209 95.0716 22.1C95.0645 23.3804 94.9897 24.6595 94.8476 25.932C94.7757 24.653 94.7757 23.371 94.8476 22.092C94.8502 20.8115 94.9249 19.5321 95.0716 18.26Z" fill="#263238"/>
<path id="Vector_69" d="M88.5802 26.5684C87.9084 26.1079 87.2768 25.5914 86.6922 25.0244C86.0615 24.5093 85.4754 23.942 84.9402 23.3284C85.6131 23.7873 86.2448 24.3039 86.8282 24.8724C87.46 25.3861 88.0462 25.9535 88.5802 26.5684Z" fill="#263238"/>
<path id="Vector_70" d="M84.2599 30.8887C84.0049 30.8871 83.7521 30.8425 83.5119 30.7567C82.9238 30.5899 82.3552 30.3606 81.8159 30.0727C81.2772 29.7845 80.7716 29.4385 80.3079 29.0407C80.1043 28.8865 79.9273 28.7001 79.7839 28.4887C79.8279 28.4407 80.6719 29.2287 81.9159 29.8887C83.1599 30.5487 84.2759 30.8247 84.2599 30.8887Z" fill="#263238"/>
<path id="Vector_71" d="M161.4 111.559L164.352 114.531C164.352 114.531 165.624 117.803 166.1 118.699C167.084 120.543 167.248 120.459 167.444 120.299C167.968 119.899 165.844 116.987 166.644 117.347C167.444 117.707 168.836 121.203 169.364 120.759C170.056 120.175 167.764 117.159 167.6 116.907C167.436 116.655 167.808 116.375 167.952 116.627C168.16 116.987 170.436 120.719 171.12 120.155C171.52 119.839 170.876 119.211 170.876 119.211C170.876 119.211 168.476 115.875 168.82 115.611C169.164 115.347 170.624 117.259 171.076 117.939C171.528 118.619 172.02 118.671 172.152 118.227C172.244 117.927 170.916 115.827 170.456 115.151C169.996 114.475 168.704 112.699 170.056 113.063C171.408 113.427 172.592 113.195 172.856 112.911C172.914 112.84 172.947 112.752 172.952 112.661C172.957 112.569 172.933 112.479 172.883 112.402C172.834 112.324 172.761 112.265 172.676 112.232C172.591 112.198 172.497 112.192 172.408 112.215C171.935 112.246 171.46 112.213 170.996 112.115C170.62 112.05 170.258 111.921 169.924 111.735C169.524 111.515 169.22 111.315 168.952 111.139L164.508 106.623" fill="#936754"/>
<path id="Vector_72" d="M130.772 44.1155C128.62 44.9155 126.708 48.3795 126.628 50.8675C126.584 52.3195 126.824 54.0035 125.776 55.0035C124.856 55.8835 123.376 55.7635 122.216 56.2715C121.581 56.5628 121.046 57.036 120.679 57.6312C120.313 58.2264 120.131 58.9169 120.156 59.6155C120.2 60.3755 120.492 61.1315 120.352 61.8835C120.032 63.5715 117.864 64.1195 116.808 65.4835C115.84 66.7275 115.956 68.5795 116.764 69.9275C117.572 71.2755 118.956 72.1915 120.392 72.8395C122.621 73.8448 125.058 74.3068 127.5 74.1875C129.24 74.0995 131.1 73.6475 132.26 72.3595C133.76 70.7155 133.76 68.2435 133.732 66.0155C133.65 59.0698 134.15 52.1295 135.228 45.2675" fill="#263238"/>
<path id="Vector_73" d="M100.528 40.348L97.9199 37.068C97.9199 37.068 97.0159 33.676 96.6439 32.732C95.8719 30.792 95.6959 30.856 95.4839 30.984C94.9199 31.332 96.7119 34.452 95.9399 34.004C95.1679 33.556 94.1879 29.932 93.6119 30.316C92.8599 30.816 94.8119 34.052 94.9399 34.34C95.0679 34.628 94.6759 34.84 94.5599 34.576C94.3919 34.176 92.5599 30.236 91.7999 30.724C91.3999 30.992 91.9399 31.688 91.9399 31.688C91.9399 31.688 93.9399 35.264 93.5839 35.48C93.2279 35.696 91.9839 33.64 91.5839 32.916C91.1839 32.192 90.7279 32.084 90.5479 32.516C90.4239 32.804 91.5079 35.052 91.8919 35.76C92.2759 36.468 93.3639 38.388 92.0559 37.876C90.7479 37.364 89.5519 37.476 89.2559 37.72C89.1914 37.7846 89.1488 37.8679 89.1341 37.958C89.1194 38.0481 89.1334 38.1405 89.174 38.2223C89.2147 38.304 89.28 38.3709 89.3607 38.4136C89.4414 38.4562 89.5335 38.4725 89.6239 38.46C90.0974 38.4815 90.5657 38.5677 91.0159 38.716C91.3848 38.8177 91.7338 38.9814 92.0479 39.2C92.4079 39.46 92.7039 39.696 92.9479 39.9L96.8639 44.876" fill="#936754"/>
<path id="Vector_74" d="M166.16 104.8C165.332 102.716 147.76 72.7 147.76 72.7C147.232 71.12 137.58 66.108 137.58 66.108C137.58 66.108 121.256 58.856 119.5 56.56C117.744 54.264 109.144 43.736 107.388 42.684C106.225 42.0248 104.932 41.6275 103.6 41.52L99.344 37.6L93.916 42.04C94.444 42.392 96.716 46.796 96.716 46.796C96.716 46.796 97.172 49.632 98.404 51.56C99.636 53.488 118.556 71.692 118.556 71.692C118.556 71.692 117.908 87.604 118.42 90.972C119.176 95.92 122.684 97.924 122.684 97.924C122.94 98.488 140.972 97.064 140.972 97.064C140.972 97.064 144.268 96.688 144.268 93.636L144.508 90.036C146.544 94.076 152.784 106.384 153.916 107.828C155.276 109.56 159.96 111.232 159.96 111.232L162.828 113.196L167.504 109.644C167.185 107.996 166.736 106.376 166.16 104.8Z" fill="#0872BA"/>
<path id="Vector_75" d="M123.424 83.0364C123.024 83.4364 122.172 83.2444 121.548 82.6044C120.924 81.9644 120.748 81.1244 121.168 80.7204C121.588 80.3164 122.42 80.5124 123.04 81.1524C123.66 81.7924 123.832 82.6364 123.424 83.0364Z" fill="#FAFAFA"/>
<path id="Vector_76" d="M127.084 75.8408C126.548 75.6288 126.408 74.7208 126.768 73.8128C127.128 72.9048 127.852 72.3448 128.388 72.5568C128.924 72.7688 129.064 73.6728 128.704 74.5808C128.344 75.4888 127.62 76.0528 127.084 75.8408Z" fill="#FAFAFA"/>
<path id="Vector_77" d="M123.772 68.0923C123.304 68.4283 122.572 68.1883 122.104 67.5563C121.636 66.9243 121.656 66.1443 122.124 65.8043C122.592 65.4643 123.324 65.7083 123.792 66.3403C124.26 66.9723 124.24 67.7523 123.772 68.0923Z" fill="#FAFAFA"/>
<path id="Vector_78" d="M116.292 60.6353C116.398 60.8729 116.429 61.1377 116.38 61.3936C116.331 61.6495 116.204 61.884 116.017 62.0652C115.83 62.2465 115.592 62.3657 115.334 62.4067C115.077 62.4477 114.813 62.4084 114.579 62.2942C114.345 62.18 114.152 61.9964 114.025 61.7684C113.899 61.5405 113.846 61.2792 113.874 61.0201C113.902 60.7611 114.008 60.5168 114.18 60.3205C114.351 60.1243 114.579 59.9855 114.832 59.9233C115.12 59.825 115.435 59.8447 115.709 59.9781C115.982 60.1115 116.192 60.3478 116.292 60.6353Z" fill="#FAFAFA"/>
<path id="Vector_79" d="M113.512 54.2555C113.247 54.2955 112.976 54.2523 112.736 54.1319C112.497 54.0115 112.3 53.8198 112.174 53.5831C112.048 53.3465 111.999 53.0767 112.033 52.8107C112.066 52.5448 112.182 52.2959 112.363 52.0982C112.544 51.9006 112.782 51.764 113.044 51.7073C113.306 51.6506 113.579 51.6765 113.826 51.7815C114.072 51.8865 114.28 52.0654 114.421 52.2936C114.562 52.5217 114.629 52.7879 114.612 53.0555C114.619 53.359 114.509 53.6538 114.304 53.8776C114.099 54.1014 113.815 54.2369 113.512 54.2555Z" fill="#FAFAFA"/>
<path id="Vector_80" d="M106.776 54.964C106.688 55.532 105.904 55.884 105.028 55.764C104.152 55.644 103.512 55.06 103.6 54.488C103.688 53.916 104.468 53.568 105.344 53.688C106.22 53.808 106.864 54.4 106.776 54.964Z" fill="#FAFAFA"/>
<path id="Vector_81" d="M103.852 46.264C103.652 46.2349 103.466 46.1476 103.316 46.013C103.166 45.8785 103.059 45.7026 103.008 45.5075C102.958 45.3124 102.966 45.1067 103.032 44.9161C103.097 44.7256 103.218 44.5588 103.378 44.4365C103.539 44.3143 103.731 44.242 103.932 44.2289C104.134 44.2157 104.334 44.2622 104.509 44.3625C104.684 44.4628 104.825 44.6125 104.915 44.7928C105.005 44.973 105.04 45.1759 105.016 45.376C104.979 45.648 104.836 45.8943 104.617 46.0608C104.399 46.2273 104.124 46.3004 103.852 46.264Z" fill="#FAFAFA"/>
<path id="Vector_82" d="M98.3999 44.6084C98.2161 44.7202 98.003 44.7746 97.7881 44.7645C97.5731 44.7545 97.3661 44.6804 97.1935 44.5519C97.0209 44.4234 96.8907 44.2463 96.8194 44.0432C96.7482 43.8402 96.7393 43.6204 96.7937 43.4123C96.8482 43.2041 96.9636 43.017 97.1252 42.8748C97.2868 42.7327 97.4871 42.6421 97.7005 42.6146C97.9139 42.5871 98.1307 42.6239 98.323 42.7205C98.5153 42.817 98.6744 42.9688 98.7799 43.1564C98.9213 43.3995 98.9608 43.6887 98.8896 43.9608C98.8183 44.2329 98.6423 44.4657 98.3999 44.6084Z" fill="#FAFAFA"/>
<path id="Vector_83" d="M129.88 64.7636C129.769 64.9176 129.616 65.0359 129.439 65.104C129.262 65.1721 129.069 65.1869 128.884 65.1468C128.699 65.1067 128.529 65.0132 128.397 64.8781C128.264 64.7429 128.173 64.5718 128.136 64.3859C128.1 64.2 128.118 64.0074 128.189 63.8317C128.26 63.6561 128.381 63.5051 128.537 63.3973C128.693 63.2895 128.877 63.2297 129.067 63.2251C129.256 63.2206 129.443 63.2715 129.604 63.3716C129.825 63.5197 129.978 63.7495 130.03 64.0105C130.081 64.2715 130.027 64.5424 129.88 64.7636Z" fill="#FAFAFA"/>
<path id="Vector_84" d="M137.008 81.735C136.82 81.8903 136.589 81.9846 136.346 82.0053C136.102 82.026 135.859 81.9721 135.647 81.8509C135.436 81.7296 135.266 81.5468 135.161 81.3266C135.056 81.1065 135.02 80.8596 135.059 80.6187C135.098 80.3779 135.209 80.1546 135.378 79.9786C135.547 79.8027 135.765 79.6823 136.004 79.6337C136.243 79.5851 136.492 79.6105 136.716 79.7064C136.94 79.8024 137.13 79.9645 137.26 80.171C137.433 80.4122 137.503 80.712 137.456 81.005C137.409 81.298 137.248 81.5604 137.008 81.735Z" fill="#FAFAFA"/>
<path id="Vector_85" d="M141.484 86.728C141.124 87.176 140.344 87.152 139.74 86.672C139.136 86.192 138.94 85.436 139.3 84.984C139.66 84.532 140.436 84.56 141.04 85.044C141.644 85.528 141.844 86.28 141.484 86.728Z" fill="#FAFAFA"/>
<path id="Vector_86" d="M127.736 96.2595C127.507 96.3082 127.269 96.2866 127.053 96.1974C126.838 96.1083 126.654 95.9557 126.526 95.76C126.399 95.5643 126.333 95.3345 126.339 95.1009C126.345 94.8673 126.421 94.641 126.558 94.4516C126.695 94.2623 126.886 94.1189 127.106 94.0403C127.326 93.9617 127.564 93.9516 127.79 94.0113C128.016 94.0711 128.219 94.1979 128.371 94.375C128.523 94.5521 128.618 94.7712 128.644 95.0035C128.689 95.2903 128.619 95.5833 128.449 95.8185C128.278 96.0538 128.022 96.2123 127.736 96.2595Z" fill="#FAFAFA"/>
<path id="Vector_87" d="M130.879 88.7765C130.479 89.1765 129.575 88.9445 128.879 88.2445C128.183 87.5445 127.943 86.6445 128.347 86.2445C128.751 85.8445 129.651 86.0765 130.347 86.7765C131.043 87.4765 131.283 88.3725 130.879 88.7765Z" fill="#FAFAFA"/>
<path id="Vector_88" d="M122 93.2197C121.424 93.2197 120.932 92.5477 120.896 91.6717C120.86 90.7957 121.296 90.0717 121.876 90.0477C122.456 90.0237 122.944 90.7157 122.976 91.5917C123.008 92.4677 122.552 93.1997 122 93.2197Z" fill="#FAFAFA"/>
<path id="Vector_89" d="M140.4 95.888C139.936 96.232 139.104 95.888 138.532 95.124C137.96 94.36 137.876 93.464 138.34 93.124C138.804 92.784 139.636 93.124 140.204 93.888C140.772 94.652 140.852 95.544 140.4 95.888Z" fill="#FAFAFA"/>
<path id="Vector_90" d="M148.768 88.2755C148.4 88.7155 147.592 88.6475 146.96 88.1235C146.328 87.5995 146.116 86.8155 146.484 86.3715C146.852 85.9275 147.66 85.9955 148.292 86.5235C148.924 87.0515 149.136 87.8315 148.768 88.2755Z" fill="#FAFAFA"/>
<path id="Vector_91" d="M153.112 88.7992C152.552 88.6592 152.264 87.8912 152.468 87.0832C152.672 86.2752 153.288 85.7312 153.844 85.8832C154.4 86.0352 154.692 86.7912 154.488 87.5992C154.284 88.4072 153.668 88.9232 153.112 88.7992Z" fill="#FAFAFA"/>
<path id="Vector_92" d="M158.028 104.256C157.492 104.048 157.372 103.08 157.756 102.1C158.14 101.12 158.884 100.5 159.42 100.7C159.956 100.9 160.08 101.876 159.696 102.86C159.312 103.844 158.564 104.464 158.028 104.256Z" fill="#FAFAFA"/>
<path id="Vector_93" d="M164.776 109.201C164.572 109.392 164.307 109.504 164.028 109.517C163.749 109.543 163.469 109.481 163.228 109.341C162.993 109.203 162.805 108.998 162.688 108.753C162.558 108.507 162.524 108.222 162.592 107.953C162.633 107.812 162.71 107.685 162.816 107.584C162.922 107.482 163.053 107.411 163.196 107.377C163.563 107.296 163.948 107.357 164.273 107.545C164.599 107.734 164.842 108.038 164.956 108.397C164.998 108.535 165.003 108.682 164.971 108.822C164.94 108.963 164.872 109.094 164.776 109.201Z" fill="#FAFAFA"/>
<path id="Vector_94" d="M145.88 75.6832C146.428 75.5072 147.144 76.2192 147.48 77.2832C147.816 78.3472 147.636 79.3312 147.08 79.5032C146.524 79.6752 145.82 78.9632 145.48 77.9032C145.14 76.8432 145.332 75.8552 145.88 75.6832Z" fill="#FAFAFA"/>
<path id="Vector_95" d="M162.152 111.164C162.603 111.716 163.158 112.173 163.784 112.512L162.152 111.164Z" fill="#455A64"/>
<path id="Vector_96" d="M163.784 112.512C163.425 112.436 163.096 112.258 162.836 112C162.534 111.791 162.296 111.501 162.152 111.164C162.2 111.124 162.524 111.472 162.952 111.836C163.38 112.2 163.812 112.46 163.784 112.512Z" fill="#263238"/>
<path id="Vector_97" d="M165.092 111.439C165.056 111.483 164.692 111.267 164.352 110.927C164.012 110.587 163.756 110.255 163.8 110.215C163.844 110.175 164.14 110.439 164.496 110.775C164.852 111.111 165.128 111.395 165.092 111.439Z" fill="#263238"/>
<path id="Vector_98" d="M166.352 110.523C166.308 110.559 166.044 110.331 165.792 109.983C165.54 109.635 165.392 109.315 165.452 109.287C165.512 109.259 165.712 109.523 165.96 109.863C166.208 110.203 166.4 110.483 166.352 110.523Z" fill="#263238"/>
<path id="Vector_99" d="M144.168 81.5315C144.271 81.9704 144.337 82.4174 144.364 82.8675C144.452 83.6955 144.54 84.8675 144.58 86.1155C144.62 87.3635 144.608 88.5395 144.58 89.3715C144.581 89.8232 144.544 90.2742 144.468 90.7195C144.426 90.2714 144.414 89.8211 144.432 89.3715C144.432 88.5395 144.432 87.3715 144.376 86.1235C144.32 84.8755 144.272 83.7235 144.22 82.8795C144.173 82.4318 144.155 81.9815 144.168 81.5315Z" fill="#263238"/>
<path id="Vector_100" d="M132.296 97.8728C132.097 97.8245 131.912 97.73 131.756 97.5968C130.947 97.0125 130.388 96.1438 130.192 95.1648C130.136 94.9684 130.126 94.7615 130.164 94.5608C130.333 95.205 130.588 95.8237 130.92 96.4008C131.312 96.9504 131.774 97.4454 132.296 97.8728Z" fill="#263238"/>
<path id="Vector_101" d="M134.248 95.2288C134.358 95.6375 134.358 96.068 134.248 96.4768C134.21 96.898 134.062 97.302 133.82 97.6488C133.864 97.244 133.938 96.8429 134.04 96.4488C134.079 96.0375 134.149 95.6298 134.248 95.2288Z" fill="#263238"/>
<path id="Vector_102" d="M96.7557 44.5356C96.3271 44.0658 95.9491 43.5524 95.6277 43.0036C95.2498 42.4915 94.928 41.9404 94.6677 41.3596C95.1007 41.8267 95.4804 42.3406 95.7997 42.8916C96.1773 43.4032 96.4979 43.9544 96.7557 44.5356Z" fill="#263238"/>
<path id="Vector_103" d="M98.3484 42.86C97.9236 42.4668 97.5463 42.0252 97.2244 41.544C96.8478 41.1028 96.5255 40.618 96.2644 40.1C96.6899 40.4941 97.0672 40.9372 97.3884 41.42C97.766 41.859 98.0884 42.3426 98.3484 42.86Z" fill="#263238"/>
<path id="Vector_104" d="M100.103 40.5991C99.7048 40.3778 99.342 40.0972 99.0275 39.7671C98.6709 39.4919 98.3569 39.1658 98.0955 38.7991C98.4907 39.0107 98.8521 39.2804 99.1675 39.5991C99.5281 39.8832 99.8437 40.2204 100.103 40.5991Z" fill="#263238"/>
<path id="Vector_105" d="M129.2 185.136L129.116 180.484L137.832 180.272L138.028 187.072L137.488 187.12C135.088 187.312 125.264 187.92 123.644 187.484C121.824 186.988 129.2 185.136 129.2 185.136Z" fill="#0872BA"/>
<g id="Group" opacity="0.4">
<path id="Vector_106" d="M134.856 187.083C134.966 186.345 135.345 185.674 135.92 185.199C136.485 184.726 137.208 184.482 137.944 184.515L138.004 186.951L134.856 187.083Z" fill="black"/>
</g>
<path id="Vector_107" opacity="0.4" d="M125.6 186.172C125.6 186.172 123.02 186.972 123.356 187.404C123.692 187.836 133.64 187.572 138.02 187.076L138 186.884L126.4 187.284C126.4 187.284 126.104 186.18 125.6 186.172Z" fill="black"/>
<path id="Vector_108" d="M138.132 186.871C138.084 186.885 138.034 186.891 137.984 186.891L137.556 186.931L135.956 187.039C134.62 187.119 132.756 187.207 130.728 187.259C128.7 187.311 126.836 187.323 125.496 187.307L123.896 187.283H125.496C126.836 187.283 128.696 187.255 130.728 187.203C132.76 187.151 134.616 187.075 135.952 187.011L137.552 186.935H137.984L138.132 186.871Z" fill="#263238"/>
<path id="Vector_109" d="M126.4 187.409C126.279 186.872 125.969 186.397 125.528 186.069C125.802 186.16 126.032 186.351 126.172 186.605C126.342 186.837 126.423 187.122 126.4 187.409Z" fill="#263238"/>
<path id="Vector_110" d="M128.936 186.04C128.912 186.04 128.788 185.908 128.656 185.712C128.524 185.516 128.436 185.34 128.46 185.312C128.484 185.284 128.608 185.444 128.74 185.64C128.872 185.836 128.96 186.024 128.936 186.04Z" fill="#263238"/>
<path id="Vector_111" d="M129.632 185.648C129.632 185.672 129.476 185.584 129.32 185.452C129.164 185.32 129.06 185.196 129.076 185.172C129.092 185.148 129.236 185.24 129.388 185.372C129.54 185.504 129.652 185.628 129.632 185.648Z" fill="#263238"/>
<path id="Vector_112" d="M130.06 184.8C129.915 184.855 129.759 184.879 129.604 184.868C129.451 184.889 129.296 184.876 129.148 184.832C129.295 184.788 129.449 184.777 129.6 184.8C129.751 184.762 129.909 184.762 130.06 184.8Z" fill="#263238"/>
<path id="Vector_113" d="M130.196 184.233C130.048 184.336 129.872 184.392 129.692 184.393C129.515 184.424 129.334 184.404 129.168 184.337C129.338 184.303 129.511 184.287 129.684 184.289C129.852 184.255 130.024 184.236 130.196 184.233Z" fill="#263238"/>
<path id="Vector_114" d="M128.624 185.287C128.438 185.321 128.249 185.321 128.064 185.287C127.86 185.268 127.659 185.229 127.464 185.171C127.344 185.143 127.228 185.098 127.12 185.039C127.086 185.022 127.055 184.999 127.031 184.97C127.006 184.941 126.987 184.908 126.976 184.871C126.965 184.83 126.966 184.786 126.981 184.745C126.995 184.705 127.021 184.669 127.056 184.643C127.192 184.574 127.342 184.535 127.494 184.53C127.647 184.525 127.799 184.554 127.94 184.615C128.08 184.676 128.205 184.767 128.306 184.882C128.407 184.997 128.481 185.132 128.524 185.279C128.54 185.328 128.547 185.38 128.544 185.431C128.482 185.26 128.391 185.1 128.276 184.959C128.144 184.817 127.975 184.714 127.788 184.663C127.679 184.628 127.564 184.615 127.449 184.626C127.335 184.636 127.225 184.669 127.124 184.723C127.036 184.791 127.072 184.895 127.172 184.951C127.273 185.006 127.381 185.049 127.492 185.079C127.681 185.139 127.875 185.184 128.072 185.215C128.4 185.275 128.624 185.267 128.624 185.287Z" fill="#263238"/>
<path id="Vector_115" d="M128.48 185.321C128.405 185.202 128.378 185.059 128.404 184.921C128.421 184.778 128.47 184.641 128.548 184.521C128.593 184.437 128.658 184.366 128.738 184.314C128.818 184.263 128.909 184.232 129.004 184.225C129.062 184.236 129.113 184.268 129.146 184.316C129.18 184.364 129.194 184.423 129.184 184.481C129.174 184.57 129.144 184.656 129.096 184.733C129.025 184.857 128.939 184.973 128.84 185.077C128.668 185.253 128.532 185.325 128.524 185.313C128.516 185.301 128.636 185.209 128.784 185.029C128.872 184.923 128.949 184.807 129.012 184.685C129.084 184.565 129.132 184.353 129.012 184.329C128.892 184.305 128.728 184.465 128.648 184.577C128.573 184.688 128.521 184.813 128.496 184.945C128.477 185.069 128.472 185.195 128.48 185.321Z" fill="#263238"/>
<path id="Vector_116" d="M137.896 184.491C137.896 184.491 137.644 184.491 137.252 184.531C136.741 184.602 136.26 184.816 135.864 185.147C135.469 185.479 135.175 185.916 135.016 186.407C134.956 186.614 134.907 186.824 134.868 187.035C134.857 186.977 134.857 186.917 134.868 186.859C134.882 186.7 134.91 186.542 134.952 186.387C135.098 185.871 135.395 185.41 135.804 185.063C136.215 184.72 136.72 184.51 137.252 184.459C137.412 184.441 137.573 184.441 137.732 184.459C137.788 184.463 137.843 184.473 137.896 184.491Z" fill="#263238"/>
<path id="Vector_117" d="M136.9 180.889C136.977 181.482 137.017 182.079 137.02 182.677C137.055 183.274 137.055 183.872 137.02 184.469C136.944 183.876 136.904 183.279 136.9 182.681C136.866 182.084 136.866 181.486 136.9 180.889Z" fill="#263238"/>
<path id="Vector_118" d="M133.736 186.265C133.322 186.373 132.896 186.427 132.468 186.425C132.04 186.456 131.61 186.432 131.188 186.353C131.188 186.321 131.76 186.353 132.464 186.317C133.168 186.281 133.732 186.233 133.736 186.265Z" fill="#263238"/>
<path id="Vector_119" d="M135.444 186.219C135.464 186.239 135.4 186.339 135.344 186.471C135.288 186.603 135.264 186.719 135.232 186.719C135.2 186.719 135.184 186.583 135.232 186.431C135.28 186.279 135.424 186.195 135.444 186.219Z" fill="#263238"/>
<path id="Vector_120" d="M136.068 185.4C136.088 185.42 136.036 185.512 135.948 185.608C135.86 185.704 135.772 185.76 135.748 185.74C135.724 185.72 135.784 185.628 135.872 185.536C135.96 185.444 136.048 185.38 136.068 185.4Z" fill="#263238"/>
<path id="Vector_121" d="M136.98 185.013C136.98 185.041 136.86 185.045 136.732 185.093C136.604 185.141 136.516 185.213 136.492 185.193C136.468 185.173 136.536 185.049 136.696 184.993C136.856 184.937 136.988 184.985 136.98 185.013Z" fill="#263238"/>
<path id="Vector_122" d="M137.632 184.825C137.632 184.849 137.592 184.897 137.52 184.925C137.448 184.953 137.384 184.957 137.372 184.925C137.36 184.893 137.408 184.849 137.48 184.821C137.552 184.793 137.62 184.801 137.632 184.825Z" fill="#263238"/>
<path id="Vector_123" d="M149.828 184.845L149.144 180.241L157.76 178.905L158.832 185.629L158.304 185.745C155.948 186.245 146.304 188.145 144.624 187.893C142.768 187.629 149.828 184.845 149.828 184.845Z" fill="#0872BA"/>
<g id="Group_2" opacity="0.4">
<path id="Vector_124" d="M155.7 186.044C155.712 185.301 155.997 184.59 156.5 184.044C156.999 183.503 157.683 183.168 158.416 183.104L158.792 185.504L155.7 186.044Z" fill="black"/>
</g>
<path id="Vector_125" opacity="0.4" d="M146.4 186.332C146.4 186.332 143.948 187.472 144.332 187.844C144.716 188.216 154.556 186.684 158.832 185.628L158.788 185.436L147.332 187.324C147.332 187.324 146.904 186.276 146.4 186.332Z" fill="black"/>
<path id="Vector_126" d="M158.924 185.408C158.876 185.429 158.827 185.442 158.776 185.448L158.356 185.54L156.8 185.852C155.488 186.108 153.664 186.432 151.648 186.748C149.632 187.064 147.792 187.312 146.448 187.472L144.872 187.652L144.444 187.692H144.292L144.44 187.664L144.868 187.604L146.44 187.392C147.764 187.212 149.596 186.952 151.616 186.636C153.636 186.32 155.456 186.004 156.772 185.772L158.332 185.492L158.756 185.42L158.924 185.408Z" fill="#263238"/>
<path id="Vector_127" d="M147.356 187.456C147.25 187.208 147.116 186.974 146.956 186.756C146.768 186.56 146.557 186.387 146.328 186.24C146.601 186.313 146.846 186.467 147.031 186.681C147.216 186.895 147.332 187.16 147.364 187.44L147.356 187.456Z" fill="#263238"/>
<path id="Vector_128" d="M149.696 185.771C149.676 185.791 149.528 185.659 149.372 185.483C149.216 185.307 149.108 185.143 149.128 185.123C149.148 185.103 149.296 185.235 149.452 185.411C149.608 185.587 149.72 185.751 149.696 185.771Z" fill="#263238"/>
<path id="Vector_129" d="M150.336 185.292C150.336 185.316 150.172 185.248 150 185.14C149.828 185.032 149.708 184.92 149.724 184.896C149.74 184.872 149.888 184.94 150.06 185.048C150.232 185.156 150.352 185.268 150.336 185.292Z" fill="#263238"/>
<path id="Vector_130" d="M150.652 184.401C150.367 184.52 150.059 184.572 149.752 184.553C149.752 184.521 149.944 184.465 150.192 184.425C150.341 184.382 150.499 184.374 150.652 184.401Z" fill="#263238"/>
<path id="Vector_131" d="M150.712 183.817C150.579 183.939 150.411 184.017 150.232 184.041C150.06 184.094 149.876 184.094 149.704 184.041C149.867 183.985 150.036 183.946 150.208 183.925C150.372 183.872 150.541 183.836 150.712 183.817Z" fill="#263238"/>
<path id="Vector_132" d="M149.288 185.063C149.109 185.124 148.921 185.153 148.732 185.147C148.529 185.154 148.325 185.141 148.124 185.107C148.001 185.093 147.881 185.065 147.764 185.023C147.693 184.994 147.634 184.94 147.6 184.871C147.585 184.832 147.582 184.79 147.59 184.748C147.599 184.707 147.619 184.67 147.648 184.639C147.774 184.552 147.918 184.493 148.069 184.468C148.22 184.442 148.375 184.451 148.523 184.493C148.67 184.535 148.807 184.61 148.922 184.711C149.037 184.813 149.128 184.938 149.188 185.079C149.213 185.125 149.227 185.176 149.228 185.227C149.143 185.066 149.033 184.92 148.9 184.795C148.753 184.669 148.572 184.587 148.38 184.559C148.152 184.523 147.918 184.576 147.728 184.707C147.652 184.787 147.7 184.887 147.808 184.927C147.915 184.969 148.026 184.998 148.14 185.011C148.336 185.047 148.534 185.067 148.732 185.071C149.072 185.079 149.284 185.047 149.288 185.063Z" fill="#263238"/>
<path id="Vector_133" d="M149.148 185.115C149.061 185.01 149.017 184.876 149.024 184.739C149.019 184.592 149.049 184.445 149.112 184.311C149.144 184.224 149.198 184.146 149.268 184.085C149.338 184.024 149.421 183.98 149.512 183.959C149.57 183.962 149.624 183.988 149.664 184.03C149.704 184.073 149.725 184.129 149.724 184.187C149.724 184.277 149.705 184.365 149.668 184.447C149.615 184.581 149.545 184.708 149.46 184.823C149.388 184.936 149.291 185.031 149.176 185.099C149.176 185.099 149.272 184.983 149.396 184.783C149.479 184.664 149.547 184.535 149.6 184.399C149.66 184.267 149.676 184.051 149.536 184.047C149.396 184.043 149.276 184.215 149.208 184.339C149.145 184.463 149.11 184.6 149.108 184.739C149.109 184.866 149.122 184.992 149.148 185.115Z" fill="#263238"/>
<path id="Vector_134" d="M158.399 183.08C158.399 183.1 158.147 183.08 157.767 183.2C157.269 183.335 156.818 183.61 156.469 183.99C156.119 184.371 155.884 184.843 155.791 185.352C155.719 185.752 155.743 185.992 155.723 185.992C155.703 185.937 155.693 185.878 155.695 185.82C155.685 185.659 155.693 185.498 155.719 185.34C155.796 184.81 156.03 184.315 156.391 183.92C156.754 183.524 157.226 183.246 157.747 183.12C157.904 183.083 158.063 183.063 158.223 183.06C158.283 183.056 158.342 183.063 158.399 183.08Z" fill="#263238"/>
<path id="Vector_135" d="M156.927 179.637C157.078 180.215 157.196 180.801 157.279 181.393C157.395 181.98 157.477 182.573 157.523 183.169C157.374 182.589 157.258 182.002 157.175 181.409C157.057 180.824 156.974 180.232 156.927 179.637Z" fill="#263238"/>
<path id="Vector_136" d="M154.484 185.372C153.679 185.658 152.827 185.793 151.972 185.772C151.972 185.744 152.536 185.688 153.228 185.572C153.92 185.456 154.476 185.344 154.484 185.372Z" fill="#263238"/>
<path id="Vector_137" d="M156.172 185.108C156.196 185.108 156.144 185.232 156.108 185.372C156.072 185.512 156.056 185.628 156.028 185.632C156 185.636 155.96 185.504 156.004 185.344C156.048 185.184 156.148 185.088 156.172 185.108Z" fill="#263238"/>
<path id="Vector_138" d="M156.684 184.215C156.708 184.215 156.684 184.331 156.592 184.435C156.5 184.539 156.436 184.611 156.412 184.591C156.388 184.571 156.432 184.479 156.504 184.375C156.576 184.271 156.66 184.199 156.684 184.215Z" fill="#263238"/>
<path id="Vector_139" d="M157.54 183.713C157.54 183.745 157.424 183.761 157.304 183.825C157.184 183.889 157.104 183.969 157.076 183.953C157.048 183.937 157.104 183.809 157.252 183.733C157.4 183.657 157.544 183.685 157.54 183.713Z" fill="#263238"/>
<path id="Vector_140" d="M158.16 183.44C158.16 183.464 158.132 183.516 158.064 183.556C157.996 183.596 157.932 183.608 157.916 183.58C157.9 183.552 157.944 183.504 158.012 183.464C158.08 183.424 158.144 183.416 158.16 183.44Z" fill="#263238"/>
<path id="Vector_141" d="M152.96 98.2956C152.58 98.7276 151.788 98.6476 151.196 98.1236C150.604 97.5996 150.424 96.8236 150.796 96.3916C151.168 95.9596 151.968 96.0356 152.564 96.5636C153.16 97.0916 153.344 97.8636 152.96 98.2956Z" fill="#FAFAFA"/>
<path id="Vector_142" d="M140.964 97.0647C140.964 97.0647 145.516 104.265 146.164 107.013C146.812 109.761 158.964 182.521 158.964 182.521L147.816 183.201L132.672 112.025L138.764 182.681L127.796 183.601C127.796 183.601 119.076 108.801 119.852 106.829C120.628 104.857 122.676 97.9247 122.676 97.9247L140.964 97.0647Z" fill="#455A64"/>
<path id="Vector_143" d="M132.58 111.569C132.58 111.569 132.58 111.629 132.492 111.689C132.424 111.723 132.348 111.738 132.272 111.731C132.196 111.724 132.124 111.695 132.064 111.649C131.903 111.478 131.81 111.255 131.8 111.021L131.656 110.153C131.444 108.865 131.168 107.089 130.856 105.121C130.544 103.153 130.308 101.373 130.132 100.081C130.056 99.4646 129.988 98.9526 129.94 98.5526C129.904 98.3655 129.89 98.175 129.896 97.9846C129.952 98.1663 129.993 98.3522 130.02 98.5406C130.088 98.9406 130.176 99.4486 130.28 100.061C130.492 101.345 130.768 103.125 131.08 105.093C131.392 107.061 131.628 108.841 131.8 110.129C131.844 110.449 131.88 110.741 131.916 111.001C131.915 111.213 131.985 111.42 132.116 111.589C132.163 111.631 132.222 111.66 132.285 111.671C132.347 111.682 132.412 111.676 132.472 111.653C132.552 111.601 132.572 111.561 132.58 111.569Z" fill="#263238"/>
<path id="Vector_144" d="M131.44 99.4113C131.44 99.4113 131.44 99.3473 131.548 99.2873C131.682 99.2112 131.839 99.1883 131.988 99.2233C132.106 99.2466 132.213 99.305 132.297 99.3906C132.38 99.4763 132.436 99.5853 132.456 99.7033C132.481 99.8487 132.46 99.9983 132.395 100.131C132.33 100.264 132.226 100.373 132.096 100.443C131.965 100.502 131.818 100.52 131.676 100.496C131.533 100.472 131.401 100.406 131.296 100.307C131.212 100.226 131.151 100.124 131.118 100.012C131.085 99.8999 131.082 99.7811 131.108 99.6673C131.204 99.2673 131.476 99.1913 131.476 99.2153C131.364 99.3535 131.287 99.5168 131.252 99.6913C131.24 99.779 131.249 99.8685 131.28 99.9516C131.311 100.035 131.362 100.109 131.428 100.167C131.508 100.237 131.605 100.282 131.709 100.299C131.813 100.315 131.92 100.301 132.016 100.259C132.107 100.207 132.18 100.13 132.227 100.037C132.274 99.9438 132.293 99.8389 132.28 99.7353C132.268 99.6492 132.231 99.5685 132.175 99.5026C132.118 99.4367 132.044 99.3883 131.96 99.3633C131.787 99.3187 131.603 99.3357 131.44 99.4113Z" fill="#263238"/>
<path id="Vector_145" d="M141.092 51.884C141.195 51.0573 141.131 50.2182 140.904 49.4167C140.676 48.6153 140.289 47.8678 139.767 47.2188C139.244 46.5698 138.597 46.0326 137.862 45.639C137.128 45.2455 136.322 45.0037 135.492 44.928C132.18 44.612 129.236 47.076 128.74 50.368C128.304 53.252 127.94 56.164 127.94 57.22C127.98 60.42 129.844 61.648 130.6 62.02C130.872 62.1179 131.154 62.1876 131.44 62.228V62.252L130.732 65.912C130.412 68.312 131.752 70.448 134.144 70.8C136.536 71.152 138.424 69.308 138.792 66.908L141.092 51.884Z" fill="#936754"/>
<path id="Vector_146" d="M129.492 51.9485C129.472 52.078 129.502 52.2103 129.577 52.3182C129.651 52.4261 129.764 52.5014 129.892 52.5285C129.955 52.5419 130.02 52.5427 130.084 52.5309C130.147 52.519 130.208 52.4947 130.261 52.4594C130.315 52.4241 130.362 52.3784 130.398 52.325C130.434 52.2717 130.459 52.2117 130.472 52.1485C130.492 52.0195 130.462 51.8876 130.388 51.7804C130.313 51.6731 130.2 51.5987 130.072 51.5725C130.009 51.5584 129.944 51.557 129.881 51.5684C129.818 51.5798 129.757 51.6037 129.703 51.6387C129.649 51.6737 129.603 51.7191 129.567 51.7723C129.53 51.8255 129.505 51.8854 129.492 51.9485Z" fill="#263238"/>
<path id="Vector_147" d="M129.492 51.2317C129.544 51.3077 129.964 51.0797 130.504 51.1597C131.044 51.2397 131.4 51.5597 131.468 51.5117C131.536 51.4637 131.468 51.3597 131.3 51.2077C131.091 51.0102 130.825 50.8841 130.54 50.8477C130.259 50.8047 129.972 50.8523 129.72 50.9837C129.536 51.0877 129.464 51.1997 129.492 51.2317Z" fill="#263238"/>
<path id="Vector_148" d="M134.6 52.8004C134.579 52.9294 134.61 53.0612 134.684 53.1685C134.759 53.2757 134.872 53.3502 135 53.3764C135.062 53.391 135.128 53.3928 135.191 53.3817C135.255 53.3706 135.315 53.3468 135.369 53.3117C135.424 53.2766 135.47 53.2309 135.506 53.1774C135.542 53.124 135.567 53.0637 135.58 53.0004C135.601 52.8708 135.571 52.7379 135.496 52.6298C135.422 52.5216 135.308 52.4466 135.18 52.4204C135.052 52.3943 134.92 52.4197 134.811 52.4909C134.703 52.5621 134.627 52.6733 134.6 52.8004Z" fill="#263238"/>
<path id="Vector_149" d="M134.8 52.104C134.852 52.18 135.276 51.956 135.816 52.036C136.356 52.116 136.708 52.436 136.78 52.384C136.852 52.332 136.78 52.232 136.612 52.08C136.402 51.8854 136.136 51.7598 135.852 51.72C135.571 51.6777 135.284 51.7267 135.032 51.86C134.828 51.964 134.756 52.072 134.8 52.104Z" fill="#263238"/>
<path id="Vector_150" d="M132.24 55.8236C131.968 55.6908 131.68 55.594 131.384 55.5356C131.248 55.5036 131.124 55.4556 131.112 55.3596C131.122 55.2144 131.175 55.0754 131.264 54.9596L131.824 53.9676C132.624 52.5596 133.2 51.3876 133.14 51.3596C132.568 52.1505 132.06 52.985 131.62 53.8556C131.428 54.2076 131.248 54.5396 131.072 54.8556C130.963 55.0108 130.911 55.1986 130.924 55.3876C130.936 55.4388 130.96 55.4865 130.994 55.5267C131.028 55.567 131.071 55.5988 131.12 55.6196C131.193 55.653 131.271 55.6758 131.352 55.6876C131.641 55.7679 131.939 55.8136 132.24 55.8236Z" fill="#263238"/>
<path id="Vector_151" d="M131.484 62.2357C131.484 62.2357 133.54 62.7077 136.376 61.5237C136.376 61.5237 135.152 64.1557 131.292 63.2197L131.484 62.2357Z" fill="#7C5142"/>
<path id="Vector_152" d="M132.275 57.1566C132.397 57.0423 132.545 56.9609 132.707 56.9203C132.869 56.8796 133.038 56.8811 133.199 56.9246C133.316 56.9504 133.426 56.999 133.524 57.0676C133.621 57.1363 133.704 57.2237 133.767 57.3246C133.826 57.4258 133.852 57.5423 133.843 57.6587C133.834 57.7752 133.789 57.8861 133.715 57.9766C133.615 58.0606 133.491 58.1126 133.361 58.1261C133.231 58.1397 133.099 58.1141 132.983 58.0527C132.741 57.9249 132.527 57.7509 132.351 57.5407C132.297 57.4875 132.252 57.4253 132.219 57.3566C132.205 57.3237 132.201 57.2874 132.206 57.252C132.212 57.2165 132.228 57.1835 132.251 57.1566" fill="#7C5142"/>
<path id="Vector_153" d="M133.772 56.428C133.684 56.428 133.6 56.996 133.036 57.34C132.472 57.684 131.86 57.524 131.836 57.608C131.812 57.692 131.96 57.74 132.236 57.788C132.579 57.8407 132.93 57.7728 133.228 57.596C133.513 57.4243 133.721 57.1492 133.808 56.828C133.856 56.584 133.812 56.432 133.772 56.428Z" fill="#263238"/>
<path id="Vector_154" d="M134.676 51.1249C134.708 51.2809 135.256 51.2889 135.876 51.4569C136.496 51.6249 136.984 51.8569 137.076 51.7569C137.12 51.6969 137.052 51.5449 136.868 51.3569C136.618 51.142 136.323 50.9873 136.004 50.9048C135.685 50.8222 135.351 50.8141 135.028 50.8809C134.8 50.9569 134.664 51.0529 134.676 51.1249Z" fill="#263238"/>
<path id="Vector_155" d="M129.848 50.156C129.928 50.296 130.316 50.22 130.764 50.28C131.212 50.34 131.564 50.484 131.684 50.368C131.804 50.252 131.684 50.18 131.54 50.04C131.342 49.8638 131.092 49.7559 130.828 49.732C130.565 49.6968 130.297 49.7458 130.064 49.872C129.888 49.972 129.816 50.092 129.848 50.156Z" fill="#263238"/>
<path id="Vector_156" d="M146.472 68.2555C145.972 67.3635 145.056 66.7275 144.68 65.7795C144.032 64.1515 145.176 62.3435 145.48 60.6275C145.68 60.1715 145.852 59.7475 145.944 59.4755C146.3 58.3955 146.3 56.6755 145.788 55.6675C145.312 54.7235 144.108 53.7875 143.76 52.8675C143.22 51.4595 143.62 51.0955 143.208 48.1595C142.972 46.4915 140.752 44.1835 138.408 44.5595C137.672 43.76 136.683 43.2375 135.608 43.0795C134.328 42.8331 133.005 42.967 131.801 43.4646C130.596 43.9623 129.564 44.8018 128.832 45.8795C128.136 46.9315 127.72 48.3475 128.132 49.6075C128.792 50.6115 130.888 50.0075 132.152 49.2995C132.812 49.7203 133.611 49.8667 134.377 49.7076C135.144 49.5484 135.818 49.0963 136.256 48.4475C136.377 48.6029 136.53 48.7314 136.703 48.825C136.877 48.9186 137.067 48.9753 137.264 48.9915C137.308 49.3635 137.352 49.6755 137.38 49.8755C137.508 50.7955 138.888 52.1235 138.904 53.0515C138.932 54.7955 137.592 54.8835 137.22 56.5915C136.94 57.8755 137.916 58.6275 138.1 59.9275C138.09 60.2172 138.02 60.5017 137.896 60.7635C137.356 61.8195 136.904 62.9355 137.012 64.0995C137.112 65.1995 137.708 66.2115 137.764 67.2995C137.86 69.2315 136.34 70.8035 135.452 72.4995C134.638 74.0888 134.342 75.8936 134.608 77.6595C138.165 78.297 141.764 78.6779 145.376 78.7995C145.504 78.8317 145.639 78.8315 145.767 78.7988C145.896 78.7662 146.014 78.7022 146.111 78.6126C146.209 78.523 146.283 78.4106 146.326 78.2854C146.37 78.1602 146.381 78.0263 146.36 77.8955C146.536 75.9195 146.711 73.9462 146.884 71.9755C146.996 70.7195 147.092 69.3635 146.472 68.2555Z" fill="#263238"/>
<path id="Vector_157" d="M119.2 103.963C117.02 104.859 115.696 107.039 114.52 109.083L110.22 116.559C109.652 117.551 109.064 118.623 109.156 119.759C109.228 120.296 109.415 120.81 109.703 121.269C109.992 121.727 110.375 122.118 110.828 122.415C111.735 123.004 112.732 123.441 113.78 123.707C115.064 124.107 116.392 124.451 117.728 124.327C119.064 124.203 120.424 123.527 121.016 122.327C121.512 121.319 121.416 120.135 121.292 119.015C120.876 115.063 120.461 111.108 120.048 107.151C119.94 106.127 119.836 105.103 119.728 104.079" fill="#263238"/>
<path id="Vector_158" d="M111.464 114.535C111.575 114.667 111.711 114.776 111.864 114.855C112.08 114.94 112.315 114.967 112.545 114.934C112.775 114.9 112.993 114.807 113.176 114.663C113.66 114.311 113.976 113.643 114.376 112.935C114.776 112.227 115.208 111.451 115.66 110.635C116.576 109.003 117.416 107.535 118.032 106.475L118.772 105.227C118.854 105.069 118.954 104.921 119.068 104.783C119.008 104.951 118.933 105.113 118.844 105.267L118.164 106.547C117.58 107.623 116.76 109.107 115.844 110.735C115.384 111.535 114.948 112.335 114.544 113.031C114.14 113.727 113.8 114.411 113.264 114.779C113.06 114.932 112.819 115.026 112.566 115.052C112.313 115.078 112.058 115.035 111.828 114.927C111.706 114.863 111.602 114.772 111.524 114.659C111.496 114.622 111.475 114.58 111.464 114.535Z" fill="#455A64"/>
<path id="Vector_159" d="M114.084 124.243C114.028 124.243 115.168 119.695 116.632 114.123C118.096 108.551 119.324 104.035 119.38 104.051C119.436 104.067 118.296 108.599 116.832 114.175C115.368 119.751 114.14 124.259 114.084 124.243Z" fill="#455A64"/>
<path id="Vector_160" d="M111.392 114.669C111.226 114.861 110.994 114.985 110.741 115.017C110.489 115.049 110.234 114.986 110.025 114.84C109.817 114.695 109.67 114.477 109.612 114.229C109.555 113.981 109.591 113.721 109.715 113.499C109.838 113.276 110.039 113.107 110.28 113.025C110.52 112.942 110.783 112.952 111.017 113.051C111.251 113.151 111.44 113.334 111.546 113.565C111.653 113.796 111.671 114.058 111.596 114.301" fill="#0872BA"/>
<path id="Vector_161" d="M142.956 69.508C142.889 69.6425 142.804 69.7675 142.704 69.88L141.904 70.884C141.204 71.748 140.208 73.004 138.988 74.572C137.768 76.14 136.344 78.02 134.796 80.136C133.248 82.252 131.596 84.62 129.924 87.14C128.252 89.66 126.724 92.104 125.352 94.34C123.98 96.576 122.808 98.628 121.84 100.34C120.872 102.052 120.096 103.476 119.568 104.456C119.304 104.928 119.1 105.304 118.948 105.572C118.883 105.708 118.803 105.835 118.708 105.952C118.747 105.812 118.803 105.678 118.876 105.552L119.424 104.396C119.908 103.396 120.644 101.964 121.584 100.216C122.524 98.468 123.684 96.4 125.024 94.14C126.364 91.88 127.9 89.428 129.576 86.9C131.252 84.372 132.928 82.02 134.488 79.904C136.048 77.788 137.504 75.904 138.756 74.38C140.008 72.856 141.044 71.604 141.78 70.78C142.14 70.38 142.424 70.052 142.632 69.824C142.726 69.7055 142.835 69.5994 142.956 69.508Z" fill="#263238"/>
</g>
<g id="freepik--character-1--inject-303">
<path id="Vector_162" d="M48.9836 50.8643C48.6872 50.4155 48.2569 50.0714 47.754 49.8809C47.251 49.6905 46.7008 49.6632 46.1814 49.8032C45.6621 49.9431 45.2 50.243 44.8608 50.6603C44.5216 51.0777 44.3224 51.5913 44.2916 52.1283C44.3319 52.6352 44.3158 53.145 44.2436 53.6483C44.1397 53.983 43.9242 54.2721 43.6331 54.4671C43.3419 54.6622 42.9926 54.7516 42.6436 54.7203C42.8965 55.0681 43.2495 55.3305 43.6556 55.4723C43.603 55.4477 43.5453 55.4361 43.4874 55.4384C43.4294 55.4407 43.3728 55.4567 43.3223 55.4853C43.2718 55.5139 43.2289 55.5541 43.1971 55.6026C43.1653 55.6512 43.1456 55.7066 43.1396 55.7643C43.1374 55.8833 43.1709 56.0003 43.2357 56.1001C43.3006 56.1999 43.3939 56.278 43.5036 56.3243C43.7266 56.4092 43.9654 56.4447 44.2036 56.4283C45.3556 56.4283 46.6036 56.3003 47.4716 55.5403C48.4116 54.7403 48.6716 53.4003 48.9036 52.1723" fill="#263238"/>
<path id="Vector_163" d="M59.3119 46.0003C60.5119 45.9323 61.6319 46.6603 62.4599 47.5363C63.2879 48.4123 63.9319 49.4563 64.7959 50.3003C65.4359 50.9283 66.2159 51.4683 66.6039 52.3003C67.2239 53.5923 66.7039 55.2603 67.4839 56.4603C67.9239 57.1363 68.6839 57.5323 69.1559 58.2003C69.7239 59.0363 69.6799 60.1323 69.5559 61.1323C69.59 61.7677 69.3934 62.394 69.0024 62.896C68.6114 63.398 68.0523 63.7418 67.4279 63.8643C63.4788 65.2009 59.2143 65.2917 55.2119 64.1243" fill="#263238"/>
<path id="Vector_164" d="M51.0235 54.0771C50.9202 53.2503 50.9844 52.4112 51.212 51.6098C51.4397 50.8083 51.8263 50.0609 52.3488 49.4119C52.8713 48.7629 53.519 48.2256 54.2533 47.8321C54.9877 47.4385 55.7937 47.1967 56.6235 47.1211C59.9355 46.8051 62.8795 49.2691 63.3795 52.5611C63.8115 55.4451 64.1795 58.3571 64.1795 59.4131C64.1395 62.6131 62.2755 63.8411 61.5195 64.2131C61.2473 64.3109 60.9658 64.3806 60.6795 64.4211V64.4451L61.3875 68.1051C61.7075 70.5051 60.3675 72.6411 57.9755 72.9931C55.5835 73.3451 53.6955 71.5011 53.3275 69.1011L51.0235 54.0771Z" fill="#FFBE9D"/>
<path id="Vector_165" d="M62.7999 54.4252C62.7479 54.5012 62.3279 54.2732 61.7879 54.3532C61.2479 54.4332 60.8919 54.7532 60.8239 54.7052C60.7559 54.6572 60.8239 54.5532 60.9919 54.4012C61.2007 54.2037 61.4669 54.0776 61.7519 54.0412C62.0263 54.0011 62.3063 54.0487 62.5519 54.1772C62.7639 54.2812 62.8399 54.4012 62.7999 54.4252Z" fill="#263238"/>
<path id="Vector_166" d="M58.0002 55.4645C57.9442 55.5405 57.5242 55.3125 56.9842 55.3925C56.4442 55.4725 56.0882 55.7925 56.0202 55.7445C55.9522 55.6965 56.0202 55.5925 56.1882 55.4405C56.399 55.2459 56.6641 55.1203 56.9482 55.0805C57.2225 55.0436 57.5015 55.0911 57.7482 55.2165C57.9642 55.3205 58.0362 55.4325 58.0002 55.4645Z" fill="#263238"/>
<path id="Vector_167" d="M59.8756 58.0011C60.1484 57.8714 60.4358 57.7747 60.7316 57.7131C60.8676 57.6811 60.9916 57.6331 61.0036 57.5371C60.9927 57.3919 60.9399 57.2529 60.8516 57.1371L60.2916 56.1451C59.7846 55.312 59.3445 54.4399 58.9756 53.5371C59.5497 54.3283 60.0593 55.1643 60.4996 56.0371C60.6876 56.3851 60.8676 56.7171 61.0436 57.0331C61.1634 57.1969 61.219 57.3991 61.1996 57.6011C61.1871 57.6523 61.1629 57.6999 61.1289 57.7402C61.0949 57.7805 61.052 57.8123 61.0036 57.8331C60.9312 57.8664 60.8544 57.8893 60.7756 57.9011C60.4806 57.9699 60.1785 58.0034 59.8756 58.0011Z" fill="#263238"/>
<path id="Vector_168" d="M60.6362 64.4288C60.6362 64.4288 58.5762 64.9008 55.7402 63.7168C55.7402 63.7168 56.9642 66.3488 60.8242 65.4128L60.6362 64.4288Z" fill="#EB996E"/>
<path id="Vector_169" d="M59.8399 59.3478C59.7185 59.2334 59.5698 59.152 59.4081 59.1114C59.2463 59.0708 59.0769 59.0723 58.9158 59.1158C58.6813 59.1694 58.4773 59.3131 58.3479 59.5158C58.2894 59.6169 58.263 59.7335 58.2723 59.8499C58.2816 59.9664 58.3261 60.0772 58.3999 60.1678C58.5014 60.2516 58.6254 60.3035 58.7564 60.317C58.8873 60.3305 59.0193 60.3051 59.1359 60.2438C59.3767 60.1159 59.59 59.9419 59.7639 59.7318C59.8183 59.6787 59.863 59.6164 59.8959 59.5478C59.9112 59.5151 59.9164 59.4786 59.9106 59.4429C59.9049 59.4072 59.8886 59.3741 59.8639 59.3478" fill="#EB996E"/>
<path id="Vector_170" d="M58.3441 58.6211C58.4321 58.6211 58.5161 59.1891 59.0801 59.5331C59.6441 59.8771 60.2561 59.7211 60.2801 59.8011C60.3041 59.8811 60.1561 59.9331 59.8801 59.9811C59.5372 60.0334 59.1867 59.9656 58.8881 59.7891C58.6031 59.6173 58.3953 59.3422 58.3081 59.0211C58.2601 58.7771 58.3041 58.6251 58.3441 58.6211Z" fill="#263238"/>
<path id="Vector_171" d="M57.6395 53.7086C57.6075 53.8646 57.0555 53.8726 56.4395 54.0406C55.8235 54.2086 55.3315 54.4406 55.2395 54.3366C55.1915 54.2806 55.2595 54.1286 55.4475 53.9366C55.6951 53.719 55.9914 53.5639 56.3115 53.4846C56.6301 53.3986 56.9645 53.389 57.2875 53.4566C57.5155 53.5366 57.6515 53.6366 57.6395 53.7086Z" fill="#263238"/>
<path id="Vector_172" d="M62.2681 52.7608C62.1921 52.8968 61.8001 52.8249 61.3521 52.8849C60.9041 52.9449 60.5521 53.0849 60.4321 52.9689C60.3841 52.9129 60.4321 52.7809 60.5761 52.6409C60.7778 52.4699 61.0258 52.3627 61.2886 52.3328C61.5513 52.3029 61.817 52.3516 62.0521 52.4728C62.2321 52.5768 62.3001 52.6928 62.2681 52.7608Z" fill="#263238"/>
<path id="Vector_173" d="M63.9997 51.8449C63.3397 52.8529 61.2477 52.2449 59.9797 51.5369C59.3199 51.9581 58.5219 52.1051 57.7554 51.9468C56.9889 51.7884 56.3144 51.3371 55.8757 50.6889C55.1517 51.6089 53.6797 51.3049 53.1437 50.2649C52.6077 49.2249 52.9117 47.7969 53.6477 46.8889C54.3886 46.0406 55.4089 45.4858 56.5237 45.3249C57.8031 45.0791 59.1266 45.2132 60.3307 45.7108C61.5349 46.2084 62.567 47.0476 63.2997 48.1249C63.9957 49.1769 64.4117 50.5929 63.9997 51.853" fill="#263238"/>
<path id="Vector_174" d="M53.8239 46.8003C51.4519 46.3483 49.1639 48.7123 48.9279 50.4003C48.5279 53.3363 48.9279 53.7043 48.3759 55.1123C48.0239 56.0283 46.8199 56.9643 46.3439 57.9123C45.8319 58.9243 45.8319 60.6403 46.1879 61.7163C46.4879 62.6283 47.7119 65.1683 47.7119 65.1683C47.7119 65.1683 51.2399 65.0523 53.0439 64.5923C53.5101 64.4987 53.9474 64.2958 54.3199 64.0003C54.6599 63.6883 53.9559 62.6123 54.0199 62.1563C54.2039 60.8523 55.1799 60.1003 54.8999 58.8163C54.5279 57.1083 53.1879 57.0243 53.2159 55.2763C53.2159 54.3523 54.6119 53.0203 54.7399 52.1043C54.8679 51.1883 55.3999 48.0003 53.8239 46.8003Z" fill="#263238"/>
<path id="Vector_175" d="M48.8315 53.0277C48.8915 53.0277 48.7675 52.4357 48.7795 51.7277C48.7915 51.0197 48.9275 50.4477 48.8675 50.4277C48.6786 50.8341 48.5778 51.2758 48.5716 51.7239C48.5654 52.172 48.654 52.6163 48.8315 53.0277Z" fill="#0872BA"/>
<path id="Vector_176" d="M48.9043 52.0315C48.9841 52.0703 49.0716 52.0908 49.1603 52.0915C49.3983 52.1131 49.6382 52.0997 49.8723 52.0515C50.2247 51.9844 50.5604 51.8484 50.8603 51.6515C51.2267 51.4093 51.5342 51.0881 51.7603 50.7115C51.9698 50.3508 52.2165 50.0129 52.4963 49.7035C52.7364 49.4663 53.015 49.2715 53.3203 49.1275C53.612 49.0099 53.9113 48.9124 54.2163 48.8355C54.1295 48.8152 54.0391 48.8152 53.9523 48.8355C53.7148 48.8608 53.482 48.9186 53.2603 49.0075C52.9271 49.1384 52.6218 49.3311 52.3603 49.5755C52.0666 49.885 51.8114 50.2288 51.6003 50.5995C51.2112 51.2475 50.5837 51.7171 49.8523 51.9075C49.539 51.9677 49.2225 52.0091 48.9043 52.0315Z" fill="#455A64"/>
<path id="Vector_177" d="M43.1162 55.6563C43.2043 55.7213 43.3108 55.7563 43.4202 55.7563C43.7208 55.7755 44.0188 55.6908 44.2642 55.5163C44.626 55.2583 44.8952 54.8909 45.0322 54.4683C45.2042 54.0083 45.2842 53.4803 45.4322 52.9603C45.5441 52.4737 45.8177 52.0394 46.2082 51.7283C46.5481 51.505 46.957 51.4113 47.3602 51.4643C47.7362 51.5229 48.0889 51.6834 48.3802 51.9283C48.3802 51.9283 48.3362 51.8163 48.1762 51.6803C47.9471 51.4893 47.6707 51.3636 47.3762 51.3163C46.9331 51.2389 46.4769 51.3287 46.0962 51.5683C45.6598 51.8969 45.3526 52.3683 45.2282 52.9003C45.0682 53.4403 44.9962 53.9603 44.8282 54.4003C44.7127 54.7928 44.4795 55.1405 44.1602 55.3963C43.9425 55.5643 43.6788 55.662 43.4042 55.6763C43.2282 55.6763 43.1202 55.6403 43.1162 55.6563Z" fill="#455A64"/>
<path id="Vector_178" d="M48.8438 51.6771C48.8438 51.6771 48.9477 51.7091 49.1357 51.6771C49.3947 51.6083 49.6298 51.47 49.8158 51.2771C50.085 50.9876 50.2943 50.6478 50.4318 50.2771C50.5807 49.84 50.7765 49.4202 51.0158 49.0251C51.2547 48.6872 51.564 48.4049 51.9223 48.1978C52.2807 47.9906 52.6796 47.8635 53.0917 47.8251C53.4381 47.8072 53.7854 47.826 54.1278 47.8811C54.1278 47.8811 54.0438 47.8211 53.8638 47.7651C53.6035 47.693 53.3334 47.6633 53.0638 47.6771C52.6242 47.6934 52.1942 47.81 51.8067 48.018C51.4191 48.226 51.0843 48.5199 50.8277 48.8771C50.5815 49.2851 50.3829 49.7199 50.2357 50.1731C50.115 50.5263 49.9306 50.8543 49.6918 51.1411C49.471 51.4028 49.1748 51.59 48.8438 51.6771Z" fill="#455A64"/>
<path id="Vector_179" d="M49.8121 65.2887C49.8121 65.2887 49.6401 65.0927 49.3401 64.7327C48.9226 64.2225 48.5706 63.6622 48.2921 63.0647C47.8766 62.1817 47.7 61.2052 47.7801 60.2327C47.8243 59.6429 47.9849 59.0678 48.2527 58.5405C48.5205 58.0133 48.89 57.5443 49.3401 57.1606C49.8281 56.7606 50.3881 56.4687 50.8601 56.0687C51.3344 55.6926 51.6798 55.1781 51.8481 54.5967C51.9925 54.0838 52.0902 53.559 52.1401 53.0287C52.1886 52.5771 52.2796 52.1311 52.4121 51.6967C52.4993 51.3841 52.6511 51.0933 52.8578 50.8431C53.0646 50.593 53.3215 50.3891 53.6121 50.2447C53.8337 50.1555 54.0694 50.1067 54.3081 50.1007C54.2478 50.0797 54.184 50.0702 54.1201 50.0727C53.9352 50.0693 53.7515 50.1033 53.5801 50.1727C53.2666 50.3082 52.9864 50.5104 52.7592 50.7654C52.5319 51.0203 52.3629 51.3217 52.2641 51.6487C52.1211 52.0901 52.0207 52.5441 51.9641 53.0046C51.9046 53.5227 51.8029 54.0351 51.6601 54.5367C51.4962 55.0802 51.1695 55.5605 50.7241 55.9127C50.2681 56.2927 49.7121 56.5887 49.2001 57.0007C48.7341 57.4009 48.3525 57.89 48.0778 58.4395C47.8031 58.9889 47.6407 59.5877 47.6001 60.2007C47.5262 61.2038 47.7238 62.2083 48.1721 63.1087C48.4638 63.7129 48.841 64.272 49.2921 64.7687C49.4521 64.9447 49.5841 65.0727 49.6921 65.1687C49.8001 65.2647 49.8041 65.2967 49.8121 65.2887Z" fill="#455A64"/>
<path id="Vector_180" d="M67.0598 63.7532C67.0598 63.7532 67.0958 63.7132 67.1478 63.6292C67.2234 63.5005 67.2902 63.3669 67.3478 63.2292C67.5548 62.7214 67.6595 62.1776 67.6558 61.6292C67.6604 60.8084 67.43 60.0033 66.9918 59.3092C66.7214 58.9164 66.4233 58.5435 66.0998 58.1932C65.765 57.8313 65.5234 57.3934 65.3958 56.9172C65.1838 55.9252 65.5078 54.9172 65.4398 54.0092C65.4252 53.1918 65.2051 52.3912 64.7998 51.6812C64.5191 51.2089 64.1431 50.8002 63.6958 50.4812C63.5753 50.3941 63.4483 50.3165 63.3158 50.2492C63.2278 50.2012 63.1758 50.1812 63.1758 50.1892C63.1758 50.1972 63.3518 50.3092 63.6438 50.5452C64.0603 50.8755 64.4093 51.2829 64.6718 51.7452C65.0475 52.4398 65.2479 53.2156 65.2558 54.0052C65.2624 54.4746 65.2343 54.9439 65.1718 55.4092C65.0973 55.9233 65.1067 56.4461 65.1998 56.9572C65.3355 57.464 65.5937 57.9297 65.9518 58.3132C66.2708 58.6579 66.5674 59.0226 66.8398 59.4052C67.2658 60.0686 67.4998 60.837 67.5158 61.6252C67.5333 62.1579 67.4533 62.6893 67.2798 63.1932C67.1478 63.5612 67.0438 63.7452 67.0598 63.7532Z" fill="#455A64"/>
<path id="Vector_181" d="M57.0195 45.6836C57.5303 45.6761 58.041 45.7055 58.5475 45.7716C59.7632 45.9729 60.8775 46.5722 61.7155 47.4756C62.5092 48.4197 63.0354 49.5592 63.2395 50.7756C63.3088 51.2818 63.3343 51.793 63.3155 52.3036C63.364 52.1752 63.3937 52.0405 63.4035 51.9036C63.4485 51.5249 63.4485 51.1423 63.4035 50.7636C63.2364 49.5038 62.7117 48.3183 61.8915 47.3476C61.0254 46.4088 59.8578 45.803 58.5915 45.6356C58.2115 45.5902 57.8275 45.5902 57.4475 45.6356C57.3032 45.6275 57.1585 45.6438 57.0195 45.6836Z" fill="#455A64"/>
<path id="Vector_182" d="M60.4282 50.3723C60.4671 50.2564 60.4847 50.1345 60.4802 50.0123C60.4907 49.6811 60.4557 49.35 60.3762 49.0283C60.2542 48.4892 60.0231 47.9808 59.6973 47.5343C59.3714 47.0878 58.9577 46.7127 58.4815 46.432C58.0052 46.1514 57.4766 45.9712 56.9282 45.9024C56.3797 45.8337 55.823 45.8779 55.2922 46.0323C54.9716 46.1239 54.6648 46.2584 54.3802 46.4323C54.1842 46.5563 54.0842 46.6403 54.0922 46.6523C54.4894 46.4607 54.9031 46.3054 55.3282 46.1883C56.3619 45.9254 57.4575 46.0819 58.3762 46.6237C59.2949 47.1655 59.9621 48.0486 60.2322 49.0803C60.3351 49.5044 60.4007 49.9367 60.4282 50.3723Z" fill="#455A64"/>
<path id="Vector_183" d="M39.428 114.628C39.34 114.936 39.24 115.3 39.144 115.736C39.0641 116.107 39.0479 116.49 39.096 116.868C39.1374 117.34 39.2437 117.804 39.412 118.248C39.608 118.648 39.228 119.048 38.876 118.884C38.524 118.72 37.956 117.644 37.908 116.24C37.86 114.836 36.528 116.6 36.028 117.232C35.528 117.864 33.9 119.752 33.584 119.752C33.12 119.752 33.032 119.26 33.544 118.64C34.056 118.02 35.46 116.048 35.112 115.8C34.764 115.552 32.284 118.8 32.284 118.8C32.284 118.8 31.884 119.6 31.452 119.312C30.712 118.82 33.612 115.552 33.896 115.248C34.092 115.036 33.724 114.756 33.528 114.992C33.332 115.228 31.128 118.3 30.36 117.792C29.78 117.416 32.72 115.084 32.824 114.192C32.928 113.3 30.772 116.192 30.232 115.792C30.032 115.648 29.9 115.516 31.376 114.036C32.092 113.32 34.852 111.144 34.852 111.144L40.452 91.6035H47.8L39.428 114.628Z" fill="#FFBE9D"/>
<path id="Vector_184" d="M99.7239 35.2763C99.1639 34.9203 97.1479 37.9043 97.2079 37.0123C97.2679 36.1203 100.1 33.6483 99.4999 33.3003C98.7199 32.8443 96.6639 36.0043 96.4719 36.2603C96.2799 36.5163 95.9039 36.2603 96.0719 36.0243C96.3399 35.7083 99.0839 32.3043 98.3199 31.8523C97.8959 31.6003 97.5199 32.4003 97.5199 32.4003C97.5199 32.4003 95.1879 35.7723 94.8319 35.5443C94.4759 35.3163 95.7799 33.2883 96.2679 32.6363C96.7559 31.9843 96.6359 31.5003 96.1759 31.5243C95.8599 31.5243 94.3199 33.5243 93.8519 34.1563C93.3839 34.7883 92.1359 36.6363 92.0199 35.2363C91.9039 33.8363 91.2879 32.8043 90.9279 32.6403C90.5679 32.4763 90.2079 32.9203 90.4239 33.3003C90.6208 33.7339 90.7554 34.1931 90.8239 34.6643C90.8879 35.0403 90.8879 35.4243 90.8239 35.8003C90.7519 36.2363 90.6679 36.6003 90.5919 36.9163L89.6479 38.4643C89.6479 38.4643 82.7479 50.6883 81.5999 52.4323C80.4519 54.1763 71.8479 61.4603 71.8479 61.4603L72.5279 71.0603L86.5279 58.6603L95.1159 40.5603L95.3279 40.1123C95.3279 40.1123 97.9799 37.8123 98.6599 37.0603C100.068 35.5403 99.9319 35.4123 99.7239 35.2763Z" fill="#FFBE9D"/>
<path id="Vector_185" d="M69.9194 76.8997L80.6914 65.6797L76.4234 56.4277L61.7074 66.9277L61.4434 66.1277L52.8674 67.1997V68.7157L52.6234 68.7437C52.6234 68.7437 44.4634 70.2277 42.8234 76.3437C41.6914 80.5637 39.3434 88.4237 38.0234 92.8877L47.8114 93.7437L50.2994 85.5517C50.2994 85.5517 51.8594 89.1157 51.7714 90.8037C51.6834 92.4917 50.0674 97.9637 50.0674 97.9637L69.1834 99.7517L68.8994 83.6237L69.9194 76.8997Z" fill="#0872BA"/>
<path id="Vector_186" d="M69.1442 78.5083C69.1442 78.5643 63.1442 78.6123 55.7762 78.6123C48.4082 78.6123 42.4082 78.5643 42.4082 78.5083C42.4082 78.4523 48.4082 78.4003 55.7762 78.4003C63.1442 78.4003 69.1442 78.4483 69.1442 78.5083Z" fill="#F5F5F5"/>
<path id="Vector_187" d="M69.6959 76.8794C69.6959 76.9394 63.6959 76.9834 56.3319 76.9834C48.9679 76.9834 42.9639 76.9394 42.9639 76.8794C42.9639 76.8194 48.9639 76.7754 56.3319 76.7754C63.6999 76.7754 69.6959 76.8234 69.6959 76.8794Z" fill="#F5F5F5"/>
<path id="Vector_188" d="M35.9999 173.236L33.9519 182.496L30.2199 189.352C30.1562 189.469 30.1172 189.598 30.1054 189.731C30.0936 189.864 30.1092 189.997 30.1512 190.124C30.1932 190.25 30.2607 190.366 30.3496 190.466C30.4385 190.565 30.5468 190.645 30.6679 190.7C30.808 190.766 30.9621 190.797 31.1168 190.79C31.2715 190.783 31.4221 190.738 31.5559 190.66C33.2919 189.66 39.6639 185.936 39.7759 185.248C39.9039 184.448 42.5759 175.624 42.5759 175.624L35.9999 173.236Z" fill="#0872BA"/>
<path id="Vector_189" opacity="0.6" d="M30.6562 190.701L39.9163 184.629L39.8203 185.029C39.7387 185.367 39.5386 185.665 39.2562 185.869C38.5042 186.413 36.3923 187.869 31.5723 190.669C31.4341 190.75 31.2781 190.795 31.1183 190.8C30.9584 190.806 30.7997 190.772 30.6562 190.701Z" fill="white"/>
<g id="Group_3" opacity="0.6">
<path id="Vector_190" d="M38.7561 181.201C38.6221 181.257 38.5133 181.359 38.4505 181.49C38.3878 181.621 38.3755 181.77 38.4161 181.909C38.4659 182.045 38.5661 182.156 38.6958 182.219C38.8255 182.282 38.9746 182.293 39.1121 182.249C39.2538 182.191 39.3688 182.082 39.4346 181.944C39.5004 181.806 39.5123 181.648 39.4681 181.501C39.4014 181.365 39.2845 181.26 39.1419 181.209C38.9993 181.157 38.8423 181.163 38.7041 181.225" fill="white"/>
</g>
<path id="Vector_191" d="M33.7474 187.2C33.5976 186.858 33.383 186.549 33.1154 186.288C32.8112 186.072 32.4694 185.915 32.1074 185.824C32.1074 185.8 32.2394 185.756 32.4594 185.78C32.755 185.813 33.0338 185.935 33.2594 186.128C33.4862 186.315 33.6531 186.564 33.7394 186.844C33.7914 187.052 33.7714 187.2 33.7474 187.2Z" fill="#263238"/>
<path id="Vector_192" d="M32.8 188.265C32.744 188.297 32.524 187.925 32.08 187.669C31.7959 187.54 31.5047 187.428 31.208 187.333C31.3714 187.279 31.5451 187.266 31.7148 187.293C31.8845 187.32 32.0453 187.387 32.184 187.489C32.68 187.781 32.844 188.253 32.8 188.265Z" fill="#263238"/>
<path id="Vector_193" d="M35.3594 185.913C35.0338 185.556 34.6836 185.224 34.3114 184.917C33.899 184.667 33.4685 184.449 33.0234 184.265C33.536 184.25 34.0364 184.422 34.4314 184.749C34.8685 185.015 35.1972 185.427 35.3594 185.913Z" fill="#263238"/>
<path id="Vector_194" d="M36.2158 183.149C36.1798 183.197 35.7198 182.861 35.0638 182.673C34.4078 182.485 33.8638 182.517 33.8398 182.457C34.2614 182.345 34.7053 182.351 35.1239 182.473C35.5425 182.595 35.92 182.828 36.2158 183.149Z" fill="#263238"/>
<path id="Vector_195" d="M36.8876 180.444C36.5125 180.217 36.109 180.041 35.6876 179.92C35.2576 179.862 34.8216 179.862 34.3916 179.92C34.3916 179.9 34.5116 179.808 34.7516 179.736C35.0719 179.652 35.4075 179.643 35.7316 179.712C36.0541 179.773 36.3572 179.91 36.6156 180.112C36.8236 180.292 36.9036 180.428 36.8876 180.444Z" fill="#263238"/>
<path id="Vector_196" d="M35.8439 179.409C35.8409 179.287 35.8655 179.167 35.9159 179.057C36.0206 178.746 36.185 178.46 36.3999 178.213C36.5472 178.019 36.7536 177.879 36.9879 177.813C37.0657 177.801 37.1451 177.813 37.2162 177.846C37.2874 177.88 37.3471 177.933 37.3879 178.001C37.4556 178.141 37.4712 178.302 37.4319 178.453C37.3367 178.75 37.1429 179.006 36.8826 179.178C36.6222 179.351 36.3108 179.429 35.9999 179.401C35.6874 179.356 35.395 179.221 35.1594 179.011C34.9239 178.801 34.7556 178.526 34.6759 178.221C34.6573 178.143 34.6552 178.062 34.6696 177.984C34.6841 177.905 34.7148 177.831 34.7599 177.765C34.8147 177.706 34.8859 177.665 34.9645 177.647C35.043 177.629 35.125 177.635 35.1999 177.665C35.4137 177.77 35.5959 177.93 35.7279 178.129C35.9296 178.39 36.0827 178.685 36.1799 179.001C36.2264 179.112 36.2482 179.232 36.2439 179.353C36.0889 178.944 35.8716 178.563 35.5999 178.221C35.4803 178.05 35.3192 177.912 35.1319 177.821C35.0916 177.803 35.0465 177.798 35.0034 177.807C34.9603 177.817 34.9212 177.84 34.8919 177.873C34.8656 177.918 34.8485 177.968 34.8416 178.021C34.8347 178.073 34.8382 178.126 34.8519 178.177C34.9247 178.44 35.0716 178.676 35.2752 178.858C35.4788 179.039 35.7304 179.158 35.9999 179.201C36.2694 179.229 36.5406 179.166 36.7694 179.02C36.9982 178.875 37.1711 178.657 37.2599 178.401C37.2969 178.299 37.2969 178.187 37.2599 178.085C37.2387 178.045 37.2056 178.014 37.1654 177.994C37.1252 177.975 37.0798 177.969 37.0359 177.977C36.8388 178.033 36.6631 178.147 36.5319 178.305C36.2399 178.63 36.0071 179.003 35.8439 179.409Z" fill="#263238"/>
<path id="Vector_197" d="M65.6876 176.152L65.1316 183.552C65.1316 183.552 72.4676 186.6 72.4996 187.976L58.0996 187.42L58.4996 175.852L65.6876 176.152Z" fill="#0872BA"/>
<g id="Group_4" opacity="0.6">
<path id="Vector_198" d="M60.708 182.756C60.5681 182.792 60.4465 182.879 60.3667 182.999C60.2869 183.12 60.2546 183.265 60.276 183.408C60.3068 183.55 60.3909 183.674 60.5108 183.755C60.6307 183.836 60.7772 183.868 60.92 183.844C61.0687 183.806 61.1978 183.713 61.2821 183.584C61.3663 183.456 61.3998 183.3 61.376 183.148C61.3274 183.004 61.2248 182.884 61.0898 182.814C60.9548 182.744 60.7978 182.729 60.652 182.772" fill="white"/>
</g>
<path id="Vector_199" opacity="0.6" d="M58.1123 187.42L58.1963 186.256L71.9603 187.224C71.9603 187.224 72.5923 187.528 72.5003 187.976L58.1123 187.42Z" fill="white"/>
<path id="Vector_200" d="M65.3674 183.489C65.3674 183.557 65.0114 183.577 64.6554 183.789C64.2994 184.001 64.1074 184.289 64.0434 184.261C63.9794 184.233 64.0994 183.825 64.5314 183.577C64.9634 183.329 65.3874 183.425 65.3674 183.489Z" fill="#263238"/>
<path id="Vector_201" d="M66.8522 184.169C66.8522 184.241 66.5602 184.345 66.3082 184.633C66.0562 184.921 65.9762 185.233 65.9082 185.229C65.8402 185.225 65.8082 184.829 66.1242 184.473C66.4402 184.117 66.8562 184.105 66.8522 184.169Z" fill="#263238"/>
<path id="Vector_202" d="M67.6394 186C67.5754 186 67.4914 185.66 67.6874 185.28C67.8834 184.9 68.2154 184.764 68.2434 184.824C68.2714 184.884 68.0594 185.08 67.9034 185.392C67.7474 185.704 67.7114 186 67.6394 186Z" fill="#263238"/>
<path id="Vector_203" d="M65.3074 181.788C65.2754 181.848 64.9554 181.74 64.5594 181.752C64.1634 181.764 63.8474 181.876 63.8114 181.816C63.7754 181.756 64.0834 181.512 64.5554 181.508C65.0274 181.504 65.3434 181.732 65.3074 181.788Z" fill="#263238"/>
<path id="Vector_204" opacity="0.3" d="M65.5762 177.616L65.4762 178.936L58.4082 178.596L58.4482 177.404L65.5762 177.616Z" fill="black"/>
<path id="Vector_205" d="M65.3917 180.293C65.1531 180.346 64.9047 180.335 64.6717 180.261C64.4141 180.204 64.1643 180.117 63.9277 180.001C63.7894 179.931 63.6558 179.852 63.5277 179.765C63.4497 179.715 63.3795 179.655 63.3197 179.585C63.2752 179.533 63.2492 179.468 63.2456 179.4C63.2419 179.332 63.261 179.265 63.2997 179.209C63.3378 179.162 63.386 179.124 63.4407 179.098C63.4954 179.073 63.5553 179.06 63.6157 179.061C63.7067 179.065 63.7969 179.081 63.8837 179.109C64.0353 179.152 64.1826 179.21 64.3237 179.281C64.5631 179.4 64.7819 179.556 64.9717 179.745C65.2957 180.065 65.3997 180.333 65.3717 180.345C65.3437 180.357 65.1837 180.141 64.8517 179.873C64.6616 179.711 64.4503 179.577 64.2237 179.473C64.0941 179.415 63.9604 179.367 63.8237 179.329C63.6717 179.285 63.5437 179.277 63.5037 179.329C63.4637 179.381 63.5037 179.365 63.5037 179.409C63.5483 179.458 63.5994 179.501 63.6557 179.537C63.777 179.621 63.9025 179.7 64.0317 179.773C64.2499 179.891 64.479 179.989 64.7157 180.065C64.9466 180.123 65.1726 180.199 65.3917 180.293Z" fill="#263238"/>
<path id="Vector_206" d="M65.2956 180.401C65.1669 180.19 65.1094 179.943 65.1316 179.697C65.13 179.425 65.1746 179.154 65.2636 178.897C65.3153 178.747 65.3823 178.602 65.4636 178.465C65.5062 178.372 65.572 178.292 65.6546 178.231C65.7373 178.171 65.8341 178.133 65.9356 178.121C65.9996 178.125 66.0612 178.146 66.113 178.184C66.1648 178.222 66.2046 178.273 66.2276 178.333C66.2623 178.419 66.2838 178.509 66.2916 178.601C66.3162 178.761 66.3162 178.925 66.2916 179.085C66.2424 179.353 66.1269 179.605 65.9556 179.817C65.6596 180.181 65.3636 180.253 65.3556 180.217C65.3476 180.181 65.5836 180.053 65.8156 179.705C65.9473 179.503 66.0333 179.275 66.0676 179.037C66.0877 178.898 66.0877 178.756 66.0676 178.617C66.0676 178.465 65.9996 178.341 65.9396 178.353C65.8796 178.365 65.7436 178.461 65.6796 178.581C65.6034 178.702 65.5378 178.829 65.4836 178.961C65.3944 179.191 65.3392 179.432 65.3196 179.677C65.2716 180.113 65.3356 180.401 65.2956 180.401Z" fill="#263238"/>
<path id="Vector_207" d="M50.7999 95.2246C50.7999 95.2246 46.2439 102.425 45.5999 105.169C45.0119 107.637 35.0519 161.269 32.9879 172.369C32.8873 172.921 32.9952 173.492 33.2907 173.97C33.5862 174.448 34.0483 174.799 34.5879 174.957L43.5999 177.665C43.9005 177.756 44.2167 177.783 44.5285 177.746C44.8403 177.708 45.1409 177.606 45.4113 177.446C45.6817 177.287 45.9159 177.072 46.0992 176.817C46.2824 176.562 46.4107 176.272 46.4759 175.965L57.5679 124.001L54.3119 175.477C54.2895 175.843 54.3436 176.209 54.4708 176.553C54.598 176.897 54.7955 177.211 55.0506 177.474C55.3058 177.738 55.613 177.945 55.9527 178.083C56.2925 178.221 56.6573 178.287 57.0239 178.277L65.8479 178.005C66.5043 177.983 67.1292 177.718 67.601 177.261C68.0727 176.804 68.3575 176.188 68.3999 175.533C69.1639 163.133 72.6159 106.733 71.9199 104.973C71.1439 102.973 69.0999 96.0686 69.0999 96.0686L50.7999 95.2246Z" fill="#263238"/>
<path id="Vector_208" d="M47.2003 173.428C47.0147 173.422 46.83 173.399 46.6483 173.36C46.2963 173.304 45.7883 173.208 45.1603 173.08C43.9123 172.824 42.1923 172.416 40.3203 171.88C38.4483 171.344 36.8003 170.748 35.6003 170.292C35.0043 170.064 34.5243 169.872 34.1963 169.728C34.0223 169.666 33.8548 169.587 33.6963 169.492C33.8787 169.527 34.057 169.581 34.2283 169.652L35.6523 170.152C36.8523 170.572 38.5283 171.128 40.3923 171.672C42.2563 172.216 43.9683 172.644 45.1923 172.936L46.6643 173.28C46.8479 173.309 47.0277 173.359 47.2003 173.428Z" fill="#455A64"/>
<path id="Vector_209" d="M36.0394 170.139C35.7306 169.897 35.5272 169.544 35.4714 169.155C35.3467 168.783 35.3726 168.377 35.5434 168.023C35.6034 168.023 35.5434 168.527 35.6754 169.107C35.8074 169.687 36.0874 170.099 36.0394 170.139Z" fill="#455A64"/>
<path id="Vector_210" d="M37.1479 168.225C37.2164 168.582 37.1803 168.951 37.0439 169.289C36.9694 169.644 36.7977 169.973 36.5479 170.237C36.6093 169.891 36.7086 169.553 36.8439 169.229C36.9127 168.885 37.0145 168.549 37.1479 168.225Z" fill="#455A64"/>
<path id="Vector_211" d="M65.4154 170.936C65.5653 171.228 65.6525 171.548 65.6714 171.876C65.7549 172.193 65.7726 172.523 65.7234 172.848C65.5733 172.555 65.4848 172.235 65.4634 171.908C65.3771 171.591 65.3607 171.259 65.4154 170.936Z" fill="#455A64"/>
<path id="Vector_212" d="M66.4876 170.436C66.5836 170.762 66.6148 171.105 66.5796 171.444C66.6074 171.783 66.5665 172.124 66.4596 172.448C66.3636 172.121 66.3323 171.778 66.3676 171.44C66.3398 171.1 66.3806 170.759 66.4876 170.436Z" fill="#455A64"/>
<path id="Vector_213" d="M61.5275 97.7323C61.5372 97.8254 61.5372 97.9192 61.5275 98.0123C61.5275 98.2203 61.5075 98.4883 61.4955 98.8123C61.4675 99.5163 61.4075 100.532 61.3155 101.788C61.1315 104.3 60.7875 107.764 60.2315 111.568C59.6755 115.372 59.0315 118.792 58.5035 121.256C58.2475 122.488 58.0315 123.484 57.8715 124.168C57.7915 124.496 57.7315 124.756 57.6835 124.968C57.6663 125.061 57.6394 125.153 57.6035 125.24C57.61 125.145 57.6234 125.05 57.6435 124.956C57.6795 124.756 57.7315 124.488 57.7915 124.156C57.9315 123.44 58.1235 122.448 58.3595 121.232C58.8315 118.76 59.4635 115.34 60.0235 111.54C60.5835 107.74 60.9475 104.288 61.1675 101.78C61.2715 100.544 61.3555 99.5363 61.4155 98.8123C61.4435 98.4763 61.4675 98.2083 61.4835 98.0123C61.4885 97.9177 61.5032 97.8239 61.5275 97.7323Z" fill="#455A64"/>
<path id="Vector_214" d="M69.5598 98.0007C69.4949 98.0194 69.4273 98.0275 69.3598 98.0247L68.7838 98.0527C68.2798 98.0767 67.5518 98.0967 66.6518 98.1087C64.8558 98.1407 62.3718 98.1367 59.6278 98.0607C56.8838 97.9847 54.4038 97.8487 52.6118 97.7167C51.7158 97.6527 51.0118 97.5927 50.4918 97.5447L49.9158 97.4807C49.8477 97.4787 49.7803 97.4666 49.7158 97.4447C49.7823 97.4377 49.8493 97.4377 49.9158 97.4447L50.4958 97.4647L52.6198 97.5727C54.4158 97.6647 56.8958 97.7807 59.6358 97.8567C62.3758 97.9327 64.8358 97.9567 66.6518 97.9647H68.7798H69.3598C69.4279 97.967 69.4952 97.9792 69.5598 98.0007Z" fill="#455A64"/>
<path id="Vector_215" d="M63.0562 97.6367C63.0753 97.863 63.0753 98.0905 63.0562 98.3167C63.0562 98.7887 63.0202 99.4127 62.9922 100.169C62.9322 101.729 62.8362 103.889 62.7162 106.273C62.6522 107.473 62.6042 108.597 62.5242 109.637C62.4839 110.566 62.2452 111.476 61.8242 112.305C61.5287 112.864 61.0861 113.331 60.5442 113.657C60.3977 113.742 60.2421 113.81 60.0802 113.861C59.9682 113.893 59.9082 113.905 59.9082 113.897C60.1124 113.804 60.3113 113.699 60.5042 113.585C61.0133 113.246 61.4266 112.782 61.7042 112.237C62.0932 111.417 62.311 110.527 62.3442 109.621C62.4122 108.593 62.4522 107.453 62.5162 106.261C62.6362 103.861 62.7562 101.721 62.8562 100.161C62.9082 99.4047 62.9482 98.7847 62.9802 98.3127C62.9865 98.0857 63.0119 97.8595 63.0562 97.6367Z" fill="#455A64"/>
<path id="Vector_216" d="M52.7718 102.072C52.7933 102.226 52.7933 102.382 52.7718 102.536C52.7388 102.958 52.6652 103.376 52.5518 103.784C52.1764 105.139 51.4378 106.366 50.4158 107.332C49.3829 108.29 48.1051 108.944 46.7238 109.22C46.3102 109.305 45.8898 109.351 45.4678 109.36C45.3137 109.371 45.159 109.36 45.0078 109.328C45.5744 109.273 46.1378 109.189 46.6958 109.076C48.0333 108.77 49.2657 108.115 50.2677 107.178C51.2696 106.24 52.0053 105.054 52.3998 103.74C52.5532 103.191 52.6774 102.634 52.7718 102.072Z" fill="#455A64"/>
<path id="Vector_217" d="M71.8599 109.601C71.7524 109.591 71.6471 109.564 71.5479 109.521C71.2714 109.428 71.0037 109.31 70.7479 109.169C70.3591 108.962 69.9919 108.717 69.6519 108.437C68.8156 107.751 68.1478 106.882 67.6999 105.897C67.5149 105.498 67.3715 105.081 67.2719 104.653C67.1995 104.366 67.1553 104.073 67.1399 103.777C67.12 103.67 67.12 103.56 67.1399 103.453C67.1759 103.453 67.2119 103.909 67.4119 104.617C67.5309 105.029 67.6834 105.43 67.8679 105.817C68.1011 106.287 68.377 106.734 68.6919 107.153C69.0148 107.565 69.3765 107.946 69.7719 108.289C70.0984 108.568 70.4476 108.82 70.8159 109.041C71.4399 109.417 71.8759 109.569 71.8599 109.601Z" fill="#455A64"/>
<path id="Vector_218" d="M55.8441 103.385C55.8478 103.445 55.8478 103.505 55.8441 103.565C55.8441 103.693 55.8081 103.865 55.7761 104.089C55.7121 104.561 55.6201 105.237 55.5001 106.089C55.2601 107.837 54.8841 110.365 54.3921 113.485C53.4081 119.721 51.9081 128.317 49.9681 137.753C48.0281 147.189 46.0001 155.681 44.4361 161.797C43.6361 164.857 43.0041 167.329 42.5361 169.029C42.3001 169.873 42.1361 170.529 41.9921 170.989C41.9321 171.205 41.8801 171.389 41.8481 171.497C41.8161 171.605 41.7881 171.669 41.7881 171.669L41.8241 171.493C41.8561 171.365 41.9001 171.197 41.9521 170.977C42.0681 170.517 42.2401 169.857 42.4561 169.009C42.9001 167.301 43.5321 164.825 44.2921 161.761C45.8201 155.637 47.8161 147.145 49.7641 137.709C51.7121 128.273 53.2241 119.689 54.2441 113.461C54.7561 110.345 55.1561 107.821 55.4201 106.077C55.5561 105.213 55.6641 104.537 55.7361 104.077C55.7721 103.853 55.8041 103.677 55.8241 103.553C55.8441 103.429 55.8441 103.385 55.8441 103.385Z" fill="#455A64"/>
<path id="Vector_219" d="M63.1602 173.376C63.1602 173.376 63.1602 173.32 63.1602 173.204C63.1602 173.088 63.1802 172.92 63.1962 172.708C63.2322 172.264 63.2882 171.62 63.3562 170.8C63.5042 169.132 63.7202 166.74 63.9842 163.784C64.5122 157.864 65.3402 149.688 65.9842 140.636C66.2922 136.112 66.5042 131.792 66.5922 127.864C66.6802 123.936 66.6522 120.396 66.5922 117.424C66.5322 114.452 66.3642 112.052 66.2442 110.392C66.1882 109.572 66.1402 108.928 66.1082 108.484C66.1082 108.272 66.0842 108.108 66.0762 107.984C66.0726 107.928 66.0726 107.872 66.0762 107.816C66.0893 107.871 66.0974 107.928 66.1002 107.984C66.1002 108.104 66.1322 108.268 66.1522 108.48C66.1962 108.924 66.2562 109.568 66.3322 110.384C66.4722 112.044 66.6282 114.444 66.7322 117.42C66.8362 120.396 66.8682 123.936 66.7882 127.868C66.7082 131.8 66.5042 136.124 66.1962 140.668C65.5722 149.724 64.7202 157.896 64.1562 163.816C63.8642 166.768 63.6282 169.16 63.4602 170.824C63.3762 171.644 63.3082 172.284 63.2602 172.728C63.2362 172.94 63.2202 173.104 63.2042 173.224C63.1953 173.276 63.1805 173.327 63.1602 173.376Z" fill="#455A64"/>
<path id="Vector_220" d="M68.6283 172.444C68.6283 172.5 65.4642 172.896 61.5482 173.328C57.6322 173.76 54.4522 174.064 54.4482 174.008C54.4442 173.952 57.6082 173.552 61.5242 173.12C65.4402 172.688 68.6203 172.4 68.6283 172.444Z" fill="#455A64"/>
</g>
<g id="freepik--Plant--inject-303">
<path id="Vector_221" d="M179.688 177.44C179.669 177.382 179.645 177.326 179.616 177.272L179.388 176.784C179.108 176.151 178.883 175.495 178.716 174.824C178.268 173.084 178.112 170.424 178.772 167.268C179.13 165.547 179.599 163.852 180.176 162.192C180.768 160.392 181.456 158.48 182.02 156.416C182.656 154.26 182.962 152.02 182.928 149.772C182.844 147.42 182.148 145.076 181.384 142.74C180.62 140.404 179.832 138.116 179.592 135.816C179.329 133.602 179.774 131.361 180.864 129.416C181.876 127.548 183.152 125.952 184.104 124.3C184.995 122.768 185.651 121.111 186.052 119.384C186.626 116.881 186.668 114.285 186.176 111.764C185.999 110.844 185.731 109.943 185.376 109.076C185.387 109.136 185.403 109.195 185.424 109.252L185.584 109.768C185.782 110.426 185.948 111.093 186.08 111.768C186.533 114.275 186.465 116.848 185.88 119.328C185.473 121.033 184.815 122.668 183.928 124.18C182.976 125.816 181.696 127.404 180.664 129.292C179.548 131.273 179.089 133.557 179.352 135.816C179.592 138.156 180.388 140.456 181.148 142.792C181.908 145.128 182.6 147.448 182.688 149.756C182.723 151.98 182.424 154.197 181.8 156.332C181.244 158.388 180.564 160.3 179.98 162.108C179.407 163.777 178.946 165.482 178.6 167.212C177.96 170.412 178.14 173.08 178.62 174.812C178.799 175.485 179.04 176.139 179.34 176.768C179.448 176.968 179.528 177.128 179.592 177.248C179.613 177.317 179.646 177.382 179.688 177.44Z" fill="#263238"/>
<path id="Vector_222" d="M182.799 125.936C182.799 125.936 184.735 119.748 181.263 116.12C181.237 116.09 181.202 116.068 181.163 116.057C181.125 116.046 181.084 116.046 181.045 116.057C181.007 116.069 180.972 116.091 180.946 116.121C180.919 116.151 180.902 116.188 180.895 116.228C180.715 117.248 180.487 120.364 182.799 125.936Z" fill="#0872BA"/>
<path id="Vector_223" d="M181.647 118.183C181.654 118.568 181.698 118.951 181.779 119.327C181.907 120.127 182.055 121.035 182.219 122.055C182.383 123.075 182.527 123.999 182.655 124.787C182.688 125.17 182.756 125.549 182.859 125.919C182.894 125.535 182.882 125.149 182.823 124.767C182.759 124.059 182.635 123.087 182.459 122.019C182.283 120.951 182.099 119.987 181.947 119.295C181.889 118.915 181.789 118.542 181.647 118.183Z" fill="#263238"/>
<path id="Vector_224" d="M180.535 140.54C180.535 140.54 179.335 134.164 174.583 132.584C174.546 132.57 174.505 132.566 174.466 132.574C174.427 132.582 174.391 132.601 174.362 132.629C174.334 132.656 174.313 132.692 174.303 132.73C174.294 132.769 174.295 132.81 174.307 132.848C174.623 133.84 175.875 136.7 180.535 140.54Z" fill="#0872BA"/>
<path id="Vector_225" d="M175.884 134.232C176.066 134.57 176.283 134.888 176.532 135.18L178.2 137.388L179.86 139.596C180.067 139.919 180.304 140.222 180.568 140.5C180.421 140.145 180.23 139.809 180 139.5C179.6 138.904 179.048 138.104 178.4 137.24C177.752 136.376 177.132 135.616 176.676 135.072C176.443 134.764 176.178 134.482 175.884 134.232Z" fill="#263238"/>
<path id="Vector_226" d="M181.82 156.543C181.82 156.543 182.54 150.095 178.44 147.199C178.407 147.176 178.369 147.163 178.33 147.16C178.291 147.158 178.251 147.166 178.216 147.184C178.181 147.202 178.152 147.23 178.131 147.263C178.111 147.297 178.1 147.336 178.1 147.375C178.112 148.399 178.48 151.515 181.82 156.543Z" fill="#0872BA"/>
<path id="Vector_227" d="M179.199 149.152C179.276 149.528 179.392 149.895 179.543 150.248L180.499 152.848C180.855 153.816 181.175 154.696 181.447 155.444C181.546 155.813 181.68 156.172 181.847 156.516C181.81 156.132 181.725 155.755 181.595 155.392C181.395 154.708 181.087 153.792 180.711 152.764C180.335 151.736 179.971 150.84 179.687 150.188C179.563 149.826 179.4 149.478 179.199 149.152Z" fill="#263238"/>
<path id="Vector_228" d="M178.232 172.639C178.232 172.639 178.72 166.171 174.516 163.439C174.483 163.417 174.445 163.404 174.406 163.402C174.366 163.4 174.327 163.41 174.293 163.429C174.258 163.448 174.23 163.476 174.211 163.511C174.191 163.545 174.182 163.584 174.184 163.623C174.232 164.647 174.712 167.731 178.232 172.639Z" fill="#0872BA"/>
<path id="Vector_229" d="M175.352 165.347C175.447 165.722 175.581 166.085 175.752 166.431L176.8 168.991C177.2 169.947 177.54 170.815 177.836 171.555C177.957 171.919 178.109 172.271 178.292 172.607C178.24 172.226 178.142 171.853 178 171.495C177.776 170.819 177.436 169.895 177.024 168.899C176.612 167.903 176.224 167.003 175.908 166.363C175.76 166.005 175.574 165.665 175.352 165.347Z" fill="#263238"/>
<path id="Vector_230" d="M185.6 120.496C185.6 120.496 191.352 117.496 191.464 112.476C191.465 112.436 191.456 112.397 191.436 112.362C191.417 112.327 191.388 112.299 191.353 112.279C191.318 112.26 191.279 112.25 191.239 112.252C191.199 112.254 191.161 112.266 191.128 112.288C190.264 112.88 187.896 114.916 185.6 120.496Z" fill="#0872BA"/>
<path id="Vector_231" d="M190.26 114.199C189.991 114.474 189.751 114.775 189.544 115.099L187.924 117.339L186.296 119.575C186.049 119.87 185.83 120.185 185.64 120.519C185.94 120.274 186.208 119.994 186.44 119.683C186.896 119.135 187.496 118.359 188.128 117.483C188.76 116.607 189.328 115.791 189.692 115.195C189.917 114.885 190.107 114.551 190.26 114.199Z" fill="#263238"/>
<path id="Vector_232" d="M179.416 133.795C179.416 133.795 185.34 131.147 185.756 126.143C185.761 126.103 185.754 126.063 185.737 126.027C185.72 125.99 185.692 125.96 185.658 125.939C185.625 125.917 185.585 125.906 185.545 125.906C185.505 125.906 185.466 125.917 185.432 125.939C184.544 126.475 182.056 128.363 179.416 133.795Z" fill="#0872BA"/>
<path id="Vector_233" d="M184.46 127.793C184.174 128.051 183.915 128.338 183.688 128.649L181.936 130.801L180.176 132.937C179.911 133.214 179.673 133.515 179.464 133.837C179.777 133.607 180.059 133.338 180.304 133.037C180.792 132.521 181.44 131.785 182.124 130.945C182.808 130.105 183.404 129.345 183.824 128.757C184.072 128.461 184.285 128.137 184.46 127.793Z" fill="#263238"/>
<path id="Vector_234" d="M182.824 148.628C182.824 148.628 186.892 143.572 184.984 138.928C184.971 138.886 184.947 138.85 184.913 138.822C184.88 138.795 184.839 138.778 184.796 138.774C184.753 138.77 184.709 138.779 184.672 138.8C184.634 138.821 184.603 138.853 184.584 138.892C184.056 139.776 182.7 142.592 182.824 148.628Z" fill="#0872BA"/>
<path id="Vector_235" d="M184.58 140.988C184.444 141.348 184.345 141.72 184.284 142.1C184.116 142.876 183.916 143.792 183.696 144.8L183.1 147.5C182.991 147.868 182.917 148.246 182.88 148.628C183.056 148.284 183.19 147.92 183.28 147.544C183.476 146.864 183.716 145.912 183.944 144.852C184.172 143.792 184.344 142.832 184.464 142.132C184.544 141.756 184.583 141.372 184.58 140.988Z" fill="#263238"/>
<path id="Vector_236" d="M178.8 166.083C178.8 166.083 184.676 163.335 185.012 158.327C185.015 158.288 185.007 158.248 184.988 158.213C184.97 158.177 184.943 158.148 184.909 158.127C184.875 158.106 184.836 158.095 184.796 158.095C184.757 158.095 184.718 158.106 184.684 158.127C183.8 158.679 181.344 160.607 178.8 166.083Z" fill="#0872BA"/>
<path id="Vector_237" d="M183.736 160C183.458 160.265 183.206 160.556 182.984 160.868L181.264 163.036L179.54 165.196C179.281 165.48 179.048 165.787 178.844 166.112C179.15 165.879 179.428 165.611 179.672 165.312C180.152 164.788 180.784 164.04 181.456 163.192C182.128 162.344 182.712 161.552 183.12 160.976C183.361 160.675 183.568 160.348 183.736 160Z" fill="#263238"/>
<path id="Vector_238" d="M167.088 140.576C167.081 140.624 167.081 140.672 167.088 140.72C167.088 140.832 167.088 140.968 167.088 141.12C167.088 141.52 167.128 142.036 167.16 142.692C167.236 144.076 167.34 146.004 167.468 148.292C167.888 150.636 169.068 153.24 170.688 155.768C171.868 157.628 173.088 159.32 174.168 160.892C175.146 162.282 176.025 163.739 176.8 165.252C177.295 166.262 177.696 167.316 178 168.4C178.1 168.8 178.18 169.092 178.224 169.3C178.242 169.406 178.271 169.511 178.308 169.612C178.309 169.503 178.297 169.394 178.272 169.288C178.244 169.08 178.18 168.772 178.088 168.38C177.812 167.277 177.425 166.204 176.932 165.18C176.181 163.665 175.32 162.208 174.356 160.82C173.3 159.22 172.072 157.54 170.9 155.688C169.3 153.176 168.1 150.612 167.676 148.304C167.516 146 167.38 144.072 167.276 142.704C167.224 142.048 167.18 141.524 167.148 141.136C167.148 140.968 167.12 140.832 167.108 140.736C167.096 140.64 167.096 140.576 167.088 140.576Z" fill="#263238"/>
<path id="Vector_239" d="M170.587 155.332C170.587 155.332 168.099 149.332 171.231 145.416C171.255 145.384 171.288 145.359 171.325 145.344C171.362 145.33 171.403 145.326 171.442 145.334C171.482 145.341 171.518 145.36 171.547 145.387C171.576 145.414 171.597 145.45 171.607 145.488C171.883 146.488 172.399 149.568 170.587 155.332Z" fill="#0872BA"/>
<path id="Vector_240" d="M171.043 147.504C170.932 147.872 170.865 148.252 170.843 148.636C170.755 149.34 170.659 150.316 170.579 151.396C170.499 152.476 170.467 153.456 170.467 154.168C170.443 154.552 170.466 154.937 170.535 155.316C170.605 154.938 170.64 154.555 170.639 154.172C170.691 153.372 170.755 152.444 170.823 151.412C170.891 150.38 170.959 149.448 171.015 148.652C171.062 148.271 171.071 147.886 171.043 147.504Z" fill="#263238"/>
<g id="Group_5" opacity="0.3">
<path id="Vector_241" d="M170.587 155.332C170.587 155.332 168.099 149.332 171.231 145.416C171.255 145.384 171.288 145.359 171.325 145.344C171.362 145.33 171.403 145.326 171.442 145.334C171.482 145.341 171.518 145.36 171.547 145.387C171.576 145.414 171.597 145.45 171.607 145.488C171.883 146.488 172.399 149.568 170.587 155.332Z" fill="black"/>
</g>
<path id="Vector_242" d="M178.299 169.768C178.299 169.768 176.299 163.596 179.743 159.936C179.77 159.908 179.805 159.887 179.843 159.877C179.881 159.866 179.921 159.866 179.959 159.877C179.996 159.888 180.031 159.909 180.058 159.937C180.084 159.966 180.103 160.002 180.111 160.04C180.307 161.06 180.567 164.172 178.299 169.768Z" fill="#0872BA"/>
<path id="Vector_243" d="M179.384 162C179.247 162.359 179.15 162.732 179.096 163.112C178.952 163.808 178.776 164.772 178.608 165.84C178.44 166.908 178.328 167.888 178.272 168.596C178.217 168.976 178.209 169.362 178.248 169.744C178.348 169.374 178.414 168.995 178.444 168.612C178.56 167.812 178.696 166.9 178.844 165.88L179.244 163.144C179.33 162.769 179.377 162.385 179.384 162Z" fill="#263238"/>
<g id="Group_6" opacity="0.3">
<path id="Vector_244" d="M178.299 169.768C178.299 169.768 176.299 163.596 179.743 159.936C179.77 159.908 179.805 159.887 179.843 159.877C179.881 159.866 179.921 159.866 179.959 159.877C179.996 159.888 180.031 159.909 180.058 159.937C180.084 159.966 180.103 160.002 180.111 160.04C180.307 161.06 180.567 164.172 178.299 169.768Z" fill="black"/>
</g>
<path id="Vector_245" d="M167.42 148C167.42 148 162.104 144.28 162.64 139.288C162.644 139.249 162.659 139.212 162.683 139.18C162.707 139.149 162.739 139.125 162.775 139.11C162.812 139.096 162.852 139.092 162.891 139.098C162.929 139.105 162.966 139.122 162.996 139.148C163.768 139.852 165.856 142.176 167.42 148Z" fill="#0872BA"/>
<g id="Group_7" opacity="0.3">
<path id="Vector_246" d="M167.42 148C167.42 148 162.104 144.28 162.64 139.288C162.644 139.249 162.659 139.212 162.683 139.18C162.707 139.149 162.739 139.125 162.775 139.11C162.812 139.096 162.852 139.092 162.891 139.098C162.929 139.105 162.966 139.122 162.996 139.148C163.768 139.852 165.856 142.176 167.42 148Z" fill="black"/>
</g>
<path id="Vector_247" d="M163.6 141.16C163.704 141.531 163.852 141.888 164.04 142.224C164.344 142.864 164.784 143.74 165.296 144.692C165.808 145.644 166.308 146.492 166.688 147.092C166.874 147.429 167.101 147.742 167.364 148.024C167.219 147.669 167.042 147.327 166.836 147.004C166.436 146.304 166.004 145.484 165.512 144.576L164.192 142.144C164.028 141.797 163.829 141.467 163.6 141.16Z" fill="#263238"/>
<path id="Vector_248" d="M176.155 163.648C176.155 163.648 169.755 162.648 168.027 157.932C168.013 157.895 168.01 157.854 168.018 157.815C168.025 157.776 168.043 157.74 168.07 157.711C168.097 157.681 168.132 157.66 168.17 157.649C168.208 157.638 168.249 157.638 168.287 157.648C169.283 157.932 172.179 159.104 176.155 163.648Z" fill="#0872BA"/>
<g id="Group_8" opacity="0.3">
<path id="Vector_249" d="M176.155 163.648C176.155 163.648 169.755 162.648 168.027 157.932C168.013 157.895 168.01 157.854 168.018 157.815C168.025 157.776 168.043 157.74 168.07 157.711C168.097 157.681 168.132 157.66 168.17 157.649C168.208 157.638 168.249 157.638 168.287 157.648C169.283 157.932 172.179 159.104 176.155 163.648Z" fill="black"/>
</g>
<path id="Vector_250" d="M169.712 159.199C169.969 159.485 170.259 159.74 170.576 159.959C171.132 160.403 171.912 160.995 172.792 161.623C173.672 162.251 174.492 162.795 175.1 163.163C175.414 163.386 175.756 163.567 176.116 163.703C175.83 163.444 175.524 163.208 175.2 162.999C174.548 162.543 173.784 162.003 172.944 161.399L170.688 159.799C170.383 159.568 170.056 159.367 169.712 159.199Z" fill="#263238"/>
<path id="Vector_251" d="M183.74 175.443L181.9 187.503L174.56 187.491L172.084 175.443H183.74Z" fill="#455A64"/>
<path id="Vector_252" d="M177.039 179.316C177.239 179.016 177.356 178.668 177.379 178.308C177.4 178.106 177.364 177.902 177.275 177.719C177.187 177.537 177.05 177.382 176.879 177.272C176.685 177.176 176.468 177.135 176.251 177.152C176.035 177.17 175.828 177.246 175.651 177.372C175.284 177.638 175.032 178.035 174.947 178.48C174.758 179.4 174.829 180.354 175.151 181.236C175.334 181.699 175.626 182.111 176.003 182.436C176.395 182.785 176.892 182.994 177.415 183.028C177.938 183.038 178.451 182.889 178.887 182.6C179.307 182.335 179.677 181.999 179.983 181.608C180.299 181.234 180.493 180.772 180.539 180.284C180.558 180.046 180.521 179.806 180.431 179.584C180.34 179.363 180.199 179.165 180.019 179.008C179.833 178.87 179.61 178.789 179.379 178.775C179.148 178.761 178.917 178.814 178.715 178.928C178.523 179.023 178.355 179.161 178.225 179.332C178.095 179.503 178.007 179.701 177.967 179.912C177.912 180.287 177.971 180.669 178.136 181.009C178.302 181.35 178.566 181.632 178.895 181.82C179.437 182.113 180.065 182.204 180.667 182.076C181.113 181.983 181.54 181.817 181.931 181.584C182.175 181.438 182.41 181.277 182.635 181.104C182.717 181.047 182.793 180.983 182.863 180.912C182.775 180.956 182.692 181.01 182.615 181.072C182.451 181.176 182.215 181.34 181.891 181.512C181.504 181.729 181.084 181.882 180.647 181.964C180.073 182.075 179.478 181.98 178.967 181.696C178.669 181.521 178.43 181.26 178.281 180.948C178.132 180.636 178.08 180.286 178.131 179.944C178.166 179.759 178.245 179.584 178.36 179.435C178.476 179.285 178.625 179.165 178.795 179.084C178.967 178.987 179.163 178.942 179.359 178.954C179.556 178.966 179.745 179.035 179.903 179.152C180.059 179.292 180.18 179.467 180.257 179.662C180.334 179.857 180.365 180.067 180.347 180.276C180.298 180.719 180.117 181.137 179.827 181.476C179.533 181.847 179.179 182.166 178.779 182.42C178.379 182.686 177.908 182.825 177.427 182.82C176.948 182.786 176.494 182.595 176.135 182.276C175.78 181.968 175.506 181.578 175.335 181.14C175.171 180.714 175.073 180.264 175.047 179.808C175.011 179.372 175.038 178.933 175.127 178.504C175.198 178.103 175.42 177.743 175.747 177.5C175.896 177.389 176.072 177.321 176.257 177.303C176.441 177.285 176.627 177.317 176.795 177.396C176.942 177.49 177.06 177.622 177.136 177.779C177.211 177.936 177.242 178.111 177.223 178.284C177.205 178.617 177.1 178.94 176.919 179.22C176.585 179.7 176.105 180.059 175.551 180.244C175.132 180.391 174.685 180.445 174.243 180.4C173.867 180.351 173.502 180.243 173.159 180.08L173.223 180.124C173.285 180.164 173.349 180.2 173.415 180.232C173.667 180.357 173.937 180.441 174.215 180.48C174.67 180.539 175.132 180.495 175.567 180.352C176.153 180.166 176.662 179.796 177.019 179.296" fill="#263238"/>
</g>
</g>
</svg>
