<svg width="39" height="38" viewBox="0 0 39 38" fill="none" xmlns="http://www.w3.org/2000/svg">
<g id="Group">
<path id="Vector" d="M15.7374 20.1228C10.2598 20.1228 5.80298 15.6567 5.80298 10.1676C5.80298 4.67861 10.2598 0.212463 15.7374 0.212463C21.215 0.212463 25.6719 4.67861 25.6719 10.1676C25.6719 15.6567 21.215 20.1228 15.7374 20.1228ZM15.7374 2.70126C11.6283 2.70126 8.28659 6.04993 8.28659 10.1676C8.28659 14.2854 11.6283 17.634 15.7374 17.634C19.8466 17.634 23.1883 14.2854 23.1883 10.1676C23.1883 6.04993 19.8466 2.70126 15.7374 2.70126Z" fill="#0872BA"/>
<path id="Vector_2" d="M28.7768 37.5444H0.836182V32.5668C0.836182 24.3326 7.52082 17.634 15.7378 17.634C19.0485 17.634 22.1791 18.6955 24.7894 20.7027L26.1106 21.7206L24.7596 22.6987C23.89 23.3301 23.1819 24.1587 22.693 25.1168C22.2042 26.0749 21.9485 27.1353 21.9469 28.2114C21.9469 31.9856 25.0116 35.0556 28.7768 35.0556V37.5444ZM3.31979 35.0556H22.451C21.5084 34.1834 20.7562 33.1249 20.242 31.947C19.7278 30.769 19.4626 29.4971 19.4633 28.2114C19.4633 25.8197 20.3921 23.53 22.009 21.8202C20.1085 20.7007 17.9423 20.1144 15.7378 20.1228C8.89053 20.1228 3.31979 25.7052 3.31979 32.5668V35.0556ZM29.3977 37.5444H28.7768V35.0556H28.8861C28.9122 35.0558 28.9384 35.0541 28.9643 35.0506L29.1071 35.0344L29.2487 35.0518C29.261 35.0543 29.2734 35.0555 29.2859 35.0556H29.3977V37.5444Z" fill="#0872BA"/>
<path id="Vector_3" d="M28.7764 37.5444C23.6403 37.5444 19.4629 33.3582 19.4629 28.2114C19.4649 26.7415 19.8141 25.293 20.4818 23.9843C21.1496 22.6755 22.1171 21.5438 23.305 20.6816L23.4131 20.6032C25.046 19.4509 26.869 18.8784 28.7764 18.8784C33.9125 18.8784 38.09 23.0646 38.09 28.2114C38.0992 30.6249 37.1708 32.9474 35.5013 34.687C33.8318 36.4266 31.5523 37.447 29.1452 37.532C29.0745 37.5419 28.9341 37.5444 28.7764 37.5444ZM24.0501 21.6758L24.8002 22.6689C23.9204 23.3001 23.2029 24.1319 22.7067 25.0955C22.2106 26.0591 21.95 27.1271 21.9465 28.2114C21.9465 31.9857 25.0113 35.0556 28.7764 35.0556C28.8435 35.0556 28.9006 35.0556 28.9639 35.0506C32.7279 34.9063 35.6064 31.9048 35.6064 28.2114C35.6064 24.4372 32.5416 21.3672 28.7764 21.3672C27.4016 21.3617 26.0586 21.7824 24.9318 22.5718L24.0501 21.6758Z" fill="#0872BA"/>
<path id="Vector_4" d="M27.9425 28.6195L26.1866 26.86L24.4307 28.6195L26.1866 30.3804L27.0645 31.2602L27.9425 32.1399L33.2115 26.86L31.4556 25.1004L27.9425 28.6195Z" fill="#0872BA"/>
</g>
</svg>
