<svg width="24" height="24" viewBox="0 0 24 24" fill="none" xmlns="http://www.w3.org/2000/svg">
<g id="instagram 1">
<g id="Group">
<path id="Vector" d="M12 22.5469C17.8249 22.5469 22.5469 17.8249 22.5469 12C22.5469 6.17512 17.8249 1.45312 12 1.45312C6.17512 1.45312 1.45312 6.17512 1.45312 12C1.45312 17.8249 6.17512 22.5469 12 22.5469Z" fill="url(#paint0_linear_1_70)"/>
<g id="Group_2">
<path id="Vector_2" d="M14.2406 6.14062H9.76401C7.76714 6.14062 6.14526 7.7625 6.14526 9.75937V14.2359C6.14526 16.2328 7.76714 17.8547 9.76401 17.8547H14.2406C16.2374 17.8547 17.8593 16.2328 17.8593 14.2359V9.75937C17.8593 7.7625 16.2374 6.14062 14.2406 6.14062ZM16.5515 14.2406C16.5515 15.5156 15.5156 16.5562 14.2359 16.5562H9.75933C8.48433 16.5562 7.4437 15.5203 7.4437 14.2406V9.76406C7.4437 8.48906 8.47964 7.44844 9.75933 7.44844H14.2359C15.5109 7.44844 16.5515 8.48438 16.5515 9.76406V14.2406Z" fill="white"/>
<path id="Vector_3" d="M12 9.00391C10.35 9.00391 9.00464 10.3492 9.00464 11.9992C9.00464 13.6492 10.35 14.9945 12 14.9945C13.65 14.9945 14.9953 13.6492 14.9953 11.9992C14.9953 10.3492 13.65 9.00391 12 9.00391ZM12 13.818C10.9968 13.818 10.1812 13.0023 10.1812 11.9992C10.1812 10.9961 10.9968 10.1805 12 10.1805C13.0031 10.1805 13.8187 10.9961 13.8187 11.9992C13.8187 13.0023 13.0031 13.818 12 13.818Z" fill="white"/>
<path id="Vector_4" d="M15.2234 9.3324C15.4994 9.28766 15.6868 9.02769 15.6421 8.75173C15.5974 8.47577 15.3374 8.28833 15.0614 8.33306C14.7855 8.3778 14.598 8.63777 14.6428 8.91373C14.6875 9.18969 14.9475 9.37713 15.2234 9.3324Z" fill="white"/>
</g>
</g>
</g>
<defs>
<linearGradient id="paint0_linear_1_70" x1="3.96933" y1="20.0307" x2="18.9576" y2="5.04239" gradientUnits="userSpaceOnUse">
<stop stop-color="#FEE411"/>
<stop offset="0.0518459" stop-color="#FEDB16"/>
<stop offset="0.1381" stop-color="#FEC125"/>
<stop offset="0.2481" stop-color="#FE983D"/>
<stop offset="0.3762" stop-color="#FE5F5E"/>
<stop offset="0.5" stop-color="#FE2181"/>
<stop offset="1" stop-color="#9000DC"/>
</linearGradient>
</defs>
</svg>
