<svg width="24" height="24" viewBox="0 0 24 24" fill="none" xmlns="http://www.w3.org/2000/svg">
<g id="linkedin 1" clip-path="url(#clip0_1_77)">
<g id="Group">
<path id="Vector" d="M12 23.9998C18.6274 23.9998 24 18.6272 24 11.9998C24 5.37234 18.6274 -0.000244141 12 -0.000244141C5.37258 -0.000244141 0 5.37234 0 11.9998C0 18.6272 5.37258 23.9998 12 23.9998Z" fill="#007AB9"/>
<g id="Group_2">
<path id="Vector_2" d="M19.1698 12.9648V17.9122H16.3014V13.2964C16.3014 12.1374 15.8873 11.346 14.8488 11.346C14.0562 11.346 13.5854 11.8788 13.3775 12.3948C13.302 12.5792 13.2825 12.8352 13.2825 13.0938V17.912H10.4139C10.4139 17.912 10.4525 10.0944 10.4139 9.28515H13.2827V10.5076C13.2769 10.5173 13.2688 10.5267 13.2637 10.5359H13.2827V10.5076C13.6639 9.9211 14.3437 9.08257 15.8678 9.08257C17.755 9.08257 19.1698 10.3156 19.1698 12.9648ZM7.4132 5.12671C6.43199 5.12671 5.79004 5.7708 5.79004 6.61703C5.79004 7.44529 6.41338 8.10799 7.37555 8.10799H7.39416C8.39462 8.10799 9.01668 7.44529 9.01668 6.61703C8.99764 5.7708 8.39462 5.12671 7.4132 5.12671ZM5.96053 17.9122H8.82801V9.28515H5.96053V17.9122Z" fill="#F1F2F2"/>
</g>
</g>
</g>
<defs>
<clipPath id="clip0_1_77">
<rect width="24" height="24" fill="white"/>
</clipPath>
</defs>
</svg>
