<svg width="83" height="83" viewBox="0 0 83 83" fill="none" xmlns="http://www.w3.org/2000/svg">
<g id="World-bro 1">
<g id="freepik--background-simple--inject-3">
<path id="Vector" d="M15.6801 49.9006C15.6801 49.9006 20.2817 60.8566 28.0986 66.6467C35.9155 72.4368 46.43 72.6078 54.6453 66.5919C62.8607 60.5761 62.6382 48.1659 68.2457 38.1097C73.8532 28.0534 73.5809 16.5844 63.44 11.0998C53.2991 5.61517 48.9133 12.7598 36.7289 13.3375C24.5445 13.9152 6.0953 24.091 15.6801 49.9006Z" fill="#0872BA"/>
<path id="Vector_2" opacity="0.7" d="M15.6801 49.9006C15.6801 49.9006 20.2817 60.8566 28.0986 66.6467C35.9155 72.4368 46.43 72.6078 54.6453 66.5919C62.8607 60.5761 62.6382 48.1659 68.2457 38.1097C73.8532 28.0534 73.5809 16.5844 63.44 11.0998C53.2991 5.61517 48.9133 12.7598 36.7289 13.3375C24.5445 13.9152 6.0953 24.091 15.6801 49.9006Z" fill="white"/>
</g>
<g id="freepik--Plants--inject-3">
<path id="Vector_3" d="M19.8655 56.882C19.6298 57.639 19.2762 57.0746 19.0704 53.9986C18.9725 52.556 18.8297 49.6062 20.4764 50.1208C22.0584 50.6188 20.4034 55.134 20.4034 55.134L19.8655 56.882ZM22.0899 57.136C22.0899 57.136 25.1228 53.401 23.7865 52.4183C22.397 51.3957 21.5737 54.2326 21.1969 55.6287C20.3934 58.6051 20.5445 59.2541 21.0143 58.6167L22.0899 57.136ZM23.0461 60.1821C23.0461 60.1821 25.9063 57.7668 25.0281 56.8222C24.1135 55.8395 23.0727 57.888 22.583 58.9006C21.5372 61.0586 21.5587 61.5781 22.0103 61.1565L23.0461 60.1821ZM24.1268 63.2099C24.1268 63.2099 26.9869 60.793 26.1071 59.8484C25.1941 58.8657 24.1533 60.9158 23.6636 61.9284C22.6178 64.0864 22.6394 64.6043 23.0909 64.1843L24.1268 63.2099ZM18.3018 57.4348C18.3018 57.4348 13.8646 55.5739 13.2986 57.131C12.7076 58.7512 15.6608 58.7445 17.1066 58.7146C20.1892 58.6482 20.7686 58.3212 20.0232 58.0506L18.3018 57.4348ZM19.1036 59.8219C19.1036 59.8219 14.3842 58.8806 14.1385 60.5191C13.8829 62.2255 16.7763 61.6313 18.1856 61.3125C21.1935 60.6369 21.6965 60.2003 20.9113 60.0841L19.1036 59.8219ZM20.3785 62.3915C20.3785 62.3915 16.3663 61.7043 16.1969 63.0954C16.0193 64.5446 18.4529 63.9752 19.6365 63.6731C22.1646 63.0323 22.5813 62.6522 21.914 62.5708L20.3785 62.3915ZM21.1753 64.5329C21.1753 64.5329 17.2643 63.4108 16.9423 64.7819C16.6103 66.2029 19.1003 65.8958 20.3021 65.7215C22.8834 65.3513 23.3366 65.0177 22.6826 64.8666L21.1753 64.5329ZM17.7109 53.6334C17.7109 53.6334 15.5296 48.3878 13.6422 49.5299C11.6784 50.7184 14.2464 52.9528 15.528 54.0119C18.2587 56.2844 19.0555 56.394 18.6504 55.5557L17.7109 53.6334Z" fill="#0872BA"/>
<path id="Vector_4" opacity="0.4" d="M19.8655 56.882C19.6298 57.639 19.2762 57.0746 19.0704 53.9986C18.9725 52.556 18.8297 49.6062 20.4764 50.1208C22.0584 50.6188 20.4034 55.134 20.4034 55.134L19.8655 56.882ZM22.0899 57.136C22.0899 57.136 25.1228 53.401 23.7865 52.4183C22.397 51.3957 21.5737 54.2326 21.1969 55.6287C20.3934 58.6051 20.5445 59.2541 21.0143 58.6167L22.0899 57.136ZM23.0461 60.1821C23.0461 60.1821 25.9063 57.7668 25.0281 56.8222C24.1135 55.8395 23.0727 57.888 22.583 58.9006C21.5372 61.0586 21.5587 61.5781 22.0103 61.1565L23.0461 60.1821ZM24.1268 63.2099C24.1268 63.2099 26.9869 60.793 26.1071 59.8484C25.1941 58.8657 24.1533 60.9158 23.6636 61.9284C22.6178 64.0864 22.6394 64.6043 23.0909 64.1843L24.1268 63.2099ZM18.3018 57.4348C18.3018 57.4348 13.8646 55.5739 13.2986 57.131C12.7076 58.7512 15.6608 58.7445 17.1066 58.7146C20.1892 58.6482 20.7686 58.3212 20.0232 58.0506L18.3018 57.4348ZM19.1036 59.8219C19.1036 59.8219 14.3842 58.8806 14.1385 60.5191C13.8829 62.2255 16.7763 61.6313 18.1856 61.3125C21.1935 60.6369 21.6965 60.2003 20.9113 60.0841L19.1036 59.8219ZM20.3785 62.3915C20.3785 62.3915 16.3663 61.7043 16.1969 63.0954C16.0193 64.5446 18.4529 63.9752 19.6365 63.6731C22.1646 63.0323 22.5813 62.6522 21.914 62.5708L20.3785 62.3915ZM21.1753 64.5329C21.1753 64.5329 17.2643 63.4108 16.9423 64.7819C16.6103 66.2029 19.1003 65.8958 20.3021 65.7215C22.8834 65.3513 23.3366 65.0177 22.6826 64.8666L21.1753 64.5329ZM17.7109 53.6334C17.7109 53.6334 15.5296 48.3878 13.6422 49.5299C11.6784 50.7184 14.2464 52.9528 15.528 54.0119C18.2587 56.2844 19.0555 56.394 18.6504 55.5557L17.7109 53.6334Z" fill="white"/>
<path id="Vector_5" d="M14.6248 51.375C14.6248 51.375 19.4205 56.3268 20.6821 58.8998C22.1329 61.8562 23.2219 65.309 23.6203 68.146" stroke="#0872BA" stroke-width="1.25197" stroke-linecap="round" stroke-linejoin="round"/>
<path id="Vector_6" d="M19.6729 57.2369L19.8571 52.1191" stroke="#0872BA" stroke-width="1.25197" stroke-linecap="round" stroke-linejoin="round"/>
<path id="Vector_7" d="M20.6824 58.8997L22.52 54.4592" stroke="#0872BA" stroke-width="1.25197" stroke-linecap="round" stroke-linejoin="round"/>
<path id="Vector_8" d="M20.3101 58.293L15.6455 57.7402" stroke="#0872BA" stroke-width="1.25197" stroke-linecap="round" stroke-linejoin="round"/>
<path id="Vector_9" d="M21.7446 61.244L24.1881 57.9473" stroke="#0872BA" stroke-width="1.25197" stroke-linecap="round" stroke-linejoin="round"/>
<path id="Vector_10" d="M21.2844 60.2617L17.8184 60.519" stroke="#0872BA" stroke-width="1.25197" stroke-linecap="round" stroke-linejoin="round"/>
<path id="Vector_11" d="M22.1594 62.7227L19.5117 63.048" stroke="#0872BA" stroke-width="1.25197" stroke-linecap="round" stroke-linejoin="round"/>
<path id="Vector_12" d="M22.8384 64.2812L24.1033 62.2676" stroke="#0872BA" stroke-width="1.25197" stroke-linecap="round" stroke-linejoin="round"/>
<path id="Vector_13" d="M23.001 64.9785L19.8818 65.0814" stroke="#0872BA" stroke-width="1.25197" stroke-linecap="round" stroke-linejoin="round"/>
<path id="Vector_14" d="M66.214 59.0424C65.208 59.1188 65.716 58.4365 69.2468 56.75C70.9068 55.9582 74.3248 54.4061 74.4874 56.5939C74.6435 58.6938 68.5297 58.8565 68.5297 58.8565L66.214 59.0424ZM66.956 61.7881C66.956 61.7881 72.7909 63.6141 73.3254 61.5823C73.8815 59.4608 70.1432 59.8177 68.3189 60.0268C64.4245 60.4734 63.729 60.9564 64.7051 61.2104L66.956 61.7881ZM63.802 64.3478C63.802 64.3478 67.9985 66.5938 68.7023 65.1131C69.4344 63.5726 66.5244 63.3037 65.0985 63.1991C62.0574 62.9767 61.4564 63.2456 62.1653 63.5809L63.802 64.3478ZM60.731 67.0436C60.731 67.0436 64.9275 69.2896 65.6313 67.8089C66.3634 66.2684 63.4534 65.9995 62.0291 65.8949C58.9864 65.6725 58.3854 65.9398 59.0943 66.2767L60.731 67.0436ZM64.8329 57.4488C64.8329 57.4488 64.9524 51.3351 62.8409 51.3948C60.648 51.4579 62.0424 54.9439 62.7562 56.6371C64.2784 60.2493 64.9375 60.7871 64.9142 59.7712L64.8329 57.4488ZM62.3894 59.5155C62.3894 59.5155 61.2888 53.4997 59.2354 53.9761C57.0989 54.4741 59.159 57.6149 60.1948 59.1221C62.4043 62.3591 63.1563 62.7492 62.9255 61.7682L62.3894 59.5155ZM59.9508 62.228C59.9508 62.228 58.8818 57.165 57.157 57.6165C55.3626 58.0863 57.177 60.6941 58.0883 61.9524C60.0322 64.6383 60.6762 64.952 60.4588 64.127L59.9508 62.228ZM57.7928 64.1735C57.7928 64.1735 57.2666 59.0275 55.5053 59.2914C53.671 59.5687 55.1966 62.3541 55.9701 63.7021C57.6185 66.5805 58.2244 66.959 58.0966 66.1157L57.7928 64.1735ZM69.0559 54.9672C69.0559 54.9672 74.2301 49.9324 71.9958 48.2375C69.6718 46.4746 68.2359 50.5615 67.5785 52.5684C66.1742 56.8629 66.4165 57.8539 67.22 56.9824L69.0559 54.9672Z" fill="#0872BA"/>
<path id="Vector_15" opacity="0.4" d="M66.214 59.0424C65.208 59.1188 65.716 58.4365 69.2468 56.75C70.9068 55.9582 74.3248 54.4061 74.4874 56.5939C74.6435 58.6938 68.5297 58.8565 68.5297 58.8565L66.214 59.0424ZM66.956 61.7881C66.956 61.7881 72.7909 63.6141 73.3254 61.5823C73.8815 59.4608 70.1432 59.8177 68.3189 60.0268C64.4245 60.4734 63.729 60.9564 64.7051 61.2104L66.956 61.7881ZM63.802 64.3478C63.802 64.3478 67.9985 66.5938 68.7023 65.1131C69.4344 63.5726 66.5244 63.3037 65.0985 63.1991C62.0574 62.9767 61.4564 63.2456 62.1653 63.5809L63.802 64.3478ZM60.731 67.0436C60.731 67.0436 64.9275 69.2896 65.6313 67.8089C66.3634 66.2684 63.4534 65.9995 62.0291 65.8949C58.9864 65.6725 58.3854 65.9398 59.0943 66.2767L60.731 67.0436ZM64.8329 57.4488C64.8329 57.4488 64.9524 51.3351 62.8409 51.3948C60.648 51.4579 62.0424 54.9439 62.7562 56.6371C64.2784 60.2493 64.9375 60.7871 64.9142 59.7712L64.8329 57.4488ZM62.3894 59.5155C62.3894 59.5155 61.2888 53.4997 59.2354 53.9761C57.0989 54.4741 59.159 57.6149 60.1948 59.1221C62.4043 62.3591 63.1563 62.7492 62.9255 61.7682L62.3894 59.5155ZM59.9508 62.228C59.9508 62.228 58.8818 57.165 57.157 57.6165C55.3626 58.0863 57.177 60.6941 58.0883 61.9524C60.0322 64.6383 60.6762 64.952 60.4588 64.127L59.9508 62.228ZM57.7928 64.1735C57.7928 64.1735 57.2666 59.0275 55.5053 59.2914C53.671 59.5687 55.1966 62.3541 55.9701 63.7021C57.6185 66.5805 58.2244 66.959 58.0966 66.1157L57.7928 64.1735ZM69.0559 54.9672C69.0559 54.9672 74.2301 49.9324 71.9958 48.2375C69.6718 46.4746 68.2359 50.5615 67.5785 52.5684C66.1742 56.8629 66.4165 57.8539 67.22 56.9824L69.0559 54.9672Z" fill="white"/>
<path id="Vector_16" d="M70.2648 50.2676C70.2648 50.2676 66.6626 58.2555 64.2141 60.953C61.402 64.0539 57.8314 66.9589 54.6658 68.755" stroke="#0872BA" stroke-width="1.25197" stroke-linecap="round" stroke-linejoin="round"/>
<path id="Vector_17" d="M65.7046 58.9801L71.8383 56.7988" stroke="#0872BA" stroke-width="1.25197" stroke-linecap="round" stroke-linejoin="round"/>
<path id="Vector_18" d="M64.2141 60.9531L70.3229 61.0428" stroke="#0872BA" stroke-width="1.25197" stroke-linecap="round" stroke-linejoin="round"/>
<path id="Vector_19" d="M64.7534 60.2288L63.2212 54.457" stroke="#0872BA" stroke-width="1.25197" stroke-linecap="round" stroke-linejoin="round"/>
<path id="Vector_20" d="M61.9414 63.3086L66.9828 64.6482" stroke="#0872BA" stroke-width="1.25197" stroke-linecap="round" stroke-linejoin="round"/>
<path id="Vector_21" d="M62.8857 62.3038L60.9551 58.3281" stroke="#0872BA" stroke-width="1.25197" stroke-linecap="round" stroke-linejoin="round"/>
<path id="Vector_22" d="M60.3891 64.4906L58.7639 61.5159" stroke="#0872BA" stroke-width="1.25197" stroke-linecap="round" stroke-linejoin="round"/>
<path id="Vector_23" d="M58.8657 66.0234L61.8388 66.5746" stroke="#0872BA" stroke-width="1.25197" stroke-linecap="round" stroke-linejoin="round"/>
<path id="Vector_24" d="M58.1188 66.5414L56.5352 62.9043" stroke="#0872BA" stroke-width="1.25197" stroke-linecap="round" stroke-linejoin="round"/>
<path id="Vector_25" d="M52.1989 59.696C51.8669 60.2023 51.7258 59.7143 52.2204 57.4102C52.4528 56.3296 52.9691 54.1317 54.0697 54.8571C55.1271 55.5543 52.9608 58.5257 52.9608 58.5257L52.1989 59.696ZM53.7792 60.3501C53.7792 60.3501 56.7937 58.2435 56.0185 57.2409C55.2134 56.1984 54.0116 58.1091 53.4405 59.0553C52.2238 61.0738 52.1989 61.5818 52.6786 61.2133L53.7792 60.3501ZM53.8423 62.7903C53.8423 62.7903 56.4518 61.6166 56.0003 60.7385C55.5355 59.8238 54.3403 61.1104 53.7659 61.7511C52.5425 63.1173 52.4495 63.5024 52.8712 63.2883L53.8423 62.7903ZM53.9983 65.2421C53.9983 65.2421 56.6078 64.0685 56.1563 63.1903C55.6915 62.2757 54.4963 63.5622 53.9219 64.2029C52.7002 65.5691 52.6072 65.9542 53.0272 65.7401L53.9983 65.2421ZM50.9356 59.7641C50.9356 59.7641 48.0671 57.4633 47.3234 58.4875C46.5482 59.5549 48.7195 60.1708 49.7885 60.453C52.0661 61.0522 52.5607 60.9344 52.0694 60.5792L50.9356 59.7641ZM51.0219 61.6864C51.0219 61.6864 47.7534 60.0015 47.2272 61.1535C46.681 62.3537 48.932 62.5263 50.0342 62.5894C52.3864 62.7255 52.8479 62.5097 52.2951 62.2574L51.0219 61.6864ZM51.4187 63.8444C51.4187 63.8444 48.6149 62.4948 48.1966 63.4825C47.7617 64.5084 49.6707 64.603 50.6036 64.6312C52.5956 64.691 52.9824 64.4984 52.5093 64.2992L51.4187 63.8444ZM51.5531 65.5857C51.5531 65.5857 48.9087 63.9473 48.3892 64.8835C47.8463 65.8579 49.7338 66.1534 50.66 66.2813C52.6338 66.5535 53.0372 66.4024 52.589 66.1534L51.5531 65.5857ZM51.2942 56.8491C51.2942 56.8491 50.7962 52.5331 49.1677 52.9797C47.4745 53.4395 48.8921 55.6207 49.6093 56.6732C51.1381 58.9175 51.6992 59.1632 51.5797 58.4643L51.2942 56.8491Z" fill="#0872BA"/>
<path id="Vector_26" opacity="0.4" d="M52.1989 59.696C51.8669 60.2023 51.7258 59.7143 52.2204 57.4102C52.4528 56.3296 52.9691 54.1317 54.0697 54.8571C55.1271 55.5543 52.9608 58.5257 52.9608 58.5257L52.1989 59.696ZM53.7792 60.3501C53.7792 60.3501 56.7937 58.2435 56.0185 57.2409C55.2134 56.1984 54.0116 58.1091 53.4405 59.0553C52.2238 61.0738 52.1989 61.5818 52.6786 61.2133L53.7792 60.3501ZM53.8423 62.7903C53.8423 62.7903 56.4518 61.6166 56.0003 60.7385C55.5355 59.8238 54.3403 61.1104 53.7659 61.7511C52.5425 63.1173 52.4495 63.5024 52.8712 63.2883L53.8423 62.7903ZM53.9983 65.2421C53.9983 65.2421 56.6078 64.0685 56.1563 63.1903C55.6915 62.2757 54.4963 63.5622 53.9219 64.2029C52.7002 65.5691 52.6072 65.9542 53.0272 65.7401L53.9983 65.2421ZM50.9356 59.7641C50.9356 59.7641 48.0671 57.4633 47.3234 58.4875C46.5482 59.5549 48.7195 60.1708 49.7885 60.453C52.0661 61.0522 52.5607 60.9344 52.0694 60.5792L50.9356 59.7641ZM51.0219 61.6864C51.0219 61.6864 47.7534 60.0015 47.2272 61.1535C46.681 62.3537 48.932 62.5263 50.0342 62.5894C52.3864 62.7255 52.8479 62.5097 52.2951 62.2574L51.0219 61.6864ZM51.4187 63.8444C51.4187 63.8444 48.6149 62.4948 48.1966 63.4825C47.7617 64.5084 49.6707 64.603 50.6036 64.6312C52.5956 64.691 52.9824 64.4984 52.5093 64.2992L51.4187 63.8444ZM51.5531 65.5857C51.5531 65.5857 48.9087 63.9473 48.3892 64.8835C47.8463 65.8579 49.7338 66.1534 50.66 66.2813C52.6338 66.5535 53.0372 66.4024 52.589 66.1534L51.5531 65.5857ZM51.2942 56.8491C51.2942 56.8491 50.7962 52.5331 49.1677 52.9797C47.4745 53.4395 48.8921 55.6207 49.6093 56.6732C51.1381 58.9175 51.6992 59.1632 51.5797 58.4643L51.2942 56.8491Z" fill="white"/>
<path id="Vector_27" d="M49.5078 54.5469C49.5078 54.5469 51.9895 59.1949 52.3746 61.3529C52.8195 63.8313 52.8926 66.5968 52.5871 68.7664" stroke="#0872BA" stroke-width="1.25197" stroke-linecap="round" stroke-linejoin="round"/>
<path id="Vector_28" d="M51.9829 59.9156L53.1947 56.1956" stroke="#0872BA" stroke-width="1.25197" stroke-linecap="round" stroke-linejoin="round"/>
<path id="Vector_29" d="M52.3748 61.3497L54.6589 58.4746" stroke="#0872BA" stroke-width="1.25197" stroke-linecap="round" stroke-linejoin="round"/>
<path id="Vector_30" d="M52.2287 60.8272L48.917 59.4395" stroke="#0872BA" stroke-width="1.25197" stroke-linecap="round" stroke-linejoin="round"/>
<path id="Vector_31" d="M52.6621 63.2977L55.1505 61.3887" stroke="#0872BA" stroke-width="1.25197" stroke-linecap="round" stroke-linejoin="round"/>
<path id="Vector_32" d="M52.5309 62.479L49.9297 61.9395" stroke="#0872BA" stroke-width="1.25197" stroke-linecap="round" stroke-linejoin="round"/>
<path id="Vector_33" d="M52.6552 64.4694L50.6416 64.1523" stroke="#0872BA" stroke-width="1.25197" stroke-linecap="round" stroke-linejoin="round"/>
<path id="Vector_34" d="M52.8262 65.7584L54.1791 64.5449" stroke="#0872BA" stroke-width="1.25197" stroke-linecap="round" stroke-linejoin="round"/>
<path id="Vector_35" d="M52.7999 66.3056L50.4858 65.7246" stroke="#0872BA" stroke-width="1.25197" stroke-linecap="round" stroke-linejoin="round"/>
<path id="Vector_36" d="M15.2389 63.7429C15.3401 64.2226 14.9799 64.0251 13.9408 62.4282C13.4461 61.6878 12.4849 60.139 13.5291 59.9249C14.5251 59.7141 15.0015 62.6506 15.0015 62.6506L15.2389 63.7429ZM16.5154 63.2084C16.5154 63.2084 17.0234 60.2801 16.0075 60.1523C14.9484 60.0212 15.3617 61.799 15.5792 62.6656C16.044 64.5131 16.3212 64.8236 16.381 64.3256L16.5154 63.2084ZM17.9513 64.5629C17.9513 64.5629 18.7631 62.3966 18.0044 62.1526C17.2159 61.8986 17.2724 63.3146 17.3139 64.0118C17.4019 65.4909 17.5695 65.7648 17.6857 65.4012L17.9513 64.5629ZM19.4453 65.8694C19.4453 65.8694 20.2571 63.7031 19.4984 63.459C18.7099 63.2051 18.7664 64.621 18.8079 65.3182C18.8959 66.7973 19.0635 67.0712 19.1797 66.7077L19.4453 65.8694ZM14.5583 64.5082C14.5583 64.5082 11.6051 64.8402 11.7695 65.8544C11.9355 66.9069 13.5307 66.0121 14.301 65.5589C15.9427 64.5945 16.1569 64.2426 15.6721 64.3222L14.5583 64.5082ZM15.7203 65.554C15.7203 65.554 12.8983 66.4703 13.2535 67.4281C13.6303 68.4241 15.0098 67.2322 15.6755 66.6346C17.0931 65.3631 17.2325 64.9746 16.7744 65.1489L15.7203 65.554ZM17.1827 66.55C17.1827 66.55 14.8123 67.3899 15.1409 68.1917C15.4729 69.0217 16.6217 67.9842 17.1695 67.4646C18.3315 66.3557 18.4493 66.0254 18.0642 66.1831L17.1827 66.55ZM18.2584 67.4646C18.2584 67.4646 15.8066 68.0589 16.0473 68.8889C16.298 69.7554 17.5413 68.8408 18.1422 68.3809C19.4237 67.4032 19.5665 67.0861 19.1681 67.2023L18.2584 67.4646ZM13.0942 62.644C13.0942 62.644 10.3352 60.4744 9.66294 61.6596C8.96242 62.893 11.0208 63.3196 12.0334 63.5105C14.1914 63.9106 14.6546 63.7296 14.1914 63.3993L13.0942 62.644Z" fill="#0872BA"/>
<path id="Vector_37" opacity="0.4" d="M15.2389 63.7429C15.3401 64.2226 14.9799 64.0251 13.9408 62.4282C13.4461 61.6878 12.4849 60.139 13.5291 59.9249C14.5251 59.7141 15.0015 62.6506 15.0015 62.6506L15.2389 63.7429ZM16.5154 63.2084C16.5154 63.2084 17.0234 60.2801 16.0075 60.1523C14.9484 60.0212 15.3617 61.799 15.5792 62.6656C16.044 64.5131 16.3212 64.8236 16.381 64.3256L16.5154 63.2084ZM17.9513 64.5629C17.9513 64.5629 18.7631 62.3966 18.0044 62.1526C17.2159 61.8986 17.2724 63.3146 17.3139 64.0118C17.4019 65.4909 17.5695 65.7648 17.6857 65.4012L17.9513 64.5629ZM19.4453 65.8694C19.4453 65.8694 20.2571 63.7031 19.4984 63.459C18.7099 63.2051 18.7664 64.621 18.8079 65.3182C18.8959 66.7973 19.0635 67.0712 19.1797 66.7077L19.4453 65.8694ZM14.5583 64.5082C14.5583 64.5082 11.6051 64.8402 11.7695 65.8544C11.9355 66.9069 13.5307 66.0121 14.301 65.5589C15.9427 64.5945 16.1569 64.2426 15.6721 64.3222L14.5583 64.5082ZM15.7203 65.554C15.7203 65.554 12.8983 66.4703 13.2535 67.4281C13.6303 68.4241 15.0098 67.2322 15.6755 66.6346C17.0931 65.3631 17.2325 64.9746 16.7744 65.1489L15.7203 65.554ZM17.1827 66.55C17.1827 66.55 14.8123 67.3899 15.1409 68.1917C15.4729 69.0217 16.6217 67.9842 17.1695 67.4646C18.3315 66.3557 18.4493 66.0254 18.0642 66.1831L17.1827 66.55ZM18.2584 67.4646C18.2584 67.4646 15.8066 68.0589 16.0473 68.8889C16.298 69.7554 17.5413 68.8408 18.1422 68.3809C19.4237 67.4032 19.5665 67.0861 19.1681 67.2023L18.2584 67.4646ZM13.0942 62.644C13.0942 62.644 10.3352 60.4744 9.66294 61.6596C8.96242 62.893 11.0208 63.3196 12.0334 63.5105C14.1914 63.9106 14.6546 63.7296 14.1914 63.3993L13.0942 62.644Z" fill="white"/>
<path id="Vector_38" d="M10.752 62.3633C10.752 62.3633 14.8322 63.5784 16.2881 64.5927C17.9432 65.7325 19.4182 67.1141 20.6638 68.6912" stroke="#0872BA" stroke-width="1.25197" stroke-linecap="round" stroke-linejoin="round"/>
<path id="Vector_39" d="M15.2421 63.999L13.7979 61.1836" stroke="#0872BA" stroke-width="1.25197" stroke-linecap="round" stroke-linejoin="round"/>
<path id="Vector_40" d="M16.2881 64.5924L15.9395 61.6426" stroke="#0872BA" stroke-width="1.25197" stroke-linecap="round" stroke-linejoin="round"/>
<path id="Vector_41" d="M15.9062 64.377L13.2236 65.4858" stroke="#0872BA" stroke-width="1.25197" stroke-linecap="round" stroke-linejoin="round"/>
<path id="Vector_42" d="M17.5698 65.5344L17.8919 63.0195" stroke="#0872BA" stroke-width="1.25197" stroke-linecap="round" stroke-linejoin="round"/>
<path id="Vector_43" d="M17.025 65.1445L15.2339 66.3298" stroke="#0872BA" stroke-width="1.25197" stroke-linecap="round" stroke-linejoin="round"/>
<path id="Vector_44" d="M18.2386 66.207L16.9089 67.1815" stroke="#0872BA" stroke-width="1.25197" stroke-linecap="round" stroke-linejoin="round"/>
<path id="Vector_45" d="M19.0752 66.8424L19.1499 65.375" stroke="#0872BA" stroke-width="1.25197" stroke-linecap="round" stroke-linejoin="round"/>
<path id="Vector_46" d="M19.3739 67.1699L17.7222 68.1659" stroke="#0872BA" stroke-width="1.25197" stroke-linecap="round" stroke-linejoin="round"/>
</g>
<g id="freepik--Floor--inject-3">
<path id="Vector_47" d="M42.0595 73.9888C54.4619 73.9888 64.516 72.8256 64.516 71.3909C64.516 69.9561 54.4619 68.793 42.0595 68.793C29.6571 68.793 19.603 69.9561 19.603 71.3909C19.603 72.8256 29.6571 73.9888 42.0595 73.9888Z" fill="#263238"/>
</g>
<g id="freepik--Character--inject-3">
<path id="Vector_48" d="M34.8601 32.0854C34.8601 32.0854 34.1363 30.2262 32.3817 29.3729C30.6271 28.5197 26.1584 30.9964 25.75 32.0439C25.3417 33.0913 26.8838 32.8556 26.4937 33.6225C26.1036 34.3895 20.9161 35.6909 20.2388 37.3941C19.5615 39.0972 21.0954 39.8293 20.8148 40.6593C20.5343 41.4893 18.6734 43.0646 19.5134 44.8757C20.3534 46.6867 24.1099 45.5779 25.262 45.2591C26.414 44.9404 25.7932 45.8036 26.2015 46.4527C26.6099 47.1017 29.5763 46.3498 30.6022 45.4002C31.6281 44.4507 31.2015 46.466 32.2024 46.1987C32.5676 46.1024 33.4242 44.2748 34.2509 41.2187C35.0776 38.1626 35.6403 34.7995 34.8601 32.0854Z" fill="#263238"/>
<path id="Vector_49" d="M29.5948 55.7145C29.5948 55.7145 28.7531 56.4101 27.6642 57.5289C26.5752 58.6477 24.9501 62.4691 24.5567 63.0617C24.1632 63.6543 23.32 64.3897 23.32 64.3897C23.32 64.3897 21.826 64.2901 21.7579 64.6403C21.6898 64.9906 21.6467 65.648 21.4475 65.9883C21.2483 66.3286 20.8648 66.7884 21.0458 67.3744C21.2267 67.9603 21.4541 68.5496 21.7728 68.3936C22.0916 68.2376 22.1945 68.0251 22.4667 67.2482C22.739 66.4713 24.97 64.8097 25.7502 63.7141C26.5304 62.6185 29.4603 59.7218 29.8404 59.3068C30.2206 58.8918 30.8364 59.0196 31.0805 57.2699C31.3245 55.5203 30.4264 55.1518 29.5948 55.7145Z" fill="white" stroke="#263238" stroke-linecap="round" stroke-linejoin="round"/>
<path id="Vector_50" d="M29.8401 59.3081C30.2219 58.8914 30.8361 59.0209 31.0802 57.2713C31.3242 55.5216 30.4261 55.1515 29.5945 55.7142C29.5945 55.7142 28.7528 56.4097 27.6639 57.5286C26.7027 58.5146 25.3283 61.5972 24.7456 62.7227C25.0327 63.1036 25.4286 63.3884 25.881 63.5394C26.8123 62.3376 29.4783 59.7032 29.8401 59.3081Z" fill="#0872BA" stroke="#263238" stroke-miterlimit="10"/>
<path id="Vector_51" d="M22.6344 65.4051L23.0261 64.3809C22.5879 64.3709 21.806 64.3908 21.7579 64.6415C21.6915 64.9901 21.6467 65.6491 21.4475 65.9894C21.2483 66.3297 20.8648 66.7895 21.0458 67.3755C21.2267 67.9615 21.4541 68.5491 21.7728 68.3947C22.0916 68.2404 22.1945 68.0262 22.4667 67.2493C22.5896 66.9007 23.1042 66.3762 23.7051 65.8035C23.3067 65.3835 22.6344 65.4051 22.6344 65.4051Z" fill="#B2B2B2" stroke="#263238" stroke-linecap="round" stroke-linejoin="round"/>
<path id="Vector_52" d="M31.9034 37.2465C31.9034 37.2465 30.094 36.883 29.5794 37.8873C29.0648 38.8916 30.6999 43.3935 30.7697 43.8832C30.8394 44.3729 28.5569 45.9499 27.9211 47.7012C27.2853 49.4525 27.697 51.0428 28.4457 53.3071C29.1943 55.5713 29.9529 56.6586 29.7454 57.6828C29.5379 58.707 29.5545 60.0234 29.9114 61.0161C30.2683 62.0088 32.1956 66.7033 32.1541 67.3241C32.1126 67.9449 31.3639 68.7932 31.3805 69.0704C31.3971 69.3476 32.8247 70.2407 33.341 70.7935C33.8573 71.3463 34.8732 71.6916 34.9628 71.3861C35.0525 71.0807 34.1411 70.2241 33.9867 69.4174C33.8324 68.6106 33.2962 66.8112 33.1949 65.7322C33.0937 64.6532 32.345 58.7601 32.2487 58.126C32.1923 57.5967 32.1817 57.0635 32.2172 56.5324C32.2172 56.5324 34.0432 53.4382 34.3519 50.9664C34.6607 48.4947 34.8848 45.0519 35.1122 44.2368C35.3396 43.4218 35.8426 41.5808 35.8426 41.5808C36.0459 40.63 36.1019 39.6536 36.0086 38.6858C35.8244 37.2897 33.7676 37.0142 33.1053 37.0739C32.4429 37.1337 31.9034 37.2465 31.9034 37.2465Z" fill="white" stroke="#263238" stroke-linecap="round" stroke-linejoin="round"/>
<path id="Vector_53" d="M33.092 64.874C32.8596 62.882 32.3217 58.659 32.2404 58.1311C32.1839 57.6018 32.1734 57.0686 32.2088 56.5375C32.2088 56.5375 34.0348 53.4432 34.3436 50.9715C34.4349 50.2328 34.5179 49.4078 34.5976 48.5911C33.3426 48.5396 30.7497 48.2591 28.3261 46.8945C28.162 47.1499 28.0257 47.422 27.9194 47.7063C27.282 49.4626 27.6953 51.0479 28.444 53.3121C29.1926 55.5763 29.9512 56.6636 29.7437 57.6879C29.5362 58.7121 29.5528 60.0285 29.9097 61.0211C30.1206 61.6221 30.914 63.5825 31.4984 65.1711C32.0471 65.2273 32.6003 65.1241 33.092 64.874Z" fill="#0872BA"/>
<g id="Clip path group">
<mask id="mask0_1_1299" style="mask-type:luminance" maskUnits="userSpaceOnUse" x="27" y="46" width="8" height="20">
<g id="freepik--clip-path-8--inject-3">
<path id="Vector_54" d="M33.092 64.874C32.8596 62.882 32.3217 58.659 32.2404 58.1311C32.1839 57.6018 32.1734 57.0686 32.2088 56.5375C32.2088 56.5375 34.0348 53.4432 34.3436 50.9715C34.4349 50.2328 34.5179 49.4078 34.5976 48.5911C33.3426 48.5396 30.7497 48.2591 28.3261 46.8945C28.162 47.1499 28.0257 47.422 27.9194 47.7063C27.282 49.4626 27.6953 51.0479 28.444 53.3121C29.1926 55.5763 29.9512 56.6636 29.7437 57.6879C29.5362 58.7121 29.5528 60.0285 29.9097 61.0211C30.1206 61.6221 30.914 63.5825 31.4984 65.1711C32.0471 65.2273 32.6003 65.1241 33.092 64.874Z" fill="white"/>
</g>
</mask>
<g mask="url(#mask0_1_1299)">
<g id="Group">
<path id="Vector_55" opacity="0.3" d="M32.3351 49.0666C32.1359 50.3946 31.7359 49.6658 31.6014 49.3986C31.467 49.1313 30.202 47.5311 30.2734 48.132C30.3448 48.7329 31.2063 55.4626 31.6014 57.594C31.9434 59.42 32.4779 62.8313 32.7933 64.9976C32.8912 64.9611 32.9892 64.9212 33.0921 64.8714C32.8597 62.8794 32.3219 58.6564 32.2405 58.1285C32.1841 57.5992 32.1735 57.066 32.209 56.5349C32.209 56.5349 34.035 53.4407 34.3437 50.9689C34.435 50.2302 34.518 49.4052 34.5977 48.5885C33.8736 48.5564 33.1525 48.4743 32.4397 48.3428C32.4049 48.6001 32.37 48.8425 32.3351 49.0666Z" fill="#263238"/>
<path id="Vector_56" d="M31.6313 50.334C31.6313 50.334 32.0214 54.4226 32.0978 55.9282" stroke="#263238" stroke-linecap="round" stroke-linejoin="round"/>
</g>
</g>
</g>
<path id="Vector_57" d="M33.092 64.874C32.8596 62.882 32.3217 58.659 32.2404 58.1311C32.1839 57.6018 32.1734 57.0686 32.2088 56.5375C32.2088 56.5375 34.0348 53.4432 34.3436 50.9715C34.4349 50.2328 34.5179 49.4078 34.5976 48.5911C33.3426 48.5396 30.7497 48.2591 28.3261 46.8945C28.162 47.1499 28.0257 47.422 27.9194 47.7063C27.282 49.4626 27.6953 51.0479 28.444 53.3121C29.1926 55.5763 29.9512 56.6636 29.7437 57.6879C29.5362 58.7121 29.5528 60.0285 29.9097 61.0211C30.1206 61.6221 30.914 63.5825 31.4984 65.1711C32.0471 65.2273 32.6003 65.1241 33.092 64.874Z" stroke="#263238" stroke-miterlimit="10"/>
<path id="Vector_58" d="M27.7798 48.1533C28.6098 49.0414 30.6815 50.6599 34.453 50.0225C34.7036 47.6985 34.9045 44.9562 35.1037 44.2407C35.3311 43.4257 35.8341 41.5847 35.8341 41.5847C36.0374 40.6339 36.0933 39.6575 36.0001 38.6897C35.8158 37.2936 33.7591 37.0181 33.0968 37.0778C32.4344 37.1376 31.9099 37.2438 31.9099 37.2438C31.9099 37.2438 30.1005 36.8803 29.5859 37.8846C29.0713 38.8889 30.7064 43.3908 30.7761 43.8805C30.8458 44.3702 28.5633 45.9472 27.9275 47.6985C27.8644 47.8562 27.8196 48.0056 27.7798 48.1533Z" fill="#808080"/>
<g id="Clip path group_2">
<mask id="mask1_1_1299" style="mask-type:luminance" maskUnits="userSpaceOnUse" x="27" y="37" width="10" height="14">
<g id="freepik--clip-path-9--inject-3">
<path id="Vector_59" d="M27.7798 48.1533C28.6098 49.0414 30.6815 50.6599 34.453 50.0225C34.7036 47.6985 34.9045 44.9562 35.1037 44.2407C35.3311 43.4257 35.8341 41.5847 35.8341 41.5847C36.0374 40.6339 36.0933 39.6575 36.0001 38.6897C35.8158 37.2936 33.7591 37.0181 33.0968 37.0778C32.4344 37.1376 31.9099 37.2438 31.9099 37.2438C31.9099 37.2438 30.1005 36.8803 29.5859 37.8846C29.0713 38.8889 30.7064 43.3908 30.7761 43.8805C30.8458 44.3702 28.5633 45.9472 27.9275 47.6985C27.8644 47.8562 27.8196 48.0056 27.7798 48.1533Z" fill="white"/>
</g>
</mask>
<g mask="url(#mask1_1_1299)">
<g id="Group_2">
<path id="Vector_60" opacity="0.3" d="M35.9935 38.6955C35.8092 37.2995 33.7525 37.0239 33.0901 37.0837C32.4278 37.1434 31.9032 37.2497 31.9032 37.2497C31.9032 37.2497 31.8202 37.2331 31.6858 37.2165L31.8684 38.1378C31.8684 38.1378 33.9351 40.1381 34.0015 41.2702C34.0679 42.4023 33.2014 43.3369 33.0055 44.5371C32.8096 45.7373 32.539 47.7359 32.3415 49.0689C32.1439 50.4019 31.7422 49.6681 31.6078 49.4009C31.4733 49.1336 30.2084 47.5334 30.2798 48.1343C30.2997 48.3003 30.3794 48.9444 30.4956 49.8292C31.5264 50.1612 32.8378 50.3006 34.4646 50.025C34.7153 47.701 34.9161 44.9587 35.1153 44.2433C35.3428 43.4282 35.8457 41.5873 35.8457 41.5873C36.0426 40.6366 36.0924 39.6613 35.9935 38.6955Z" fill="#263238"/>
</g>
</g>
</g>
<path id="Vector_61" d="M27.7798 48.1533C28.6098 49.0414 30.6815 50.6599 34.453 50.0225C34.7036 47.6985 34.9045 44.9562 35.1037 44.2407C35.3311 43.4257 35.8341 41.5847 35.8341 41.5847C36.0374 40.6339 36.0933 39.6575 36.0001 38.6897C35.8158 37.2936 33.7591 37.0181 33.0968 37.0778C32.4344 37.1376 31.9099 37.2438 31.9099 37.2438C31.9099 37.2438 30.1005 36.8803 29.5859 37.8846C29.0713 38.8889 30.7064 43.3908 30.7761 43.8805C30.8458 44.3702 28.5633 45.9472 27.9275 47.6985C27.8644 47.8562 27.8196 48.0056 27.7798 48.1533Z" stroke="#263238" stroke-linecap="round" stroke-linejoin="round"/>
<path id="Vector_62" d="M30.9526 36.4561C31.0949 36.7497 31.2024 37.0589 31.273 37.3774C31.3178 37.726 31.693 38.3402 32.2474 38.8266C32.8019 39.313 33.1455 38.8515 33.1206 38.1925C33.0957 37.5334 32.7504 35.9531 32.7504 35.9531C32.7504 35.9531 31.6034 36.569 30.9526 36.4561Z" fill="white" stroke="#263238" stroke-linecap="round" stroke-linejoin="round"/>
<path id="Vector_63" d="M29.3623 33.8643C29.3116 33.8557 29.2595 33.8584 29.21 33.8724C29.1605 33.8863 29.1146 33.9111 29.0759 33.945C29.0371 33.9788 29.0063 34.0209 28.9858 34.0681C28.9653 34.1153 28.9555 34.1664 28.9573 34.2179C28.9307 34.6312 29.6445 34.8171 29.6445 34.8171L29.3623 33.8643Z" fill="white" stroke="#263238" stroke-linecap="round" stroke-linejoin="round"/>
<path id="Vector_64" d="M31.8556 31.2227C31.8556 31.2227 30.6621 33.0487 29.4121 33.6197C29.4121 33.6197 29.5781 35.6715 30.3035 36.3421C31.029 37.0127 32.2042 36.8849 32.8981 36.3421C33.592 35.7993 33.2915 32.5241 33.2915 32.5241C33.2915 32.5241 32.2208 31.973 31.8556 31.2227Z" fill="white"/>
<g id="Clip path group_3">
<mask id="mask2_1_1299" style="mask-type:luminance" maskUnits="userSpaceOnUse" x="29" y="31" width="5" height="6">
<g id="freepik--clip-path-10--inject-3">
<path id="Vector_65" d="M31.8556 31.2227C31.8556 31.2227 30.6621 33.0487 29.4121 33.6197C29.4121 33.6197 29.5781 35.6715 30.3035 36.3421C31.029 37.0127 32.2042 36.8849 32.8981 36.3421C33.592 35.7993 33.2915 32.5241 33.2915 32.5241C33.2915 32.5241 32.2208 31.973 31.8556 31.2227Z" fill="white"/>
</g>
</mask>
<g mask="url(#mask2_1_1299)">
<g id="Group_3">
<path id="Vector_66" opacity="0.3" d="M31.8555 31.2227L31.8223 31.2708L31.8372 31.5065C32.297 32.5483 32.5442 33.6714 32.5643 34.8099C32.5764 35.1734 32.5146 35.5356 32.3828 35.8745C32.251 36.2135 32.0518 36.5222 31.7974 36.782C32.1972 36.7373 32.5775 36.5853 32.8979 36.3421C33.5918 35.8009 33.2914 32.5241 33.2914 32.5241C33.2914 32.5241 32.2207 31.973 31.8555 31.2227Z" fill="#263238"/>
</g>
</g>
</g>
<path id="Vector_67" d="M31.8556 31.2227C31.8556 31.2227 30.6621 33.0487 29.4121 33.6197C29.4121 33.6197 29.5781 35.6715 30.3035 36.3421C31.029 37.0127 32.2042 36.8849 32.8981 36.3421C33.592 35.7993 33.2915 32.5241 33.2915 32.5241C33.2915 32.5241 32.2208 31.973 31.8556 31.2227Z" stroke="#263238" stroke-linecap="round" stroke-linejoin="round"/>
<path id="Vector_68" d="M31.016 33.4492C31.0532 33.6204 31.0532 33.7976 31.016 33.9688C30.9579 34.3108 30.674 34.4303 31.084 34.4917" stroke="#263238" stroke-linecap="round" stroke-linejoin="round"/>
<path id="Vector_69" d="M30.7368 35.0265C30.7368 35.0265 31.4008 35.3486 32.2308 34.4688" stroke="#263238" stroke-linecap="round" stroke-linejoin="round"/>
<path id="Vector_70" d="M29.8052 33.9569C29.8052 33.9569 30.0758 33.5253 30.6468 33.7709" stroke="#263238" stroke-linecap="round" stroke-linejoin="round"/>
<path id="Vector_71" d="M31.6929 33.6683C31.6929 33.6683 32.3569 33.1238 32.8781 33.5388" stroke="#263238" stroke-linecap="round" stroke-linejoin="round"/>
<path id="Vector_72" d="M31.4839 32.6513C31.6165 32.4772 31.8101 32.3599 32.0257 32.323C32.2413 32.286 32.4629 32.3321 32.6459 32.4521" stroke="#263238" stroke-linecap="round" stroke-linejoin="round"/>
<path id="Vector_73" d="M53.1899 46.3171C61.1846 43.5752 65.443 34.8714 62.701 26.8766C59.9591 18.8818 51.2553 14.6235 43.2605 17.3654C35.2657 20.1073 31.0074 28.8111 33.7493 36.8059C36.4912 44.8007 45.1951 49.059 53.1899 46.3171Z" fill="#0872BA"/>
<g id="Clip path group_4">
<mask id="mask3_1_1299" style="mask-type:luminance" maskUnits="userSpaceOnUse" x="32" y="16" width="32" height="32">
<g id="freepik--clip-path-11--inject-3">
<path id="Vector_74" d="M53.1896 46.3171C61.1844 43.5752 65.4427 34.8714 62.7008 26.8766C59.9589 18.8818 51.2551 14.6235 43.2603 17.3654C35.2655 20.1073 31.0072 28.8111 33.7491 36.8059C36.491 44.8007 45.1948 49.059 53.1896 46.3171Z" fill="white"/>
</g>
</mask>
<g mask="url(#mask3_1_1299)">
<g id="Group_4">
<path id="Vector_75" d="M46.1517 25.0488L47.7121 25.3725L48.2433 25.9236L48.9355 26.0299L49.1563 26.6889L48.9953 27.1338L48.5222 27.3496L47.3635 27.1603L47.3319 27.0192L47.8797 26.6374L47.5029 25.9386L46.4671 25.7975L45.9143 25.3244L46.1517 25.0488Z" fill="#8F8F8F"/>
<path id="Vector_76" d="M58.7222 39.4447L57.4855 39.2372L55.9915 39.048L54.8926 39.292L53.8169 39.3069L52.7379 39.8049L52.1071 39.9826L51.717 40.0689L51.0679 40.6698L50.4222 41.1114L49.3316 40.7213L49.3598 39.6738L48.6958 39.5593L47.987 39.7253L47.8077 39.4132L47.738 38.7591L47.406 38.4587L46.9246 38.6396L46.8615 39.0264L46.2672 39.1924L45.6049 38.6778L45.2032 37.8727L45.5152 36.7622L46.5594 36.6045L46.8914 36.7904L47.3163 36.6958L47.7778 36.2592L48.2758 36.2974L49.1589 37.2552L49.3996 37.1655L49.1473 36.3654L48.8402 35.9869L48.7605 35.298L49.9474 34.4382L49.8329 33.0886L50.2977 32.5009L50.5782 31.583L50.9102 31.4336L51.6074 30.7198L51.5792 30.4293L51.0198 30.5953L50.8538 30.3346L50.4637 30.4226L49.8927 30.6982L50.0736 30.1736L51.2356 29.5428L51.4497 29.161L52.1137 29.825L52.5038 30.0724L52.9686 29.82L52.6532 29.4067L51.7917 29.0498L50.7293 28.2812L49.7084 27.8745L48.8269 27.9227L48.3057 27.5907L47.7081 27.5757L47.6683 27.7417L47.826 28.7842L48.0467 29.1079L47.9787 30.3131L47.1437 29.8798V29.3602L46.3137 29.171L45.907 28.8523L45.8887 27.926L46.7503 26.9532L46.6324 26.0867L46.2506 26.2095L45.9319 25.9456L45.7078 25.436L45.4505 25.4559L45.4356 26.0552L45.0604 26.2129L44.6089 25.011L44.2769 24.8965L43.7341 24.7936L43.2361 25.2036L44.1059 25.7298L44.3815 26.3008L42.8875 25.6269L41.7885 24.8666L41.5047 23.9254L40.5203 23.8457L39.9144 24.4649C39.7653 24.6073 39.6085 24.7414 39.4446 24.8666C39.1796 24.9969 38.9056 25.1078 38.6246 25.1986V25.8327L37.8162 26.0502L37.9739 26.4237L39.3334 26.3457L40.1717 26.9399L40.4473 28.1816L40.3012 29.3669L40.6332 30.5289L40.0256 32.4877L40.3875 35.1221L41.0366 36.5414L41.7504 37.5739L42.2982 37.5258L41.9977 36.9846L41.6192 36.6227L41.269 35.8824L41.5727 35.7396L42.3529 36.9016L42.9588 37.9574L43.163 38.8787L44.0179 39.5427L45.4206 40.1618L47.3744 40.2482L48.06 40.6549L48.6111 41.128L49.3366 41.3753L50.1666 41.4151L50.9385 41.206C50.9385 41.206 50.9816 41.5695 51.0215 41.7455C51.0613 41.9214 50.6978 42.6369 50.6978 42.6369L50.4654 43.432L50.9235 44.1492L51.7734 44.2952L53.1247 45.185L53.6675 45.2879L53.787 45.8191L53.9032 46.0532C56.5617 44.997 58.8692 43.2136 60.5615 40.9072L60.5233 40.6449L61.0877 38.6977L60.5565 38.4803L58.7222 39.4447Z" fill="#8F8F8F"/>
<path id="Vector_77" d="M59.3003 24.6229L58.7641 24.0353L58.1001 23.3713L57.7216 22.3404L58.3856 22.3039L58.3424 21.942L57.8727 22.0084L58.2229 21.7445L58.5948 21.4025L58.5151 21.0473L57.964 20.5758L57.7033 19.8322C55.0826 17.7689 51.8599 16.6177 48.5251 16.5536C45.1902 16.4895 41.9257 17.5159 39.2275 19.4769L40.1737 19.8753L39.8185 20.624L39.1761 20.9161L39.3172 21.8906L39.0566 22.0566L38.7893 22.5247L38.9669 23.1555L39.5844 23.0924L39.4699 23.7564L40.0725 23.6219L40.8095 22.0831L40.7913 21.4922L41.7673 21.2L41.9217 20.7203L42.926 20.3883L42.8978 19.7624L43.6348 19.5616C43.8131 19.4017 44.006 19.2589 44.2109 19.135C44.4253 19.1344 44.6394 19.1494 44.8516 19.1798L45.4791 19.4869L46.2228 19.3209L46.7739 18.7897L47.6039 18.6785C47.738 18.7305 47.8825 18.7498 48.0255 18.7349C48.2032 18.6951 48.6796 18.3282 48.6796 18.3282L49.8499 18.7382L50.3479 18.964L50.4657 19.4952L51.0135 19.447L51.1198 19.0901L51.6277 19.1997L51.656 19.4919L50.66 20.0114L51.4352 20.6572L52.8694 21.0821L53.5583 21.6731L54.3551 21.5718L54.4531 21.1784L54.7203 21.044L53.6413 20.546L53.0587 20.6007L53.4886 20.3567L52.9292 19.8488L53.5235 19.6828L54.3983 19.9351L54.7651 20.7468L55.2631 21.1203L55.8109 22.0781L56.7173 22.4716L56.9763 23.6419L57.9108 23.9938L57.9606 24.3905V24.8752L58.3159 25.4662L58.457 25.77L59.0828 25.7418L59.2339 25.0778L59.3003 24.6229Z" fill="#8F8F8F"/>
<path id="Vector_78" d="M58.9678 20.9473L59.0126 21.1514L58.9612 21.7573L59.1786 22.2304L59.6003 22.2852L59.7497 22.9592L59.2849 22.8762L59.6036 24.8151L59.3513 25.6899L59.8493 26.6195L60.4037 26.9415L60.8287 28.8572L61.6205 30.2433L62.3692 31.2675L63.2324 31.299L63.3585 30.5271L63.4531 30.4109C63.3928 29.7779 63.2936 29.1493 63.156 28.5285C62.5228 25.6495 61.0679 23.0159 58.9678 20.9473Z" fill="#8F8F8F"/>
<path id="Vector_79" d="M50.7295 22.5451L48.1598 22.0371L47.1405 22.301L47.0409 23.0298L46.5131 22.6629L45.7727 23.0132L45.9619 24.2001L46.7023 24.5188L47.0144 23.7419L47.6634 24.1553L48.9748 24.8691L49.4164 25.8501L50.5983 26.8162L52.0326 26.2369L51.8782 25.7123L51.425 25.1811L51.0399 23.7785L51.2607 23.0962L50.7295 22.5451Z" fill="#8F8F8F"/>
<path id="Vector_80" d="M52.8161 22.9002L52.2533 22.877L51.8782 23.3683L52.3546 24.3411L52.8161 24.2398V22.9002Z" fill="#8F8F8F"/>
<path id="Vector_81" d="M56.264 22.8416L54.9161 22.4714L54.5741 22.0996L54.3135 22.2689L54.7185 22.923L55.1368 23.7978L55.7162 23.8924L55.7909 23.7281L55.3526 23.2666L56.3536 23.416L56.264 22.8416Z" fill="#8F8F8F"/>
<path id="Vector_82" d="M48.7524 37.9395L48.6428 38.1121L49.7766 38.1951L50.3128 38.5968L51.0017 38.5188L51.1644 38.0739L50.3161 38.1138L48.7524 37.9395Z" fill="#8F8F8F"/>
<path id="Vector_83" d="M52.0573 37.9121L51.3601 38.2889L51.5294 38.5495L52.4524 38.3454L52.5653 38.0217L52.2548 38.1279L52.0573 37.9121Z" fill="#8F8F8F"/>
<path id="Vector_84" d="M46.1517 25.0488L47.7121 25.3725L48.2433 25.9236L48.9355 26.0299L49.1563 26.6889L48.9953 27.1338L48.5222 27.3496L47.3635 27.1603L47.3319 27.0192L47.8797 26.6374L47.5029 25.9386L46.4671 25.7975L45.9143 25.3244L46.1517 25.0488Z" stroke="#263238" stroke-miterlimit="10"/>
<path id="Vector_85" d="M58.7222 39.4447L57.4855 39.2372L55.9915 39.048L54.8926 39.292L53.8169 39.3069L52.7379 39.8049L52.1071 39.9826L51.717 40.0689L51.0679 40.6698L50.4222 41.1114L49.3316 40.7213L49.3598 39.6738L48.6958 39.5593L47.987 39.7253L47.8077 39.4132L47.738 38.7591L47.406 38.4587L46.9246 38.6396L46.8615 39.0264L46.2672 39.1924L45.6049 38.6778L45.2032 37.8727L45.5152 36.7622L46.5594 36.6045L46.8914 36.7904L47.3163 36.6958L47.7778 36.2592L48.2758 36.2974L49.1589 37.2552L49.3996 37.1655L49.1473 36.3654L48.8402 35.9869L48.7605 35.298L49.9474 34.4382L49.8329 33.0886L50.2977 32.5009L50.5782 31.583L50.9102 31.4336L51.6074 30.7198L51.5792 30.4293L51.0198 30.5953L50.8538 30.3346L50.4637 30.4226L49.8927 30.6982L50.0736 30.1736L51.2356 29.5428L51.4497 29.161L52.1137 29.825L52.5038 30.0724L52.9686 29.82L52.6532 29.4067L51.7917 29.0498L50.7293 28.2812L49.7084 27.8745L48.8269 27.9227L48.3057 27.5907L47.7081 27.5757L47.6683 27.7417L47.826 28.7842L48.0467 29.1079L47.9787 30.3131L47.1437 29.8798V29.3602L46.3137 29.171L45.907 28.8523L45.8887 27.926L46.7503 26.9532L46.6324 26.0867L46.2506 26.2095L45.9319 25.9456L45.7078 25.436L45.4505 25.4559L45.4356 26.0552L45.0604 26.2129L44.6089 25.011L44.2769 24.8965L43.7341 24.7936L43.2361 25.2036L44.1059 25.7298L44.3815 26.3008L42.8875 25.6269L41.7885 24.8666L41.5047 23.9254L40.5203 23.8457L39.9144 24.4649C39.7653 24.6073 39.6085 24.7414 39.4446 24.8666C39.1796 24.9969 38.9056 25.1078 38.6246 25.1986V25.8327L37.8162 26.0502L37.9739 26.4237L39.3334 26.3457L40.1717 26.9399L40.4473 28.1816L40.3012 29.3669L40.6332 30.5289L40.0256 32.4877L40.3875 35.1221L41.0366 36.5414L41.7504 37.5739L42.2982 37.5258L41.9977 36.9846L41.6192 36.6227L41.269 35.8824L41.5727 35.7396L42.3529 36.9016L42.9588 37.9574L43.163 38.8787L44.0179 39.5427L45.4206 40.1618L47.3744 40.2482L48.06 40.6549L48.6111 41.128L49.3366 41.3753L50.1666 41.4151L50.9385 41.206C50.9385 41.206 50.9816 41.5695 51.0215 41.7455C51.0613 41.9214 50.6978 42.6369 50.6978 42.6369L50.4654 43.432L50.9235 44.1492L51.7734 44.2952L53.1247 45.185L53.6675 45.2879L53.787 45.8191L53.9032 46.0532C56.5617 44.997 58.8692 43.2136 60.5615 40.9072L60.5233 40.6449L61.0877 38.6977L60.5565 38.4803L58.7222 39.4447Z" stroke="#263238" stroke-miterlimit="10"/>
<path id="Vector_86" d="M59.3003 24.6229L58.7641 24.0353L58.1001 23.3713L57.7216 22.3404L58.3856 22.3039L58.3424 21.942L57.8727 22.0084L58.2229 21.7445L58.5948 21.4025L58.5151 21.0473L57.964 20.5758L57.7033 19.8322C55.0826 17.7689 51.8599 16.6177 48.5251 16.5536C45.1902 16.4895 41.9257 17.5159 39.2275 19.4769L40.1737 19.8753L39.8185 20.624L39.1761 20.9161L39.3172 21.8906L39.0566 22.0566L38.7893 22.5247L38.9669 23.1555L39.5844 23.0924L39.4699 23.7564L40.0725 23.6219L40.8095 22.0831L40.7913 21.4922L41.7673 21.2L41.9217 20.7203L42.926 20.3883L42.8978 19.7624L43.6348 19.5616C43.8131 19.4017 44.006 19.2589 44.2109 19.135C44.4253 19.1344 44.6394 19.1494 44.8516 19.1798L45.4791 19.4869L46.2228 19.3209L46.7739 18.7897L47.6039 18.6785C47.738 18.7305 47.8825 18.7498 48.0255 18.7349C48.2032 18.6951 48.6796 18.3282 48.6796 18.3282L49.8499 18.7382L50.3479 18.964L50.4657 19.4952L51.0135 19.447L51.1198 19.0901L51.6277 19.1997L51.656 19.4919L50.66 20.0114L51.4352 20.6572L52.8694 21.0821L53.5583 21.6731L54.3551 21.5718L54.4531 21.1784L54.7203 21.044L53.6413 20.546L53.0587 20.6007L53.4886 20.3567L52.9292 19.8488L53.5235 19.6828L54.3983 19.9351L54.7651 20.7468L55.2631 21.1203L55.8109 22.0781L56.7173 22.4716L56.9763 23.6419L57.9108 23.9938L57.9606 24.3905V24.8752L58.3159 25.4662L58.457 25.77L59.0828 25.7418L59.2339 25.0778L59.3003 24.6229Z" stroke="#263238" stroke-miterlimit="10"/>
<path id="Vector_87" d="M58.9678 20.9473L59.0126 21.1514L58.9612 21.7573L59.1786 22.2304L59.6003 22.2852L59.7497 22.9592L59.2849 22.8762L59.6036 24.8151L59.3513 25.6899L59.8493 26.6195L60.4037 26.9415L60.8287 28.8572L61.6205 30.2433L62.3692 31.2675L63.2324 31.299L63.3585 30.5271L63.4531 30.4109C63.3928 29.7779 63.2936 29.1493 63.156 28.5285C62.5228 25.6495 61.0679 23.0159 58.9678 20.9473Z" stroke="#263238" stroke-miterlimit="10"/>
<path id="Vector_88" d="M50.7295 22.5451L48.1598 22.0371L47.1405 22.301L47.0409 23.0298L46.5131 22.6629L45.7727 23.0132L45.9619 24.2001L46.7023 24.5188L47.0144 23.7419L47.6634 24.1553L48.9748 24.8691L49.4164 25.8501L50.5983 26.8162L52.0326 26.2369L51.8782 25.7123L51.425 25.1811L51.0399 23.7785L51.2607 23.0962L50.7295 22.5451Z" stroke="#263238" stroke-miterlimit="10"/>
<path id="Vector_89" d="M52.8161 22.9002L52.2533 22.877L51.8782 23.3683L52.3546 24.3411L52.8161 24.2398V22.9002Z" stroke="#263238" stroke-miterlimit="10"/>
<path id="Vector_90" d="M56.264 22.8416L54.9161 22.4714L54.5741 22.0996L54.3135 22.2689L54.7185 22.923L55.1368 23.7978L55.7162 23.8924L55.7909 23.7281L55.3526 23.2666L56.3536 23.416L56.264 22.8416Z" stroke="#263238" stroke-miterlimit="10"/>
<path id="Vector_91" d="M48.7524 37.9395L48.6428 38.1121L49.7766 38.1951L50.3128 38.5968L51.0017 38.5188L51.1644 38.0739L50.3161 38.1138L48.7524 37.9395Z" stroke="#263238" stroke-miterlimit="10"/>
<path id="Vector_92" d="M52.0573 37.9121L51.3601 38.2889L51.5294 38.5495L52.4524 38.3454L52.5653 38.0217L52.2548 38.1279L52.0573 37.9121Z" stroke="#263238" stroke-miterlimit="10"/>
<path id="Vector_93" opacity="0.2" d="M52.9306 17.0215C54.326 19.7265 54.8897 22.784 54.5507 25.8087C54.2117 28.8335 52.9852 31.6903 51.0257 34.0194C49.0662 36.3484 46.4613 38.0455 43.5391 38.897C40.6169 39.7484 37.5081 39.716 34.6042 38.804C35.7695 41.0573 37.4729 42.9882 39.5633 44.4254C41.6537 45.8626 44.0665 46.7617 46.5876 47.0429C49.1087 47.3241 51.6603 46.9788 54.016 46.0375C56.3717 45.0963 58.4587 43.5882 60.0918 41.647C61.725 39.7059 62.8538 37.3917 63.3783 34.9097C63.9027 32.4277 63.8064 29.8547 63.098 27.4188C62.3897 24.9829 61.0911 22.7595 59.3175 20.9458C57.5439 19.1321 55.3501 17.7841 52.9306 17.0215Z" fill="black" stroke="#263238" stroke-linecap="round" stroke-linejoin="round"/>
</g>
</g>
</g>
<path id="Vector_94" d="M53.1899 46.3171C61.1846 43.5752 65.443 34.8714 62.701 26.8766C59.9591 18.8818 51.2553 14.6235 43.2605 17.3654C35.2657 20.1073 31.0074 28.8111 33.7493 36.8059C36.4912 44.8007 45.1951 49.059 53.1899 46.3171Z" stroke="#263238" stroke-miterlimit="10"/>
<path id="Vector_95" opacity="0.18" d="M53.1899 46.3171C61.1846 43.5752 65.443 34.8714 62.701 26.8766C59.9591 18.8818 51.2553 14.6235 43.2605 17.3654C35.2657 20.1073 31.0074 28.8111 33.7493 36.8059C36.4912 44.8007 45.1951 49.059 53.1899 46.3171Z" stroke="#263238" stroke-miterlimit="10"/>
<path id="Vector_96" d="M32.9595 36.6095C32.9595 36.6095 31.0422 36.5747 29.9931 37.2735C28.9439 37.9724 29.173 38.5152 29.4768 39.0846C29.7806 39.654 30.6139 39.7486 32.0896 39.3884C33.5654 39.0282 35.3997 38.0521 36.5501 37.3366C37.7004 36.6212 41.3989 32.5824 41.3989 32.5824L42.3435 32.0545C42.3435 32.0545 43.4208 31.8155 43.6715 31.6876C43.9221 31.5598 43.5768 31.4254 43.3743 31.4702C43.1718 31.515 42.5211 31.5731 42.5211 31.5731C42.5211 31.5731 43.708 31.022 43.7976 30.7896C43.8873 30.5572 43.8574 30.4227 43.5835 30.6236C43.3096 30.8244 42.3684 31.1066 42.3684 31.1066C42.3684 31.1066 43.8059 30.0675 43.8358 29.8832C43.8657 29.699 43.7677 29.5794 43.5619 29.767C43.3561 29.9546 42.0364 30.6966 42.0364 30.6966L42.9809 29.4383C42.9809 29.4383 43.0108 29.0615 42.6489 29.3985C42.3668 29.6866 42.0662 29.9561 41.7492 30.2053C41.5292 30.3168 41.3025 30.4144 41.0702 30.4974C41.0371 30.3089 41.0687 30.1146 41.1599 29.9463C41.2943 29.7405 41.5799 29.6143 41.3143 29.2059C41.2396 29.0897 41.1483 29.2425 41.0902 29.4666C41.0321 29.6907 40.4046 30.363 40.4013 30.5041C40.4724 30.8657 40.5633 31.2231 40.6735 31.5748C40.6735 31.5748 38.3462 33.7875 37.2124 34.7454C36.0786 35.7032 35.7333 35.8874 35.7333 35.8874L32.9595 36.6095Z" fill="white"/>
<g id="Clip path group_5">
<mask id="mask4_1_1299" style="mask-type:luminance" maskUnits="userSpaceOnUse" x="29" y="29" width="15" height="11">
<g id="freepik--clip-path-12--inject-3">
<path id="Vector_97" d="M32.9595 36.6095C32.9595 36.6095 31.0422 36.5747 29.9931 37.2735C28.9439 37.9724 29.173 38.5152 29.4768 39.0846C29.7806 39.654 30.6139 39.7486 32.0896 39.3884C33.5654 39.0282 35.3997 38.0521 36.5501 37.3366C37.7004 36.6212 41.3989 32.5824 41.3989 32.5824L42.3435 32.0545C42.3435 32.0545 43.4208 31.8155 43.6715 31.6876C43.9221 31.5598 43.5768 31.4254 43.3743 31.4702C43.1718 31.515 42.5211 31.5731 42.5211 31.5731C42.5211 31.5731 43.708 31.022 43.7976 30.7896C43.8873 30.5572 43.8574 30.4227 43.5835 30.6236C43.3096 30.8244 42.3684 31.1066 42.3684 31.1066C42.3684 31.1066 43.8059 30.0675 43.8358 29.8832C43.8657 29.699 43.7677 29.5794 43.5619 29.767C43.3561 29.9546 42.0364 30.6966 42.0364 30.6966L42.9809 29.4383C42.9809 29.4383 43.0108 29.0615 42.6489 29.3985C42.3668 29.6866 42.0662 29.9561 41.7492 30.2053C41.5292 30.3168 41.3025 30.4144 41.0702 30.4974C41.0371 30.3089 41.0687 30.1146 41.1599 29.9463C41.2943 29.7405 41.5799 29.6143 41.3143 29.2059C41.2396 29.0897 41.1483 29.2425 41.0902 29.4666C41.0321 29.6907 40.4046 30.363 40.4013 30.5041C40.4724 30.8657 40.5633 31.2231 40.6735 31.5748C40.6735 31.5748 38.3462 33.7875 37.2124 34.7454C36.0786 35.7032 35.7333 35.8874 35.7333 35.8874L32.9595 36.6095Z" fill="white"/>
</g>
</mask>
<g mask="url(#mask4_1_1299)">
<g id="Group_5">
<path id="Vector_98" opacity="0.3" d="M32.0896 39.3835C33.5654 39.0216 35.3997 38.0472 36.5501 37.3317C37.5029 36.7391 40.2021 33.8656 41.1034 32.8978L41.0868 32.8281C41.0868 32.8281 37.981 35.8012 36.6596 36.6594C35.3383 37.5176 32.4316 38.7078 31.4406 38.9734C30.7984 39.1312 30.1323 39.1673 29.4768 39.0797C29.7789 39.6491 30.6139 39.747 32.0896 39.3835Z" fill="#263238"/>
</g>
</g>
</g>
<path id="Vector_99" d="M32.9595 36.6095C32.9595 36.6095 31.0422 36.5747 29.9931 37.2735C28.9439 37.9724 29.173 38.5152 29.4768 39.0846C29.7806 39.654 30.6139 39.7486 32.0896 39.3884C33.5654 39.0282 35.3997 38.0521 36.5501 37.3366C37.7004 36.6212 41.3989 32.5824 41.3989 32.5824L42.3435 32.0545C42.3435 32.0545 43.4208 31.8155 43.6715 31.6876C43.9221 31.5598 43.5768 31.4254 43.3743 31.4702C43.1718 31.515 42.5211 31.5731 42.5211 31.5731C42.5211 31.5731 43.708 31.022 43.7976 30.7896C43.8873 30.5572 43.8574 30.4227 43.5835 30.6236C43.3096 30.8244 42.3684 31.1066 42.3684 31.1066C42.3684 31.1066 43.8059 30.0675 43.8358 29.8832C43.8657 29.699 43.7677 29.5794 43.5619 29.767C43.3561 29.9546 42.0364 30.6966 42.0364 30.6966L42.9809 29.4383C42.9809 29.4383 43.0108 29.0615 42.6489 29.3985C42.3668 29.6866 42.0662 29.9561 41.7492 30.2053C41.5292 30.3168 41.3025 30.4144 41.0702 30.4974C41.0371 30.3089 41.0687 30.1146 41.1599 29.9463C41.2943 29.7405 41.5799 29.6143 41.3143 29.2059C41.2396 29.0897 41.1483 29.2425 41.0902 29.4666C41.0321 29.6907 40.4046 30.363 40.4013 30.5041C40.4724 30.8657 40.5633 31.2231 40.6735 31.5748C40.6735 31.5748 38.3462 33.7875 37.2124 34.7454C36.0786 35.7032 35.7333 35.8874 35.7333 35.8874L32.9595 36.6095Z" stroke="#263238" stroke-linecap="round" stroke-linejoin="round"/>
<path id="Vector_100" d="M33.6979 68.2093L32.843 68.6476L32.0645 67.6914C31.8586 68.2425 31.3639 68.8534 31.3772 69.0742C31.3938 69.3531 32.8214 70.2445 33.3377 70.7973C33.8539 71.35 34.8699 71.6953 34.9595 71.3899C35.0491 71.0844 34.1378 70.2279 33.9834 69.4211C33.922 69.124 33.8124 68.6907 33.6979 68.2093Z" fill="#B2B2B2" stroke="#263238" stroke-linecap="round" stroke-linejoin="round"/>
</g>
</g>
</svg>
